<svg width="2963" height="840" viewBox="0 0 2963 840" fill="none" xmlns="http://www.w3.org/2000/svg">
<rect width="2963" height="840" fill="#121212"/>
<line y1="-2" x2="2657" y2="-2" transform="matrix(1 -0.000407332 0.000836636 1 144 145.09)" stroke="white" stroke-width="4"/>
<line y1="-2" x2="2657" y2="-2" transform="matrix(1 -0.000407332 0.000836636 1 144 245.089)" stroke="white" stroke-width="4"/>
<line y1="-2" x2="2657" y2="-2" transform="matrix(1 -0.000407332 0.000836636 1 144 345.082)" stroke="white" stroke-width="4"/>
<line y1="-2" x2="2657" y2="-2" transform="matrix(1 -0.000407332 0.000836636 1 144 445.082)" stroke="white" stroke-width="4"/>
<line y1="-2" x2="2657" y2="-2" transform="matrix(1 -0.000407332 0.000836636 1 144 544.082)" stroke="white" stroke-width="4"/>
<path d="M259.89 364.845C251.633 366.874 244.81 370.3 239.419 375.123C234.027 379.944 230.742 385.211 229.563 390.921C228.383 396.631 229.352 402.278 232.469 407.86C235.586 413.445 241.44 417.949 250.032 421.376C252.054 421.376 253.317 422.011 253.824 423.279C254.328 424.547 253.569 425.181 251.551 425.181C243.294 423.913 236.049 421.312 229.815 417.379C218.19 410.145 211.788 400.82 210.609 389.398C209.935 383.689 210.651 378.169 212.757 372.839C214.863 367.508 217.769 362.623 221.476 358.181C226.024 353.488 231.416 349.426 237.65 346.001C237.986 345.746 238.955 345.177 240.556 344.288C242.156 343.399 243.715 342.575 245.231 341.814C246.748 341.052 249.021 339.847 252.054 338.196L242.704 304.316C234.448 309.519 226.277 315.259 218.19 321.541C210.103 327.822 202.774 334.454 196.204 341.432C189.633 348.412 184.368 355.803 180.409 363.608C176.45 371.412 174.47 379.627 174.47 388.257C174.47 396.251 176.702 403.77 181.167 410.812C185.632 417.855 191.571 423.978 198.984 429.178C206.397 434.381 214.947 438.474 224.635 441.457C234.322 444.438 244.136 445.93 254.076 445.93C254.414 445.93 255.971 445.803 258.752 445.548C261.533 445.296 264.48 444.979 267.595 444.597C270.714 444.217 273.578 443.804 276.19 443.36C278.799 442.915 280.107 442.44 280.107 441.933L278.589 436.603C272.019 411.605 265.784 387.686 259.89 364.845ZM268.734 364.083L289.457 439.649C301.42 436.221 309.505 430.353 313.718 422.042C317.931 413.731 318.897 405.292 316.623 396.727C314.349 388.161 309.001 380.578 300.575 373.98C292.152 367.381 281.539 364.083 268.734 364.083ZM242.198 262.251C247.42 260.219 252.265 257.176 256.73 253.114C261.195 249.055 265.322 244.707 269.113 240.076C272.902 235.445 276.19 230.718 278.968 225.894C281.749 221.073 283.982 216.697 285.665 212.762C287.518 208.576 288.781 203.88 289.457 198.677C290.13 193.474 289.036 189.097 286.173 185.542C284.151 182.372 281.497 180.532 278.212 180.023C274.924 179.516 271.639 179.706 268.354 180.594C265.07 181.483 261.954 182.91 259.004 184.877C256.057 186.844 253.907 188.588 252.561 190.111C248.852 195.059 245.609 200.579 242.83 206.671C240.05 212.762 238.155 219.075 237.144 225.611C236.133 232.144 236.007 238.426 236.765 244.455C237.523 250.481 239.334 256.414 242.198 262.251ZM234.617 268.151C231.753 259.777 229.226 251.56 227.035 243.501C224.845 235.445 223.75 227.165 223.75 218.662C223.75 212.445 224.34 205.623 225.519 198.201C226.698 190.779 228.847 183.544 231.963 176.501C235.08 169.458 239.376 163.146 244.852 157.564C250.329 151.979 257.613 147.919 266.712 145.38C267.554 145.128 268.396 145.001 269.238 145.001C270.418 145.001 271.808 145.508 273.409 146.524C275.01 147.538 276.694 149.029 278.464 150.996C280.231 152.964 281.791 154.993 283.14 157.088C284.485 159.18 285.496 160.609 286.173 161.371C290.72 167.842 294.047 174.726 296.155 182.021C298.26 189.318 299.481 196.582 299.819 203.815C300.492 214.73 299.692 225.515 297.418 236.175C295.144 246.833 290.551 257.238 283.644 267.389C281.287 270.435 278.885 273.512 276.442 276.62C273.999 279.731 271.094 282.743 267.723 285.662C267.05 286.171 265.829 287.091 264.059 288.422C262.289 289.755 260.477 291.119 258.624 292.515C256.771 293.91 255.129 295.212 253.697 296.416C252.265 297.621 251.551 298.352 251.551 298.606L261.909 336.674C261.976 336.923 267.092 336.674 267.092 336.674C276.978 336.767 287.445 337.973 296.534 340.671C305.295 343.716 312.834 347.903 319.152 353.233C325.47 358.563 330.522 364.559 334.314 371.22C338.106 377.883 340 384.64 340 391.493C340 398.343 338.651 405.324 335.956 412.429C329.048 425.88 318.014 435.842 302.852 442.313C301.165 443.074 298.764 443.932 295.648 444.883C292.532 445.834 291.31 447.326 291.983 449.355C296.027 463.181 298.764 472.694 300.199 477.906C301.631 483.118 302.683 489.844 303.356 498.083C304.029 505.962 302.217 513.048 297.922 519.389C293.626 525.754 287.856 530.919 280.611 534.906C273.368 538.918 266.753 541.248 260.774 541.968C254.791 542.665 250.705 543.001 248.518 543.001C240.935 543.001 233.522 541.92 226.277 539.758C217.348 537.236 209.851 533.369 203.785 528.156C197.72 522.944 194.688 516.603 194.688 509.132C194.688 504.424 196.499 499.596 200.121 494.648C203.743 489.7 208.503 486.145 214.399 484.007C220.97 481.461 226.909 480.764 232.216 481.893C237.523 483.046 241.903 485.208 245.357 488.379C248.811 491.549 251.212 495.393 252.561 499.885C253.907 504.4 253.824 508.604 252.306 512.543C250.791 516.483 247.717 519.821 243.083 522.536C238.45 525.274 232.005 526.499 223.75 526.259C227.12 530.823 231.837 533.705 237.902 534.906C243.968 536.131 250.201 536.203 256.602 535.194C263.006 534.186 269.027 532.312 274.672 529.574C280.317 526.859 284.741 523.905 287.939 520.734C289.961 518.452 291.479 515.474 292.49 511.799C293.501 508.099 294.091 504.28 294.257 500.269C294.426 496.281 294.257 493.159 293.753 490.949C293.246 488.715 292.404 485.256 291.224 480.572C286.173 465.223 282.971 455.567 281.622 451.628C280.949 450.371 279.137 449.958 276.19 450.403C273.24 450.847 270.756 451.26 268.734 451.628C254.245 453.045 242.114 452.396 232.343 449.737C217.179 446.691 203.828 441.265 192.287 433.461C180.746 425.659 171.48 416.205 164.488 405.1C157.496 393.998 154 385.56 154 379.785C154 374.013 154 370.365 154 368.842C154 358.563 156.359 348.919 161.076 339.909C170.005 325.824 180.578 312.881 192.792 301.08C205.007 289.279 218.949 278.302 234.617 268.151Z" fill="white"/>
<ellipse cx="471.146" cy="540.605" rx="33.3092" ry="27.0175" transform="rotate(-6.48096 471.146 540.605)" fill="#00EFFE"/>
<line x1="440.439" y1="543" x2="440.44" y2="782" stroke="#00EFFE" stroke-width="5"/>
<ellipse cx="710.75" cy="493.75" rx="66.1192" ry="53.63" transform="rotate(-6.48096 710.75 493.75)" fill="#00EFFE"/>
<line x1="772.55" y1="381" x2="772.55" y2="480" stroke="#00EFFE" stroke-width="5"/>
<path d="M625.523 503.5V486.658L632.368 484.682V501.438L625.523 503.5ZM639 499.426L634.294 500.837V484.081L639 482.706V475.746L634.294 477.12V460H632.368V477.64L625.523 479.698V463.05H623.706V480.332L619 481.71V488.685L623.706 487.31V504.034L619 505.405V512.351L623.706 510.976V528H625.523V510.368L632.368 508.398V524.96H634.294V507.775L639 506.397V499.426Z" fill="#00EFFE"/>
<ellipse cx="946.725" cy="439.095" rx="33.8431" ry="27.4505" transform="rotate(-6.48096 946.725 439.095)" fill="#00EFFE"/>
<line x1="977.5" y1="353" x2="977.5" y2="443" stroke="#00EFFE" stroke-width="5"/>
</svg>
