<svg width="2963" height="840" viewBox="0 0 2963 840" fill="none" xmlns="http://www.w3.org/2000/svg">
<rect width="2963" height="840" fill="#121212"/>
<line y1="-2" x2="2657" y2="-2" transform="matrix(1 -0.000407332 0.000836636 1 144 145.088)" stroke="white" stroke-width="4"/>
<line y1="-2" x2="2657" y2="-2" transform="matrix(1 -0.000407332 0.000836636 1 144 245.088)" stroke="white" stroke-width="4"/>
<line y1="-2" x2="2657" y2="-2" transform="matrix(1 -0.000407332 0.000836636 1 144 345.082)" stroke="white" stroke-width="4"/>
<line y1="-2" x2="2657" y2="-2" transform="matrix(1 -0.000407332 0.000836636 1 144 445.082)" stroke="white" stroke-width="4"/>
<line y1="-2" x2="2657" y2="-2" transform="matrix(1 -0.000407332 0.000836636 1 144 544.082)" stroke="white" stroke-width="4"/>
<path d="M259.89 364.844C251.633 366.873 244.81 370.299 239.419 375.122C234.027 379.943 230.742 385.21 229.563 390.92C228.383 396.63 229.352 402.277 232.469 407.859C235.586 413.444 241.44 417.948 250.032 421.375C252.054 421.375 253.317 422.01 253.824 423.278C254.328 424.546 253.569 425.18 251.551 425.18C243.294 423.912 236.049 421.311 229.815 417.379C218.19 410.144 211.788 400.819 210.609 389.397C209.935 383.688 210.651 378.168 212.757 372.838C214.863 367.508 217.769 362.622 221.476 358.18C226.024 353.487 231.416 349.425 237.65 346C237.986 345.745 238.955 345.176 240.556 344.287C242.156 343.398 243.715 342.574 245.231 341.813C246.748 341.052 249.021 339.846 252.054 338.195L242.704 304.315C234.448 309.518 226.277 315.258 218.19 321.54C210.103 327.821 202.774 334.453 196.204 341.431C189.633 348.411 184.368 355.802 180.409 363.607C176.45 371.411 174.47 379.626 174.47 388.256C174.47 396.25 176.702 403.769 181.167 410.811C185.632 417.854 191.571 423.977 198.984 429.177C206.397 434.38 214.947 438.473 224.635 441.456C234.322 444.437 244.136 445.929 254.076 445.929C254.414 445.929 255.971 445.802 258.752 445.547C261.533 445.295 264.48 444.978 267.595 444.596C270.714 444.216 273.578 443.803 276.19 443.359C278.799 442.915 280.107 442.439 280.107 441.932L278.589 436.602C272.019 411.604 265.784 387.685 259.89 364.844ZM268.734 364.082L289.457 439.648C301.42 436.22 309.505 430.352 313.718 422.041C317.931 413.73 318.897 405.291 316.623 396.726C314.349 388.16 309.001 380.577 300.575 373.979C292.152 367.38 281.539 364.082 268.734 364.082ZM242.198 262.25C247.42 260.218 252.265 257.175 256.73 253.113C261.195 249.054 265.322 244.706 269.113 240.075C272.902 235.444 276.19 230.717 278.968 225.893C281.749 221.072 283.982 216.696 285.665 212.761C287.518 208.575 288.781 203.879 289.457 198.676C290.13 193.473 289.036 189.097 286.173 185.542C284.151 182.371 281.497 180.531 278.212 180.022C274.924 179.515 271.639 179.705 268.354 180.593C265.07 181.482 261.954 182.909 259.004 184.876C256.057 186.843 253.907 188.587 252.561 190.11C248.852 195.058 245.609 200.578 242.83 206.67C240.05 212.761 238.155 219.074 237.144 225.61C236.133 232.143 236.007 238.425 236.765 244.454C237.523 250.48 239.334 256.413 242.198 262.25ZM234.617 268.15C231.753 259.776 229.226 251.559 227.035 243.5C224.845 235.444 223.75 227.164 223.75 218.661C223.75 212.444 224.34 205.623 225.519 198.2C226.698 190.778 228.847 183.543 231.963 176.5C235.08 169.457 239.376 163.145 244.852 157.563C250.329 151.978 257.613 147.918 266.712 145.38C267.554 145.127 268.396 145 269.238 145C270.418 145 271.808 145.507 273.409 146.523C275.01 147.537 276.694 149.028 278.464 150.995C280.231 152.963 281.791 154.992 283.14 157.087C284.485 159.179 285.496 160.608 286.173 161.37C290.72 167.841 294.047 174.725 296.155 182.02C298.26 189.318 299.481 196.581 299.819 203.814C300.492 214.729 299.692 225.514 297.418 236.174C295.144 246.832 290.551 257.237 283.644 267.388C281.287 270.434 278.885 273.511 276.442 276.619C273.999 279.73 271.094 282.742 267.723 285.661C267.05 286.17 265.829 287.09 264.059 288.421C262.289 289.754 260.477 291.118 258.624 292.514C256.771 293.909 255.129 295.211 253.697 296.415C252.265 297.62 251.551 298.351 251.551 298.605L261.909 336.673C261.976 336.922 267.092 336.673 267.092 336.673C276.978 336.766 287.445 337.972 296.534 340.67C305.295 343.715 312.834 347.902 319.152 353.232C325.47 358.562 330.522 364.558 334.314 371.219C338.106 377.882 340 384.639 340 391.492C340 398.342 338.651 405.323 335.956 412.428C329.048 425.879 318.014 435.841 302.852 442.312C301.165 443.073 298.764 443.931 295.648 444.882C292.532 445.833 291.31 447.325 291.983 449.354C296.027 463.18 298.764 472.693 300.199 477.905C301.631 483.117 302.683 489.843 303.356 498.082C304.029 505.961 302.217 513.047 297.922 519.388C293.626 525.753 287.856 530.918 280.611 534.905C273.368 538.917 266.753 541.247 260.774 541.967C254.791 542.664 250.705 543 248.518 543C240.935 543 233.522 541.919 226.277 539.757C217.348 537.235 209.851 533.368 203.785 528.155C197.72 522.943 194.688 516.602 194.688 509.131C194.688 504.423 196.499 499.595 200.121 494.647C203.743 489.699 208.503 486.144 214.399 484.006C220.97 481.46 226.909 480.763 232.216 481.892C237.523 483.045 241.903 485.207 245.357 488.378C248.811 491.548 251.212 495.392 252.561 499.884C253.907 504.399 253.824 508.603 252.306 512.542C250.791 516.482 247.717 519.82 243.083 522.535C238.45 525.273 232.005 526.498 223.75 526.258C227.12 530.822 231.837 533.704 237.902 534.905C243.968 536.13 250.201 536.202 256.602 535.193C263.006 534.185 269.027 532.311 274.672 529.573C280.317 526.858 284.741 523.904 287.939 520.733C289.961 518.451 291.479 515.473 292.49 511.798C293.501 508.099 294.091 504.279 294.257 500.268C294.426 496.28 294.257 493.158 293.753 490.948C293.246 488.714 292.404 485.255 291.224 480.571C286.173 465.222 282.971 455.566 281.622 451.627C280.949 450.37 279.137 449.957 276.19 450.402C273.24 450.846 270.756 451.259 268.734 451.627C254.245 453.044 242.114 452.395 232.343 449.736C217.179 446.691 203.828 441.264 192.287 433.46C180.746 425.658 171.48 416.204 164.488 405.099C157.496 393.997 154 385.559 154 379.784C154 374.012 154 370.364 154 368.841C154 358.562 156.359 348.918 161.076 339.908C170.005 325.823 180.578 312.88 192.792 301.079C205.007 289.278 218.949 278.301 234.617 268.15Z" fill="white"/>
<ellipse cx="471.146" cy="540.605" rx="33.3092" ry="27.0175" transform="rotate(-6.48096 471.146 540.605)" fill="#00EFFE"/>
<line x1="440.439" y1="543" x2="440.44" y2="782" stroke="#00EFFE" stroke-width="5"/>
</svg>
