<svg width="2963" height="935" viewBox="0 0 2963 935" fill="none" xmlns="http://www.w3.org/2000/svg">
<rect width="2963" height="935" fill="#121212"/>
<line y1="-2" x2="2657" y2="-2" transform="matrix(1 -0.000407332 0.000836636 1 144 195.092)" stroke="white" stroke-width="4"/>
<line y1="-2" x2="2657" y2="-2" transform="matrix(1 -0.000407332 0.000836636 1 144 295.091)" stroke="white" stroke-width="4"/>
<line y1="-2" x2="2657" y2="-2" transform="matrix(1 -0.000407332 0.000836636 1 144 395.067)" stroke="white" stroke-width="4"/>
<line y1="-2" x2="2657" y2="-2" transform="matrix(1 -0.000407332 0.000836636 1 144 495.067)" stroke="white" stroke-width="4"/>
<line y1="-2" x2="2657" y2="-2" transform="matrix(1 -0.000407332 0.000836636 1 144 594.067)" stroke="white" stroke-width="4"/>
<path d="M259.89 456.109C251.633 458.369 244.81 462.181 239.419 467.55C234.027 472.916 230.742 478.779 229.563 485.135C228.383 491.49 229.352 497.776 232.469 503.99C235.586 510.206 241.44 515.219 250.032 519.035C252.054 519.035 253.317 519.74 253.824 521.152C254.328 522.564 253.569 523.27 251.551 523.27C243.294 521.858 236.049 518.962 229.815 514.586C218.19 506.532 211.788 496.153 210.609 483.44C209.935 477.084 210.651 470.94 212.757 465.007C214.863 459.074 217.769 453.636 221.476 448.692C226.024 443.468 231.416 438.947 237.65 435.134C237.986 434.851 238.955 434.217 240.556 433.228C242.156 432.239 243.715 431.321 245.231 430.474C246.748 429.626 249.021 428.284 252.054 426.447L242.704 388.735C234.448 394.526 226.277 400.916 218.19 407.908C210.103 414.9 202.774 422.282 196.204 430.049C189.633 437.819 184.368 446.046 180.409 454.732C176.45 463.419 174.47 472.563 174.47 482.17C174.47 491.068 176.702 499.436 181.167 507.276C185.632 515.115 191.571 521.93 198.984 527.719C206.397 533.51 214.947 538.066 224.635 541.387C234.322 544.705 244.136 546.365 254.076 546.365C254.414 546.365 255.971 546.223 258.752 545.94C261.533 545.659 264.48 545.306 267.595 544.881C270.714 544.459 273.578 543.999 276.19 543.504C278.799 543.01 280.107 542.48 280.107 541.916L278.589 535.983C272.019 508.158 265.784 481.533 259.89 456.109ZM268.734 455.262L289.457 539.373C301.42 535.558 309.505 529.026 313.718 519.775C317.931 510.524 318.897 501.132 316.623 491.597C314.349 482.063 309.001 473.622 300.575 466.277C292.152 458.933 281.539 455.262 268.734 455.262ZM242.198 341.913C247.42 339.651 252.265 336.264 256.73 331.743C261.195 327.224 265.322 322.385 269.113 317.23C272.902 312.075 276.19 306.813 278.968 301.444C281.749 296.078 283.982 291.207 285.665 286.827C287.518 282.167 288.781 276.94 289.457 271.149C290.13 265.357 289.036 260.486 286.173 256.529C284.151 253 281.497 250.952 278.212 250.385C274.924 249.821 271.639 250.032 268.354 251.021C265.07 252.01 261.954 253.599 259.004 255.788C256.057 257.978 253.907 259.919 252.561 261.614C248.852 267.122 245.609 273.266 242.83 280.047C240.05 286.827 238.155 293.854 237.144 301.129C236.133 308.401 236.007 315.393 236.765 322.104C237.523 328.812 239.334 335.416 242.198 341.913ZM234.617 348.48C231.753 339.159 229.226 330.013 227.035 321.042C224.845 312.075 223.75 302.859 223.75 293.394C223.75 286.474 224.34 278.881 225.519 270.619C226.698 262.358 228.847 254.304 231.963 246.465C235.08 238.626 239.376 231.599 244.852 225.386C250.329 219.169 257.613 214.651 266.712 211.825C267.554 211.544 268.396 211.402 269.238 211.402C270.418 211.402 271.808 211.966 273.409 213.097C275.01 214.226 276.694 215.886 278.464 218.076C280.231 220.266 281.791 222.525 283.14 224.856C284.485 227.185 285.496 228.776 286.173 229.624C290.72 236.826 294.047 244.489 296.155 252.609C298.26 260.732 299.481 268.817 299.819 276.868C300.492 289.017 299.692 301.022 297.418 312.888C295.144 324.751 290.551 336.333 283.644 347.632C281.287 351.023 278.885 354.447 276.442 357.907C273.999 361.37 271.094 364.722 267.723 367.971C267.05 368.538 265.829 369.562 264.059 371.043C262.289 372.527 260.477 374.046 258.624 375.599C256.771 377.152 255.129 378.602 253.697 379.941C252.265 381.283 251.551 382.096 251.551 382.38L261.909 424.752C261.976 425.03 267.092 424.752 267.092 424.752C276.978 424.856 287.445 426.199 296.534 429.201C305.295 432.591 312.834 437.252 319.152 443.185C325.47 449.118 330.522 455.791 334.314 463.205C338.106 470.622 340 478.143 340 485.771C340 493.397 338.651 501.166 335.956 509.075C329.048 524.048 318.014 535.136 302.852 542.338C301.165 543.186 298.764 544.141 295.648 545.199C292.532 546.258 291.31 547.918 291.983 550.178C296.027 565.568 298.764 576.155 300.199 581.957C301.631 587.759 302.683 595.245 303.356 604.416C304.029 613.186 302.217 621.073 297.922 628.132C293.626 635.217 287.856 640.966 280.611 645.404C273.368 649.869 266.753 652.462 260.774 653.265C254.791 654.04 250.705 654.414 248.518 654.414C240.935 654.414 233.522 653.211 226.277 650.805C217.348 647.997 209.851 643.693 203.785 637.891C197.72 632.089 194.688 625.03 194.688 616.715C194.688 611.475 196.499 606.101 200.121 600.593C203.743 595.085 208.503 591.128 214.399 588.748C220.97 585.914 226.909 585.139 232.216 586.396C237.523 587.679 241.903 590.085 245.357 593.615C248.811 597.144 251.212 601.422 252.561 606.422C253.907 611.448 253.824 616.127 252.306 620.512C250.791 624.897 247.717 628.613 243.083 631.634C238.45 634.682 232.005 636.046 223.75 635.779C227.12 640.859 231.837 644.067 237.902 645.404C243.968 646.768 250.201 646.848 256.602 645.725C263.006 644.602 269.027 642.516 274.672 639.468C280.317 636.447 284.741 633.158 287.939 629.629C289.961 627.089 291.479 623.774 292.49 619.683C293.501 615.566 294.091 611.314 294.257 606.849C294.426 602.411 294.257 598.935 293.753 596.475C293.246 593.989 292.404 590.139 291.224 584.925C286.173 567.84 282.971 557.092 281.622 552.707C280.949 551.309 279.137 550.849 276.19 551.343C273.24 551.838 270.756 552.298 268.734 552.707C254.245 554.285 242.114 553.563 232.343 550.603C217.179 547.213 203.828 541.173 192.287 532.486C180.746 523.802 171.48 513.278 164.488 500.918C157.496 488.56 154 479.167 154 472.74C154 466.315 154 462.253 154 460.558C154 449.118 156.359 438.383 161.076 428.354C170.005 412.675 180.578 398.269 192.792 385.133C205.007 371.998 218.949 359.779 234.617 348.48Z" fill="white"/>
<ellipse cx="471.146" cy="590.605" rx="33.3092" ry="27.0175" transform="rotate(-6.48096 471.146 590.605)" fill="#00EFFE"/>
<line x1="440.439" y1="593" x2="440.44" y2="832" stroke="#00EFFE" stroke-width="5"/>
<ellipse cx="710.75" cy="543.75" rx="66.1192" ry="53.63" transform="rotate(-6.48096 710.75 543.75)" fill="#00EFFE"/>
<line x1="772.55" y1="431" x2="772.55" y2="530" stroke="#00EFFE" stroke-width="5"/>
<path d="M625.523 553.5V536.658L632.368 534.682V551.438L625.523 553.5ZM639 549.426L634.294 550.837V534.081L639 532.706V525.746L634.294 527.12V510H632.368V527.64L625.523 529.698V513.05H623.706V530.332L619 531.71V538.685L623.706 537.31V554.034L619 555.405V562.351L623.706 560.976V578H625.523V560.368L632.368 558.398V574.96H634.294V557.775L639 556.397V549.426Z" fill="#00EFFE"/>
<path d="M1345.52 458.5V441.658L1352.37 439.682V456.438L1345.52 458.5ZM1359 454.426L1354.29 455.837V439.081L1359 437.706V430.746L1354.29 432.12V415H1352.37V432.64L1345.52 434.698V418.05H1343.71V435.332L1339 436.71V443.685L1343.71 442.31V459.034L1339 460.405V467.351L1343.71 465.976V483H1345.52V465.368L1352.37 463.398V479.96H1354.29V462.775L1359 461.397V454.426Z" fill="#00EFFE"/>
<path d="M2059.52 356.5V339.658L2066.37 337.682V354.438L2059.52 356.5ZM2073 352.426L2068.29 353.837V337.081L2073 335.706V328.746L2068.29 330.12V313H2066.37V330.64L2059.52 332.698V316.05H2057.71V333.332L2053 334.71V341.685L2057.71 340.31V357.034L2053 358.405V365.351L2057.71 363.976V381H2059.52V363.368L2066.37 361.398V377.96H2068.29V360.775L2073 359.397V352.426Z" fill="#00EFFE"/>
<path d="M2536.52 301.5V284.658L2543.37 282.682V299.438L2536.52 301.5ZM2550 297.426L2545.29 298.837V282.081L2550 280.706V273.746L2545.29 275.12V258H2543.37V275.64L2536.52 277.698V261.05H2534.71V278.332L2530 279.71V286.685L2534.71 285.31V302.034L2530 303.405V310.351L2534.71 308.976V326H2536.52V308.368L2543.37 306.398V322.96H2545.29V305.775L2550 304.397V297.426Z" fill="#00EFFE"/>
<ellipse cx="946.725" cy="489.095" rx="33.8431" ry="27.4505" transform="rotate(-6.48096 946.725 489.095)" fill="#00EFFE"/>
<line x1="977.5" y1="403" x2="977.5" y2="493" stroke="#00EFFE" stroke-width="5"/>
<ellipse cx="1182.88" cy="449.062" rx="22.9237" ry="18.5936" transform="rotate(-6.48096 1182.88 449.062)" fill="#00EFFE"/>
<line x1="1162.67" y1="447.915" x2="1162.5" y2="535.005" stroke="#00EFFE" stroke-width="5"/>
<ellipse cx="1419.46" cy="441.188" rx="55.7116" ry="45.1883" transform="rotate(-6.48096 1419.46 441.188)" fill="#00EFFE"/>
<line x1="1367.29" y1="450.529" x2="1367.29" y2="507.529" stroke="#00EFFE" stroke-width="5"/>
<ellipse cx="1654.71" cy="389.006" rx="28.3043" ry="22.958" transform="rotate(-6.48096 1654.71 389.006)" fill="#00EFFE"/>
<line x1="1679.79" y1="202" x2="1679.79" y2="390" stroke="#00EFFE" stroke-width="5"/>
<ellipse cx="1891.24" cy="344.07" rx="37.0803" ry="30.0762" transform="rotate(-6.48096 1891.24 344.07)" fill="#00EFFE"/>
<line x1="1924.93" y1="271" x2="1924.93" y2="345" stroke="#00EFFE" stroke-width="5"/>
<ellipse cx="2126.85" cy="343.582" rx="49.6203" ry="40.2476" transform="rotate(-6.48096 2126.85 343.582)" fill="#00EFFE"/>
<line y1="-2.5" x2="213.991" y2="-2.5" transform="matrix(0.000233028 1 -1 0.000203482 2171 133)" stroke="#00EFFE" stroke-width="5"/>
<ellipse cx="2363.4" cy="291.604" rx="52.8992" ry="42.9072" transform="rotate(-6.48096 2363.4 291.604)" fill="#00EFFE"/>
<line x1="2413.02" y1="240" x2="2413.02" y2="288" stroke="#00EFFE" stroke-width="5"/>
<ellipse cx="2599.49" cy="294.908" rx="45.6106" ry="36.9953" transform="rotate(-6.48096 2599.49 294.908)" fill="#00EFFE"/>
<line x1="2642.5" y1="29" x2="2642.5" y2="295" stroke="#00EFFE" stroke-width="5"/>
</svg>
