<svg width="2963" height="840" viewBox="0 0 2963 840" fill="none" xmlns="http://www.w3.org/2000/svg">
<rect width="2963" height="840" fill="#121212"/>
<line y1="-2" x2="2657" y2="-2" transform="matrix(1 -0.000407332 0.000836636 1 144 145.09)" stroke="white" stroke-width="4"/>
<line y1="-2" x2="2657" y2="-2" transform="matrix(1 -0.000407332 0.000836636 1 144 245.09)" stroke="white" stroke-width="4"/>
<line y1="-2" x2="2657" y2="-2" transform="matrix(1 -0.000407332 0.000836636 1 144 345.082)" stroke="white" stroke-width="4"/>
<line y1="-2" x2="2657" y2="-2" transform="matrix(1 -0.000407332 0.000836636 1 144 445.082)" stroke="white" stroke-width="4"/>
<line y1="-2" x2="2657" y2="-2" transform="matrix(1 -0.000407332 0.000836636 1 144 544.082)" stroke="white" stroke-width="4"/>
<path d="M259.89 364.846C251.633 366.875 244.81 370.301 239.419 375.124C234.027 379.945 230.742 385.212 229.563 390.922C228.383 396.632 229.352 402.279 232.469 407.861C235.586 413.446 241.44 417.95 250.032 421.377C252.054 421.377 253.317 422.012 253.824 423.28C254.328 424.548 253.569 425.182 251.551 425.182C243.294 423.914 236.049 421.313 229.815 417.38C218.19 410.146 211.788 400.821 210.609 389.399C209.935 383.69 210.651 378.17 212.757 372.84C214.863 367.509 217.769 362.624 221.476 358.182C226.024 353.489 231.416 349.427 237.65 346.002C237.986 345.747 238.955 345.178 240.556 344.289C242.156 343.4 243.715 342.576 245.231 341.815C246.748 341.053 249.021 339.848 252.054 338.197L242.704 304.317C234.448 309.52 226.277 315.26 218.19 321.542C210.103 327.823 202.774 334.455 196.204 341.433C189.633 348.413 184.368 355.804 180.409 363.609C176.45 371.413 174.47 379.628 174.47 388.258C174.47 396.252 176.702 403.771 181.167 410.813C185.632 417.856 191.571 423.979 198.984 429.179C206.397 434.382 214.947 438.475 224.635 441.458C234.322 444.439 244.136 445.931 254.076 445.931C254.414 445.931 255.971 445.804 258.752 445.549C261.533 445.297 264.48 444.98 267.595 444.598C270.714 444.218 273.578 443.805 276.19 443.361C278.799 442.916 280.107 442.441 280.107 441.934L278.589 436.604C272.019 411.606 265.784 387.687 259.89 364.846V364.846ZM268.734 364.084L289.457 439.65C301.42 436.222 309.505 430.354 313.718 422.043C317.931 413.732 318.897 405.293 316.623 396.728C314.349 388.162 309.001 380.579 300.575 373.981C292.152 367.382 281.539 364.084 268.734 364.084V364.084ZM242.198 262.252C247.42 260.22 252.265 257.177 256.73 253.115C261.195 249.056 265.322 244.708 269.113 240.077C272.902 235.446 276.19 230.718 278.968 225.895C281.749 221.074 283.982 216.698 285.665 212.763C287.518 208.577 288.781 203.881 289.457 198.678C290.13 193.475 289.036 189.098 286.173 185.543C284.151 182.373 281.497 180.533 278.212 180.024C274.924 179.517 271.639 179.707 268.354 180.595C265.07 181.484 261.954 182.911 259.004 184.878C256.057 186.845 253.907 188.589 252.561 190.112C248.852 195.06 245.609 200.58 242.83 206.672C240.05 212.763 238.155 219.076 237.144 225.612C236.133 232.145 236.007 238.427 236.765 244.456C237.523 250.482 239.334 256.415 242.198 262.252V262.252ZM234.617 268.152C231.753 259.778 229.226 251.561 227.035 243.502C224.845 235.446 223.75 227.166 223.75 218.663C223.75 212.446 224.34 205.624 225.519 198.202C226.698 190.78 228.847 183.545 231.963 176.502C235.08 169.459 239.376 163.147 244.852 157.565C250.329 151.98 257.613 147.92 266.712 145.381C267.554 145.129 268.396 145.002 269.238 145.002C270.418 145.002 271.808 145.509 273.409 146.525C275.01 147.538 276.694 149.03 278.464 150.997C280.231 152.965 281.791 154.994 283.14 157.089C284.485 159.181 285.496 160.61 286.173 161.372C290.72 167.843 294.047 174.727 296.155 182.022C298.26 189.319 299.481 196.583 299.819 203.816C300.492 214.731 299.692 225.516 297.418 236.176C295.144 246.834 290.551 257.239 283.644 267.39C281.287 270.436 278.885 273.513 276.442 276.621C273.999 279.732 271.094 282.744 267.723 285.663C267.05 286.172 265.829 287.092 264.059 288.423C262.289 289.756 260.477 291.12 258.624 292.516C256.771 293.911 255.129 295.213 253.697 296.416C252.265 297.622 251.551 298.353 251.551 298.607L261.909 336.675C261.976 336.924 267.092 336.675 267.092 336.675C276.978 336.768 287.445 337.974 296.534 340.672C305.295 343.717 312.834 347.904 319.152 353.234C325.47 358.564 330.522 364.56 334.314 371.221C338.106 377.884 340 384.641 340 391.494C340 398.344 338.651 405.325 335.956 412.43C329.048 425.881 318.014 435.842 302.852 442.314C301.165 443.075 298.764 443.933 295.648 444.884C292.532 445.835 291.31 447.327 291.983 449.356C296.027 463.182 298.764 472.694 300.199 477.907C301.631 483.119 302.683 489.845 303.356 498.084C304.029 505.963 302.217 513.049 297.922 519.39C293.626 525.755 287.856 530.92 280.611 534.907C273.368 538.919 266.753 541.248 260.774 541.969C254.791 542.666 250.705 543.002 248.518 543.002C240.935 543.002 233.522 541.921 226.277 539.759C217.348 537.237 209.851 533.37 203.785 528.157C197.72 522.945 194.688 516.604 194.688 509.133C194.688 504.425 196.499 499.597 200.121 494.649C203.743 489.701 208.503 486.146 214.399 484.008C220.97 481.462 226.909 480.765 232.216 481.894C237.523 483.047 241.903 485.209 245.357 488.38C248.811 491.55 251.212 495.394 252.561 499.885C253.907 504.401 253.824 508.605 252.306 512.544C250.791 516.484 247.717 519.822 243.083 522.537C238.45 525.275 232.005 526.5 223.75 526.26C227.12 530.824 231.837 533.706 237.902 534.907C243.968 536.132 250.201 536.204 256.602 535.195C263.006 534.187 269.027 532.313 274.672 529.575C280.317 526.86 284.741 523.906 287.939 520.735C289.961 518.453 291.479 515.475 292.49 511.8C293.501 508.1 294.091 504.281 294.257 500.27C294.426 496.282 294.257 493.16 293.753 490.95C293.246 488.716 292.404 485.257 291.224 480.573C286.173 465.224 282.971 455.568 281.622 451.629C280.949 450.372 279.137 449.959 276.19 450.404C273.24 450.848 270.756 451.261 268.734 451.629C254.245 453.046 242.114 452.397 232.343 449.738C217.179 446.692 203.828 441.266 192.287 433.462C180.746 425.66 171.48 416.206 164.488 405.101C157.496 393.999 154 385.561 154 379.786C154 374.014 154 370.365 154 368.843C154 358.564 156.359 348.92 161.076 339.91C170.005 325.825 180.578 312.882 192.792 301.081C205.007 289.28 218.949 278.303 234.617 268.152V268.152Z" fill="white"/>
<ellipse cx="471.146" cy="540.605" rx="33.3092" ry="27.0175" transform="rotate(-6.48096 471.146 540.605)" fill="#00EFFE"/>
<line x1="440.439" y1="543" x2="440.44" y2="782" stroke="#00EFFE" stroke-width="5"/>
<ellipse cx="710.75" cy="493.75" rx="66.1192" ry="53.63" transform="rotate(-6.48096 710.75 493.75)" fill="#00EFFE"/>
<line x1="772.55" y1="381" x2="772.55" y2="480" stroke="#00EFFE" stroke-width="5"/>
<path d="M625.523 503.5V486.658L632.368 484.682V501.438L625.523 503.5V503.5ZM639 499.426L634.294 500.837V484.081L639 482.706V475.746L634.294 477.12V460H632.368V477.64L625.523 479.698V463.05H623.706V480.332L619 481.71V488.685L623.706 487.31V504.034L619 505.405V512.351L623.706 510.976V528H625.523V510.368L632.368 508.398V524.96H634.294V507.775L639 506.397V499.426V499.426Z" fill="#00EFFE"/>
<path d="M1345.52 408.5V391.658L1352.37 389.682V406.438L1345.52 408.5V408.5ZM1359 404.426L1354.29 405.837V389.081L1359 387.706V380.746L1354.29 382.12V365H1352.37V382.64L1345.52 384.698V368.05H1343.71V385.332L1339 386.71V393.685L1343.71 392.31V409.034L1339 410.405V417.351L1343.71 415.976V433H1345.52V415.368L1352.37 413.398V429.96H1354.29V412.775L1359 411.397V404.426V404.426Z" fill="#00EFFE"/>
<path d="M2059.52 306.5V289.658L2066.37 287.682V304.438L2059.52 306.5V306.5ZM2073 302.426L2068.29 303.837V287.081L2073 285.706V278.746L2068.29 280.12V263H2066.37V280.64L2059.52 282.698V266.05H2057.71V283.332L2053 284.71V291.685L2057.71 290.31V307.034L2053 308.405V315.351L2057.71 313.976V331H2059.52V313.368L2066.37 311.398V327.96H2068.29V310.775L2073 309.397V302.426V302.426Z" fill="#00EFFE"/>
<ellipse cx="946.725" cy="439.095" rx="33.8431" ry="27.4505" transform="rotate(-6.48096 946.725 439.095)" fill="#00EFFE"/>
<line x1="977.5" y1="353" x2="977.5" y2="443" stroke="#00EFFE" stroke-width="5"/>
<ellipse cx="1182.88" cy="399.062" rx="22.9237" ry="18.5936" transform="rotate(-6.48096 1182.88 399.062)" fill="#00EFFE"/>
<line x1="1162.67" y1="397.915" x2="1162.5" y2="485.005" stroke="#00EFFE" stroke-width="5"/>
<ellipse cx="1419.46" cy="391.188" rx="55.7116" ry="45.1883" transform="rotate(-6.48096 1419.46 391.188)" fill="#00EFFE"/>
<line x1="1367.29" y1="400.529" x2="1367.29" y2="457.529" stroke="#00EFFE" stroke-width="5"/>
<ellipse cx="1654.71" cy="339.006" rx="28.3043" ry="22.958" transform="rotate(-6.48096 1654.71 339.006)" fill="#00EFFE"/>
<line x1="1679.79" y1="152" x2="1679.79" y2="340" stroke="#00EFFE" stroke-width="5"/>
<ellipse cx="1891.24" cy="294.07" rx="37.0803" ry="30.0762" transform="rotate(-6.48096 1891.24 294.07)" fill="#00EFFE"/>
<line x1="1924.93" y1="221" x2="1924.93" y2="295" stroke="#00EFFE" stroke-width="5"/>
<ellipse cx="2126.85" cy="293.582" rx="49.6203" ry="40.2476" transform="rotate(-6.48096 2126.85 293.582)" fill="#00EFFE"/>
<line y1="-2.5" x2="213.991" y2="-2.5" transform="matrix(0.000233028 1 -1 0.000203482 2171 83)" stroke="#00EFFE" stroke-width="5"/>
<ellipse cx="2363.4" cy="241.604" rx="52.8992" ry="42.9072" transform="rotate(-6.48096 2363.4 241.604)" fill="#00EFFE"/>
<line x1="2413.02" y1="190" x2="2413.02" y2="238" stroke="#00EFFE" stroke-width="5"/>
</svg>
