<svg width="2963" height="840" viewBox="0 0 2963 840" fill="none" xmlns="http://www.w3.org/2000/svg">
<rect width="2963" height="840" fill="#121212"/>
<line y1="-2" x2="2657" y2="-2" transform="matrix(1 -0.000407332 0.000836636 1 144 145.09)" stroke="white" stroke-width="4"/>
<line y1="-2" x2="2657" y2="-2" transform="matrix(1 -0.000407332 0.000836636 1 144 245.09)" stroke="white" stroke-width="4"/>
<line y1="-2" x2="2657" y2="-2" transform="matrix(1 -0.000407332 0.000836636 1 144 345.082)" stroke="white" stroke-width="4"/>
<line y1="-2" x2="2657" y2="-2" transform="matrix(1 -0.000407332 0.000836636 1 144 445.082)" stroke="white" stroke-width="4"/>
<line y1="-2" x2="2657" y2="-2" transform="matrix(1 -0.000407332 0.000836636 1 144 544.082)" stroke="white" stroke-width="4"/>
<path d="M259.89 364.846C251.633 366.875 244.81 370.301 239.419 375.124C234.027 379.945 230.742 385.212 229.563 390.922C228.383 396.632 229.352 402.279 232.469 407.861C235.586 413.446 241.44 417.95 250.032 421.377C252.054 421.377 253.317 422.012 253.824 423.28C254.328 424.548 253.569 425.182 251.551 425.182C243.294 423.914 236.049 421.313 229.815 417.38C218.19 410.146 211.788 400.821 210.609 389.399C209.935 383.69 210.651 378.17 212.757 372.84C214.863 367.509 217.769 362.624 221.476 358.182C226.024 353.489 231.416 349.427 237.65 346.002C237.986 345.747 238.955 345.178 240.556 344.289C242.156 343.4 243.715 342.576 245.231 341.815C246.748 341.053 249.021 339.848 252.054 338.197L242.704 304.317C234.448 309.52 226.277 315.26 218.19 321.542C210.103 327.823 202.774 334.455 196.204 341.433C189.633 348.413 184.368 355.804 180.409 363.609C176.45 371.413 174.47 379.628 174.47 388.258C174.47 396.252 176.702 403.771 181.167 410.813C185.632 417.856 191.571 423.979 198.984 429.179C206.397 434.382 214.947 438.475 224.635 441.458C234.322 444.439 244.136 445.931 254.076 445.931C254.414 445.931 255.971 445.804 258.752 445.549C261.533 445.297 264.48 444.98 267.595 444.598C270.714 444.218 273.578 443.805 276.19 443.361C278.799 442.916 280.107 442.441 280.107 441.934L278.589 436.604C272.019 411.606 265.784 387.687 259.89 364.846ZM268.734 364.084L289.457 439.65C301.42 436.222 309.505 430.354 313.718 422.043C317.931 413.732 318.897 405.293 316.623 396.728C314.349 388.162 309.001 380.579 300.575 373.981C292.152 367.382 281.539 364.084 268.734 364.084ZM242.198 262.252C247.42 260.22 252.265 257.177 256.73 253.115C261.195 249.056 265.322 244.708 269.113 240.077C272.902 235.446 276.19 230.718 278.968 225.895C281.749 221.074 283.982 216.698 285.665 212.763C287.518 208.577 288.781 203.881 289.457 198.678C290.13 193.475 289.036 189.098 286.173 185.543C284.151 182.373 281.497 180.533 278.212 180.024C274.924 179.517 271.639 179.707 268.354 180.595C265.07 181.484 261.954 182.911 259.004 184.878C256.057 186.845 253.907 188.589 252.561 190.112C248.852 195.06 245.609 200.58 242.83 206.672C240.05 212.763 238.155 219.076 237.144 225.612C236.133 232.145 236.007 238.427 236.765 244.456C237.523 250.482 239.334 256.415 242.198 262.252ZM234.617 268.152C231.753 259.778 229.226 251.561 227.035 243.502C224.845 235.446 223.75 227.166 223.75 218.663C223.75 212.446 224.34 205.624 225.519 198.202C226.698 190.78 228.847 183.545 231.963 176.502C235.08 169.459 239.376 163.147 244.852 157.565C250.329 151.98 257.613 147.92 266.712 145.381C267.554 145.129 268.396 145.002 269.238 145.002C270.418 145.002 271.808 145.509 273.409 146.525C275.01 147.538 276.694 149.03 278.464 150.997C280.231 152.965 281.791 154.994 283.14 157.089C284.485 159.181 285.496 160.61 286.173 161.372C290.72 167.843 294.047 174.727 296.155 182.022C298.26 189.319 299.481 196.583 299.819 203.816C300.492 214.731 299.692 225.516 297.418 236.176C295.144 246.834 290.551 257.239 283.644 267.39C281.287 270.436 278.885 273.513 276.442 276.621C273.999 279.732 271.094 282.744 267.723 285.663C267.05 286.172 265.829 287.092 264.059 288.423C262.289 289.756 260.477 291.12 258.624 292.516C256.771 293.911 255.129 295.213 253.697 296.416C252.265 297.622 251.551 298.353 251.551 298.607L261.909 336.675C261.976 336.924 267.092 336.675 267.092 336.675C276.978 336.768 287.445 337.974 296.534 340.672C305.295 343.717 312.834 347.904 319.152 353.234C325.47 358.564 330.522 364.56 334.314 371.221C338.106 377.884 340 384.641 340 391.494C340 398.344 338.651 405.325 335.956 412.43C329.048 425.881 318.014 435.842 302.852 442.314C301.165 443.075 298.764 443.933 295.648 444.884C292.532 445.835 291.31 447.327 291.983 449.356C296.027 463.182 298.764 472.694 300.199 477.907C301.631 483.119 302.683 489.845 303.356 498.084C304.029 505.963 302.217 513.049 297.922 519.39C293.626 525.755 287.856 530.92 280.611 534.907C273.368 538.919 266.753 541.249 260.774 541.969C254.791 542.666 250.705 543.002 248.518 543.002C240.935 543.002 233.522 541.921 226.277 539.759C217.348 537.237 209.851 533.37 203.785 528.157C197.72 522.945 194.688 516.604 194.688 509.133C194.688 504.425 196.499 499.597 200.121 494.649C203.743 489.701 208.503 486.146 214.399 484.008C220.97 481.462 226.909 480.765 232.216 481.894C237.523 483.047 241.903 485.209 245.357 488.38C248.811 491.55 251.212 495.394 252.561 499.885C253.907 504.401 253.824 508.605 252.306 512.544C250.791 516.484 247.717 519.822 243.083 522.537C238.45 525.275 232.005 526.5 223.75 526.26C227.12 530.824 231.837 533.706 237.902 534.907C243.968 536.132 250.201 536.204 256.602 535.195C263.006 534.186 269.027 532.313 274.672 529.575C280.317 526.86 284.741 523.906 287.939 520.735C289.961 518.453 291.479 515.475 292.49 511.8C293.501 508.1 294.091 504.281 294.257 500.27C294.426 496.282 294.257 493.16 293.753 490.95C293.246 488.716 292.404 485.257 291.224 480.573C286.173 465.224 282.971 455.568 281.622 451.629C280.949 450.372 279.137 449.959 276.19 450.404C273.24 450.848 270.756 451.261 268.734 451.629C254.245 453.046 242.114 452.397 232.343 449.738C217.179 446.692 203.828 441.266 192.287 433.462C180.746 425.66 171.48 416.206 164.488 405.101C157.496 393.999 154 385.561 154 379.786C154 374.014 154 370.365 154 368.843C154 358.564 156.359 348.92 161.076 339.91C170.005 325.825 180.578 312.882 192.792 301.081C205.007 289.28 218.949 278.303 234.617 268.152Z" fill="white"/>
<ellipse cx="506.461" cy="494.111" rx="50.1869" ry="40.7071" transform="rotate(-6.48096 506.461 494.111)" fill="#F8FF7A"/>
<line x1="553.979" y1="333" x2="553.979" y2="490" stroke="#F8FF7A" stroke-width="5"/>
<ellipse cx="741.627" cy="436.793" rx="53.1044" ry="43.0736" transform="rotate(-6.48096 741.627 436.793)" fill="#F8FF7A"/>
<line x1="791.476" y1="402" x2="791.476" y2="437" stroke="#F8FF7A" stroke-width="5"/>
<path d="M661.475 402V433.091C661.475 433.091 661.475 435.186 661.475 439.378C664.332 436.693 667.537 435.317 671.091 435.252C673.313 435.252 675.217 436.201 676.804 438.101C678.2 439.869 678.93 441.834 678.994 443.995C679.057 445.698 678.645 447.662 677.756 449.889C677.439 450.806 676.74 451.788 675.661 452.836C674.836 453.622 673.979 454.441 673.091 455.292C668.394 458.829 663.697 462.398 659 466V402H661.475ZM669.187 441.539C668.426 440.622 667.442 440.164 666.236 440.164C664.712 440.164 663.475 441.048 662.523 442.816C661.824 444.191 661.475 447.433 661.475 452.542V460.99C661.539 461.252 663.316 459.647 666.807 456.176C668.711 454.343 669.949 452.181 670.52 449.693C670.774 448.71 670.901 447.728 670.901 446.746C670.901 444.584 670.33 442.849 669.187 441.539Z" fill="#F8FF7A"/>
<path d="M1144.48 352V383.091C1144.48 383.091 1144.48 385.186 1144.48 389.378C1147.33 386.693 1150.54 385.317 1154.09 385.252C1156.31 385.252 1158.22 386.201 1159.8 388.101C1161.2 389.869 1161.93 391.834 1161.99 393.995C1162.06 395.698 1161.64 397.662 1160.76 399.889C1160.44 400.806 1159.74 401.788 1158.66 402.836C1157.84 403.622 1156.98 404.441 1156.09 405.292C1151.39 408.829 1146.7 412.398 1142 416V352H1144.48ZM1152.19 391.539C1151.43 390.622 1150.44 390.164 1149.24 390.164C1147.71 390.164 1146.47 391.048 1145.52 392.816C1144.82 394.191 1144.48 397.433 1144.48 402.542V410.99C1144.54 411.252 1146.32 409.647 1149.81 406.176C1151.71 404.343 1152.95 402.181 1153.52 399.693C1153.77 398.71 1153.9 397.728 1153.9 396.746C1153.9 394.584 1153.33 392.849 1152.19 391.539Z" fill="#F8FF7A"/>
<path d="M1623.48 293V324.091C1623.48 324.091 1623.48 326.186 1623.48 330.378C1626.33 327.693 1629.54 326.317 1633.09 326.252C1635.31 326.252 1637.22 327.201 1638.8 329.101C1640.2 330.869 1640.93 332.834 1640.99 334.995C1641.06 336.698 1640.64 338.662 1639.76 340.889C1639.44 341.806 1638.74 342.788 1637.66 343.836C1636.84 344.622 1635.98 345.441 1635.09 346.292C1630.39 349.829 1625.7 353.398 1621 357V293H1623.48ZM1631.19 332.539C1630.43 331.622 1629.44 331.164 1628.24 331.164C1626.71 331.164 1625.47 332.048 1624.52 333.816C1623.82 335.191 1623.48 338.433 1623.48 343.542V351.99C1623.54 352.252 1625.32 350.647 1628.81 347.176C1630.71 345.343 1631.95 343.181 1632.52 340.693C1632.77 339.71 1632.9 338.728 1632.9 337.746C1632.9 335.584 1632.33 333.849 1631.19 332.539Z" fill="#F8FF7A"/>
<ellipse cx="978.429" cy="435.077" rx="38.1774" ry="30.9661" transform="rotate(-6.48096 978.429 435.077)" fill="#F8FF7A"/>
<line x1="1013.5" y1="274" x2="1013.5" y2="439" stroke="#F8FF7A" stroke-width="5"/>
<path d="M923.523 445.5V428.658L930.368 426.682V443.438L923.523 445.5ZM937 441.426L932.294 442.837V426.081L937 424.706V417.746L932.294 419.12V402H930.368V419.64L923.523 421.698V405.05H921.706V422.332L917 423.71V430.685L921.706 429.31V446.034L917 447.405V454.351L921.706 452.976V470H923.523V452.368L930.368 450.398V466.96H932.294V449.775L937 448.397V441.426Z" fill="#F8FF7A"/>
<ellipse cx="1213.97" cy="391" rx="47.8886" ry="38.843" transform="rotate(-6.48096 1213.97 391)" fill="#F8FF7A"/>
<line x1="1259.5" y1="208" x2="1259.5" y2="394" stroke="#F8FF7A" stroke-width="5"/>
<ellipse cx="1449.99" cy="386.484" rx="45.1498" ry="36.6215" transform="rotate(-6.48096 1449.99 386.484)" fill="#F8FF7A"/>
<line x1="1407.59" y1="392.121" x2="1407.59" y2="445.576" stroke="#F8FF7A" stroke-width="5"/>
<ellipse cx="1685.85" cy="337.977" rx="41.3336" ry="33.5261" transform="rotate(-6.48096 1685.85 337.977)" fill="#F8FF7A"/>
<line x1="1722.68" y1="139" x2="1722.68" y2="327" stroke="#F8FF7A" stroke-width="5"/>
</svg>
