<svg width="2963" height="840" viewBox="0 0 2963 840" fill="none" xmlns="http://www.w3.org/2000/svg">
<rect width="2963" height="840" fill="#121212"/>
<line y1="-2" x2="2657" y2="-2" transform="matrix(1 -0.000407332 0.000836636 1 144 145.092)" stroke="white" stroke-width="4"/>
<line y1="-2" x2="2657" y2="-2" transform="matrix(1 -0.000407332 0.000836636 1 144 245.091)" stroke="white" stroke-width="4"/>
<line y1="-2" x2="2657" y2="-2" transform="matrix(1 -0.000407332 0.000836636 1 144 345.082)" stroke="white" stroke-width="4"/>
<line y1="-2" x2="2657" y2="-2" transform="matrix(1 -0.000407332 0.000836636 1 144 445.082)" stroke="white" stroke-width="4"/>
<line y1="-2" x2="2657" y2="-2" transform="matrix(1 -0.000407332 0.000836636 1 144 544.082)" stroke="white" stroke-width="4"/>
<path d="M259.89 364.847C251.633 366.876 244.81 370.302 239.419 375.125C234.027 379.946 230.742 385.213 229.563 390.923C228.383 396.633 229.352 402.28 232.469 407.862C235.586 413.447 241.44 417.951 250.032 421.378C252.054 421.378 253.317 422.013 253.824 423.281C254.328 424.549 253.569 425.183 251.551 425.183C243.294 423.915 236.049 421.314 229.815 417.381C218.19 410.147 211.788 400.822 210.609 389.4C209.935 383.691 210.651 378.171 212.757 372.841C214.863 367.51 217.769 362.625 221.476 358.183C226.024 353.49 231.416 349.428 237.65 346.003C237.986 345.748 238.955 345.179 240.556 344.29C242.156 343.401 243.715 342.577 245.231 341.816C246.748 341.054 249.021 339.849 252.054 338.198L242.704 304.318C234.448 309.521 226.277 315.261 218.19 321.543C210.103 327.824 202.774 334.456 196.204 341.434C189.633 348.414 184.368 355.805 180.409 363.61C176.45 371.414 174.47 379.629 174.47 388.259C174.47 396.253 176.702 403.772 181.167 410.814C185.632 417.857 191.571 423.98 198.984 429.18C206.397 434.383 214.947 438.476 224.635 441.459C234.322 444.44 244.136 445.932 254.076 445.932C254.414 445.932 255.971 445.805 258.752 445.55C261.533 445.298 264.48 444.981 267.595 444.599C270.714 444.219 273.578 443.806 276.19 443.362C278.799 442.917 280.107 442.442 280.107 441.935L278.589 436.605C272.019 411.607 265.784 387.688 259.89 364.847V364.847ZM268.734 364.085L289.457 439.651C301.42 436.223 309.505 430.355 313.718 422.044C317.931 413.733 318.897 405.294 316.623 396.729C314.349 388.163 309.001 380.58 300.575 373.982C292.152 367.383 281.539 364.085 268.734 364.085V364.085ZM242.198 262.253C247.42 260.221 252.265 257.178 256.73 253.116C261.195 249.057 265.322 244.709 269.113 240.078C272.902 235.447 276.19 230.719 278.968 225.896C281.749 221.075 283.982 216.699 285.665 212.764C287.518 208.578 288.781 203.882 289.457 198.679C290.13 193.476 289.036 189.099 286.173 185.544C284.151 182.374 281.497 180.534 278.212 180.025C274.924 179.518 271.639 179.707 268.354 180.596C265.07 181.485 261.954 182.912 259.004 184.879C256.057 186.846 253.907 188.59 252.561 190.113C248.852 195.061 245.609 200.581 242.83 206.673C240.05 212.764 238.155 219.077 237.144 225.613C236.133 232.146 236.007 238.428 236.765 244.457C237.523 250.483 239.334 256.416 242.198 262.253V262.253ZM234.617 268.153C231.753 259.779 229.226 251.562 227.035 243.503C224.845 235.447 223.75 227.167 223.75 218.664C223.75 212.447 224.34 205.625 225.519 198.203C226.698 190.781 228.847 183.546 231.963 176.503C235.08 169.46 239.376 163.148 244.852 157.566C250.329 151.981 257.613 147.921 266.712 145.382C267.554 145.13 268.396 145.003 269.238 145.003C270.418 145.003 271.808 145.51 273.409 146.526C275.01 147.539 276.694 149.031 278.464 150.998C280.231 152.966 281.791 154.995 283.14 157.09C284.485 159.182 285.496 160.611 286.173 161.373C290.72 167.844 294.047 174.728 296.155 182.023C298.26 189.32 299.481 196.584 299.819 203.817C300.492 214.732 299.692 225.517 297.418 236.177C295.144 246.835 290.551 257.24 283.644 267.391C281.287 270.437 278.885 273.514 276.442 276.622C273.999 279.733 271.094 282.745 267.723 285.664C267.05 286.173 265.829 287.093 264.059 288.424C262.289 289.757 260.477 291.121 258.624 292.517C256.771 293.912 255.129 295.214 253.697 296.417C252.265 297.623 251.551 298.354 251.551 298.608L261.909 336.676C261.976 336.925 267.092 336.676 267.092 336.676C276.978 336.769 287.445 337.975 296.534 340.673C305.295 343.718 312.834 347.905 319.152 353.235C325.47 358.565 330.522 364.561 334.314 371.222C338.106 377.885 340 384.642 340 391.495C340 398.345 338.651 405.326 335.956 412.431C329.048 425.882 318.014 435.843 302.852 442.315C301.165 443.076 298.764 443.934 295.648 444.885C292.532 445.836 291.31 447.328 291.983 449.357C296.027 463.183 298.764 472.695 300.199 477.908C301.631 483.12 302.683 489.846 303.356 498.085C304.029 505.964 302.217 513.05 297.922 519.391C293.626 525.756 287.856 530.921 280.611 534.908C273.368 538.919 266.753 541.249 260.774 541.97C254.791 542.667 250.705 543.003 248.518 543.003C240.935 543.003 233.522 541.922 226.277 539.76C217.348 537.238 209.851 533.371 203.785 528.158C197.72 522.946 194.688 516.605 194.688 509.134C194.688 504.426 196.499 499.598 200.121 494.65C203.743 489.702 208.503 486.147 214.399 484.009C220.97 481.463 226.909 480.766 232.216 481.895C237.523 483.048 241.903 485.21 245.357 488.381C248.811 491.551 251.212 495.395 252.561 499.886C253.907 504.402 253.824 508.606 252.306 512.545C250.791 516.485 247.717 519.823 243.083 522.538C238.45 525.276 232.005 526.501 223.75 526.261C227.12 530.825 231.837 533.707 237.902 534.908C243.968 536.133 250.201 536.205 256.602 535.196C263.006 534.187 269.027 532.314 274.672 529.576C280.317 526.861 284.741 523.907 287.939 520.736C289.961 518.454 291.479 515.476 292.49 511.801C293.501 508.101 294.091 504.282 294.257 500.271C294.426 496.283 294.257 493.161 293.753 490.951C293.246 488.717 292.404 485.258 291.224 480.574C286.173 465.225 282.971 455.569 281.622 451.63C280.949 450.373 279.137 449.96 276.19 450.405C273.24 450.849 270.756 451.262 268.734 451.63C254.245 453.047 242.114 452.398 232.343 449.739C217.179 446.693 203.828 441.267 192.287 433.463C180.746 425.661 171.48 416.207 164.488 405.102C157.496 394 154 385.562 154 379.787C154 374.015 154 370.366 154 368.844C154 358.565 156.359 348.921 161.076 339.911C170.005 325.826 180.578 312.883 192.792 301.082C205.007 289.281 218.949 278.304 234.617 268.153V268.153Z" fill="white"/>
<ellipse cx="506.461" cy="494.111" rx="50.1869" ry="40.7071" transform="rotate(-6.48096 506.461 494.111)" fill="#F8FF7A"/>
<line x1="553.979" y1="333" x2="553.979" y2="490" stroke="#F8FF7A" stroke-width="5"/>
<ellipse cx="741.627" cy="436.793" rx="53.1044" ry="43.0736" transform="rotate(-6.48096 741.627 436.793)" fill="#F8FF7A"/>
<line x1="791.476" y1="402" x2="791.476" y2="437" stroke="#F8FF7A" stroke-width="5"/>
<path d="M661.475 402V433.091C661.475 433.091 661.475 435.186 661.475 439.378C664.332 436.693 667.537 435.317 671.091 435.252C673.313 435.252 675.217 436.201 676.804 438.101C678.2 439.869 678.93 441.834 678.994 443.995C679.057 445.698 678.645 447.662 677.756 449.889C677.439 450.806 676.74 451.788 675.661 452.836C674.836 453.622 673.979 454.441 673.091 455.292C668.394 458.829 663.697 462.398 659 466V402H661.475V402ZM669.187 441.539C668.426 440.622 667.442 440.164 666.236 440.164C664.712 440.164 663.475 441.048 662.523 442.816C661.824 444.191 661.475 447.433 661.475 452.542V460.99C661.539 461.252 663.316 459.647 666.807 456.176C668.711 454.343 669.949 452.181 670.52 449.693C670.774 448.71 670.901 447.728 670.901 446.746C670.901 444.584 670.33 442.849 669.187 441.539" fill="#F8FF7A"/>
<path d="M1144.48 352V383.091C1144.48 383.091 1144.48 385.186 1144.48 389.378C1147.33 386.693 1150.54 385.317 1154.09 385.252C1156.31 385.252 1158.22 386.201 1159.8 388.101C1161.2 389.869 1161.93 391.834 1161.99 393.995C1162.06 395.698 1161.64 397.662 1160.76 399.889C1160.44 400.806 1159.74 401.788 1158.66 402.836C1157.84 403.622 1156.98 404.441 1156.09 405.292C1151.39 408.829 1146.7 412.398 1142 416V352H1144.48V352ZM1152.19 391.539C1151.43 390.622 1150.44 390.164 1149.24 390.164C1147.71 390.164 1146.47 391.048 1145.52 392.816C1144.82 394.191 1144.48 397.433 1144.48 402.542V410.99C1144.54 411.252 1146.32 409.647 1149.81 406.176C1151.71 404.343 1152.95 402.181 1153.52 399.693C1153.77 398.71 1153.9 397.728 1153.9 396.746C1153.9 394.584 1153.33 392.849 1152.19 391.539" fill="#F8FF7A"/>
<path d="M1623.48 293V324.091C1623.48 324.091 1623.48 326.186 1623.48 330.378C1626.33 327.693 1629.54 326.317 1633.09 326.252C1635.31 326.252 1637.22 327.201 1638.8 329.101C1640.2 330.869 1640.93 332.834 1640.99 334.995C1641.06 336.698 1640.64 338.662 1639.76 340.889C1639.44 341.806 1638.74 342.788 1637.66 343.836C1636.84 344.622 1635.98 345.441 1635.09 346.292C1630.39 349.829 1625.7 353.398 1621 357V293H1623.48V293ZM1631.19 332.539C1630.43 331.622 1629.44 331.164 1628.24 331.164C1626.71 331.164 1625.47 332.048 1624.52 333.816C1623.82 335.191 1623.48 338.433 1623.48 343.542V351.99C1623.54 352.252 1625.32 350.647 1628.81 347.176C1630.71 345.343 1631.95 343.181 1632.52 340.693C1632.77 339.71 1632.9 338.728 1632.9 337.746C1632.9 335.584 1632.33 333.849 1631.19 332.539" fill="#F8FF7A"/>
<ellipse cx="978.429" cy="435.077" rx="38.1774" ry="30.9661" transform="rotate(-6.48096 978.429 435.077)" fill="#F8FF7A"/>
<line x1="1013.5" y1="274" x2="1013.5" y2="439" stroke="#F8FF7A" stroke-width="5"/>
<path d="M923.523 445.5V428.658L930.368 426.682V443.438L923.523 445.5V445.5ZM937 441.426L932.294 442.837V426.081L937 424.706V417.746L932.294 419.12V402H930.368V419.64L923.523 421.698V405.05H921.706V422.332L917 423.71V430.685L921.706 429.31V446.034L917 447.405V454.351L921.706 452.976V470H923.523V452.368L930.368 450.398V466.96H932.294V449.775L937 448.397V441.426V441.426Z" fill="#F8FF7A"/>
<path d="M1862.52 347.5V330.658L1869.37 328.682V345.438L1862.52 347.5V347.5ZM1876 343.426L1871.29 344.837V328.081L1876 326.706V319.746L1871.29 321.12V304H1869.37V321.64L1862.52 323.698V307.05H1860.71V324.332L1856 325.71V332.685L1860.71 331.31V348.034L1856 349.405V356.351L1860.71 354.976V372H1862.52V354.368L1869.37 352.398V368.96H1871.29V351.775L1876 350.397V343.426V343.426Z" fill="#F8FF7A"/>
<ellipse cx="1213.97" cy="391" rx="47.8886" ry="38.843" transform="rotate(-6.48096 1213.97 391)" fill="#F8FF7A"/>
<line x1="1259.5" y1="208" x2="1259.5" y2="394" stroke="#F8FF7A" stroke-width="5"/>
<ellipse cx="1449.99" cy="386.484" rx="45.1498" ry="36.6215" transform="rotate(-6.48096 1449.99 386.484)" fill="#F8FF7A"/>
<line x1="1407.59" y1="392.121" x2="1407.59" y2="445.576" stroke="#F8FF7A" stroke-width="5"/>
<ellipse cx="1685.85" cy="337.977" rx="41.3336" ry="33.5261" transform="rotate(-6.48096 1685.85 337.977)" fill="#F8FF7A"/>
<line x1="1722.68" y1="139" x2="1722.68" y2="327" stroke="#F8FF7A" stroke-width="5"/>
<ellipse cx="1921.63" cy="337.631" rx="42.0454" ry="34.1035" transform="rotate(-6.48096 1921.63 337.631)" fill="#F8FF7A"/>
<line x1="1960.5" y1="113" x2="1960.5" y2="341" stroke="#F8FF7A" stroke-width="5"/>
<ellipse cx="2157.62" cy="293.544" rx="48.4902" ry="39.3309" transform="rotate(-6.48096 2157.62 293.544)" fill="#F8FF7A"/>
<line x1="2203.25" y1="48" x2="2203.25" y2="298" stroke="#F8FF7A" stroke-width="5"/>
</svg>
