<svg width="2963" height="840" viewBox="0 0 2963 840" fill="none" xmlns="http://www.w3.org/2000/svg">
<rect width="2963" height="840" fill="#121212"/>
<line y1="-2" x2="2657" y2="-2" transform="matrix(1 -0.000407332 0.000836636 1 144 145.089)" stroke="white" stroke-width="4"/>
<line y1="-2" x2="2657" y2="-2" transform="matrix(1 -0.000407332 0.000836636 1 144 245.088)" stroke="white" stroke-width="4"/>
<line y1="-2" x2="2657" y2="-2" transform="matrix(1 -0.000407332 0.000836636 1 144 345.082)" stroke="white" stroke-width="4"/>
<line y1="-2" x2="2657" y2="-2" transform="matrix(1 -0.000407332 0.000836636 1 144 445.082)" stroke="white" stroke-width="4"/>
<line y1="-2" x2="2657" y2="-2" transform="matrix(1 -0.000407332 0.000836636 1 144 544.082)" stroke="white" stroke-width="4"/>
<path d="M259.89 364.844C251.633 366.874 244.81 370.299 239.419 375.122C234.027 379.943 230.742 385.211 229.563 390.921C228.383 396.63 229.352 402.277 232.469 407.86C235.586 413.444 241.44 417.948 250.032 421.376C252.054 421.376 253.317 422.01 253.824 423.278C254.328 424.547 253.569 425.181 251.551 425.181C243.294 423.913 236.049 421.311 229.815 417.379C218.19 410.144 211.788 400.819 210.609 389.398C209.935 383.688 210.651 378.168 212.757 372.838C214.863 367.508 217.769 362.622 221.476 358.181C226.024 353.487 231.416 349.425 237.65 346C237.986 345.746 238.955 345.176 240.556 344.288C242.156 343.399 243.715 342.575 245.231 341.813C246.748 341.052 249.021 339.846 252.054 338.196L242.704 304.315C234.448 309.518 226.277 315.259 218.19 321.54C210.103 327.822 202.774 334.454 196.204 341.432C189.633 348.412 184.368 355.803 180.409 363.607C176.45 371.411 174.47 379.626 174.47 388.257C174.47 396.251 176.702 403.769 181.167 410.812C185.632 417.855 191.571 423.977 198.984 429.178C206.397 434.381 214.947 438.474 224.635 441.457C234.322 444.438 244.136 445.93 254.076 445.93C254.414 445.93 255.971 445.802 258.752 445.548C261.533 445.295 264.48 444.978 267.595 444.596C270.714 444.217 273.578 443.804 276.19 443.359C278.799 442.915 280.107 442.439 280.107 441.933L278.589 436.602C272.019 411.605 265.784 387.685 259.89 364.844ZM268.734 364.083L289.457 439.648C301.42 436.221 309.505 430.352 313.718 422.041C317.931 413.73 318.897 405.292 316.623 396.726C314.349 388.161 309.001 380.577 300.575 373.979C292.152 367.381 281.539 364.083 268.734 364.083ZM242.198 262.251C247.42 260.219 252.265 257.175 256.73 253.114C261.195 249.054 265.322 244.706 269.113 240.075C272.902 235.444 276.19 230.717 278.968 225.894C281.749 221.073 283.982 216.696 285.665 212.762C287.518 208.575 288.781 203.879 289.457 198.676C290.13 193.474 289.036 189.097 286.173 185.542C284.151 182.371 281.497 180.531 278.212 180.022C274.924 179.515 271.639 179.705 268.354 180.594C265.07 181.483 261.954 182.909 259.004 184.877C256.057 186.844 253.907 188.588 252.561 190.111C248.852 195.059 245.609 200.579 242.83 206.67C240.05 212.762 238.155 219.074 237.144 225.61C236.133 232.144 236.007 238.425 236.765 244.454C237.523 250.481 239.334 256.414 242.198 262.251ZM234.617 268.15C231.753 259.777 229.226 251.559 227.035 243.501C224.845 235.444 223.75 227.164 223.75 218.661C223.75 212.445 224.34 205.623 225.519 198.201C226.698 190.778 228.847 183.544 231.963 176.501C235.08 169.458 239.376 163.145 244.852 157.563C250.329 151.978 257.613 147.919 266.712 145.38C267.554 145.128 268.396 145 269.238 145C270.418 145 271.808 145.507 273.409 146.523C275.01 147.537 276.694 149.029 278.464 150.996C280.231 152.963 281.791 154.993 283.14 157.088C284.485 159.18 285.496 160.609 286.173 161.37C290.72 167.841 294.047 174.726 296.155 182.021C298.26 189.318 299.481 196.582 299.819 203.814C300.492 214.729 299.692 225.514 297.418 236.174C295.144 246.832 290.551 257.238 283.644 267.389C281.287 270.435 278.885 273.512 276.442 276.62C273.999 279.73 271.094 282.743 267.723 285.661C267.05 286.17 265.829 287.09 264.059 288.421C262.289 289.754 260.477 291.119 258.624 292.514C256.771 293.91 255.129 295.212 253.697 296.415C252.265 297.621 251.551 298.351 251.551 298.606L261.909 336.673C261.976 336.923 267.092 336.673 267.092 336.673C276.978 336.767 287.445 337.973 296.534 340.67C305.295 343.716 312.834 347.903 319.152 353.233C325.47 358.563 330.522 364.558 334.314 371.219C338.106 377.882 340 384.639 340 391.492C340 398.343 338.651 405.323 335.956 412.428C329.048 425.88 318.014 435.841 302.852 442.312C301.165 443.074 298.764 443.931 295.648 444.882C292.532 445.833 291.31 447.325 291.983 449.355C296.027 463.181 298.764 472.693 300.199 477.905C301.631 483.118 302.683 489.844 303.356 498.082C304.029 505.961 302.217 513.047 297.922 519.389C293.626 525.754 287.856 530.918 280.611 534.906C273.368 538.917 266.753 541.247 260.774 541.968C254.791 542.664 250.705 543 248.518 543C240.935 543 233.522 541.92 226.277 539.758C217.348 537.236 209.851 533.368 203.785 528.156C197.72 522.944 194.688 516.602 194.688 509.132C194.688 504.424 196.499 499.596 200.121 494.648C203.743 489.699 208.503 486.144 214.399 484.007C220.97 481.46 226.909 480.764 232.216 481.893C237.523 483.046 241.903 485.208 245.357 488.378C248.811 491.549 251.212 495.392 252.561 499.884C253.907 504.4 253.824 508.603 252.306 512.543C250.791 516.482 247.717 519.821 243.083 522.535C238.45 525.274 232.005 526.499 223.75 526.258C227.12 530.822 231.837 533.705 237.902 534.906C243.968 536.131 250.201 536.203 256.602 535.194C263.006 534.185 269.027 532.311 274.672 529.573C280.317 526.859 284.741 523.904 287.939 520.734C289.961 518.452 291.479 515.473 292.49 511.798C293.501 508.099 294.091 504.28 294.257 500.268C294.426 496.281 294.257 493.158 293.753 490.948C293.246 488.715 292.404 485.256 291.224 480.572C286.173 465.223 282.971 455.567 281.622 451.627C280.949 450.371 279.137 449.958 276.19 450.402C273.24 450.847 270.756 451.26 268.734 451.627C254.245 453.044 242.114 452.396 232.343 449.737C217.179 446.691 203.828 441.265 192.287 433.461C180.746 425.659 171.48 416.204 164.488 405.1C157.496 393.998 154 385.559 154 379.785C154 374.013 154 370.364 154 368.841C154 358.563 156.359 348.919 161.076 339.909C170.005 325.823 180.578 312.881 192.792 301.08C205.007 289.279 218.949 278.301 234.617 268.15Z" fill="white"/>
<ellipse cx="506.461" cy="494.111" rx="50.1869" ry="40.7071" transform="rotate(-6.48096 506.461 494.111)" fill="#F8FF7A"/>
<line x1="553.979" y1="333" x2="553.979" y2="490" stroke="#F8FF7A" stroke-width="5"/>
</svg>
