<svg width="2000" height="2000" viewBox="0 0 2000 2000" fill="none" xmlns="http://www.w3.org/2000/svg">
<g clip-path="url(#clip0_66_163)">
<rect width="2000" height="2000" rx="1000" fill="#F8FF7A"/>
<g filter="url(#filter0_d_66_163)">
<path fill-rule="evenodd" clip-rule="evenodd" d="M1661.07 1707.65C1634.8 1655.12 1541.16 1616.3 1484.06 1601.45L1004.43 1476.98H1003.29L509.954 1601.45C460.849 1614.01 372.918 1643.7 345.51 1685.96C337.516 1697.38 331.806 1709.94 327.238 1722.5L321.528 2004.57H584.726L607.022 1957.75V2004.57H955.325H1003.29H1417.82V1957.75L1440.12 2004.57H1666.78L1661.07 1707.65Z" fill="black"/>
<path d="M1006.71 1720.22C868.106 1723.47 692.67 1554.63 692.67 1554.63C939.337 1454.14 1202.75 1512.76 1303.63 1554.63C1303.63 1554.63 1139.44 1717.1 1006.71 1720.22Z" fill="#FFBE98"/>
<path fill-rule="evenodd" clip-rule="evenodd" d="M717.506 1545.06C735.856 1561.86 877.374 1687.39 1006.71 1684.35C1130.1 1681.44 1260.93 1561.97 1278.74 1545.17C1287.87 1548.36 1296.19 1551.54 1303.63 1554.63C1303.63 1554.63 1139.44 1717.1 1006.71 1720.22C868.105 1723.47 692.669 1554.63 692.669 1554.63C700.931 1551.26 709.213 1548.08 717.506 1545.06Z" fill="black"/>
<path d="M1096.93 1615.15H907.361C870.818 1615.15 842.269 1585.46 842.269 1550.06V1242.87C842.269 1181.2 892.515 1132.1 953.04 1132.1H1051.25C1112.92 1132.1 1162.02 1182.35 1162.02 1242.87V1550.06C1162.02 1585.46 1132.33 1615.15 1096.93 1615.15Z" fill="#FFBE98"/>
<path d="M838.492 1314.81C844.202 1337.65 1043.58 1438.91 1166.59 1314.81H838.492Z" fill="#FFAC7B"/>
<path d="M665.952 1072.46C665.952 1072.46 590.581 1074.74 558.606 959.404C526.631 842.923 590.581 845.207 627.124 876.04L665.952 1072.46Z" fill="#F3AF91"/>
<path d="M1319.16 1072.46C1319.16 1072.46 1394.53 1074.74 1426.51 959.404C1458.48 842.923 1394.53 845.207 1357.99 876.04L1319.16 1072.46Z" fill="#F3AF91"/>
<path d="M1365.29 838.653C1365.29 1097.88 1251.1 1357.11 1009 1361.68C755.479 1366.25 629.861 1096.74 629.861 838.653C629.861 579.425 643.565 375.012 997.577 378.437C1371 383.005 1365.29 579.425 1365.29 838.653Z" fill="#FFBE98"/>
<ellipse cx="1155.17" cy="789.506" rx="45.679" ry="68.5185" fill="#36180E"/>
<ellipse cx="835.417" cy="789.506" rx="45.679" ry="68.5185" fill="#36180E"/>
<path d="M1089.51 692.08C1109.89 675.235 1165.47 647.213 1224.74 669.891" stroke="#5F220D" stroke-width="22.8395" stroke-linecap="round"/>
<path d="M1063.65 1200.62C1041.48 1215.02 983.059 1236.5 926.774 1207.19" stroke="#B64741" stroke-width="22.8395" stroke-linecap="round"/>
<path d="M902.128 692.08C881.747 675.235 826.168 647.213 766.899 669.891" stroke="#5F220D" stroke-width="22.8395" stroke-linecap="round"/>
<path d="M984.606 812.346C975.089 877.058 957.198 1008.77 961.766 1017.9C967.476 1029.32 1024.58 1029.32 1041.7 1017.9" stroke="#F3AF91" stroke-width="22.8395" stroke-linecap="round"/>
<path d="M993.009 218.518C1424.68 81.4804 1389.97 451.513 1401.84 697.006C1406.65 796.597 1365.07 926.999 1350.45 947.098C1356.16 915.123 1369.86 818.055 1353.87 677.592C1320.76 379.536 1143.75 557.685 995.293 555.401C842.269 553.117 656.127 382.962 634.429 673.024C619.584 871.728 642.423 957.376 642.423 957.376C618.442 897.993 597.886 823.765 585.324 743.827C584.182 732.407 584.182 719.846 584.182 708.426V708.425C584.182 437.777 561.343 355.556 993.009 218.518Z" fill="#5F220D"/>
</g>
</g>
<rect x="18" y="18" width="1964" height="1964" rx="982" stroke="white" stroke-width="36"/>
<defs>
<filter id="filter0_d_66_163" x="193.75" y="150" width="1614.51" height="1904.57" filterUnits="userSpaceOnUse" color-interpolation-filters="sRGB">
<feFlood flood-opacity="0" result="BackgroundImageFix"/>
<feColorMatrix in="SourceAlpha" type="matrix" values="0 0 0 0 0 0 0 0 0 0 0 0 0 0 0 0 0 0 127 0" result="hardAlpha"/>
<feOffset dy="25"/>
<feGaussianBlur stdDeviation="12.5"/>
<feComposite in2="hardAlpha" operator="out"/>
<feColorMatrix type="matrix" values="0 0 0 0 0 0 0 0 0 0 0 0 0 0 0 0 0 0 0.25 0"/>
<feBlend mode="normal" in2="BackgroundImageFix" result="effect1_dropShadow_66_163"/>
<feBlend mode="normal" in="SourceGraphic" in2="effect1_dropShadow_66_163" result="shape"/>
</filter>
<clipPath id="clip0_66_163">
<rect width="2000" height="2000" rx="1000" fill="white"/>
</clipPath>
</defs>
</svg>
