<svg width="2000" height="2000" viewBox="0 0 2000 2000" fill="none" xmlns="http://www.w3.org/2000/svg">
<g clip-path="url(#clip0_66_133)">
<rect width="2000" height="2000" rx="1000" fill="#00EFFE"/>
<g filter="url(#filter0_d_66_133)">
<path fill-rule="evenodd" clip-rule="evenodd" d="M1661.06 1707.65C1634.8 1655.12 1541.16 1616.3 1484.06 1601.45L1004.43 1476.98H1003.29L509.952 1601.45C460.847 1614.01 372.916 1643.7 345.508 1685.96C337.514 1697.38 331.804 1709.94 327.236 1722.5L321.526 2004.57H584.724L607.02 1957.75V2004.57H955.323H1003.29H1417.82V1957.75L1440.12 2004.57H1666.77L1661.06 1707.65Z" fill="black"/>
<path d="M1006.71 1720.22L692.67 1554.63C939.337 1454.14 1202.75 1512.76 1303.63 1554.63L1006.71 1720.22Z" fill="#FFBE98"/>
<path d="M1096.93 1615.15H907.361C870.817 1615.15 842.269 1585.46 842.269 1550.06V1242.87C842.269 1181.2 892.515 1132.1 953.04 1132.1H1051.25C1112.92 1132.1 1162.02 1182.35 1162.02 1242.87V1550.06C1162.02 1585.46 1132.33 1615.15 1096.93 1615.15Z" fill="#FFBE98"/>
<path d="M841.127 1320.52C846.837 1343.36 1043.58 1450.33 1166.59 1326.23L841.127 1320.52Z" fill="#FFAC7B"/>
<path d="M665.951 1072.46C665.951 1072.46 590.58 1074.74 558.605 959.404C526.63 842.923 590.58 845.207 627.123 876.04L665.951 1072.46Z" fill="#F3AF91"/>
<path d="M1319.16 1072.46C1319.16 1072.46 1394.53 1074.74 1426.51 959.404C1458.48 842.923 1394.53 845.207 1357.99 876.04L1319.16 1072.46Z" fill="#F3AF91"/>
<path d="M1365.29 838.653C1365.29 1097.88 1251.1 1357.11 1009 1361.68C755.479 1366.25 629.861 1096.74 629.861 838.653C629.861 579.425 643.565 375.012 997.577 378.437C1371 383.005 1365.29 579.425 1365.29 838.653Z" fill="#FFBE98"/>
<path d="M1337.93 973.892C1334.48 977.069 1331.79 981.033 1330.46 985.531C1319.63 1022.28 1266.18 1195.45 1207.38 1246.09C1196.08 1255.81 1182.76 1245.11 1182.52 1230.2C1182.18 1208.16 1179.53 1178.87 1169.16 1161.36C1150.89 1130.53 1069.81 1084.85 1041.26 1096.27C1041.03 1096.36 1040.81 1096.45 1040.59 1096.54C1022.49 1103.76 970.752 1104.13 952.807 1096.53C952.599 1096.45 952.391 1096.36 952.183 1096.27C923.634 1083.71 842.554 1129.38 824.282 1161.36C813.907 1178.87 811.264 1208.16 810.918 1230.2C810.684 1245.11 797.359 1255.81 786.066 1246.09C727.155 1195.36 673.63 1021.68 662.921 985.342C661.634 980.977 659.058 977.081 655.751 973.954C625.509 945.367 646.825 940.262 681.535 1208.18C715.795 1475.4 969.313 1473.12 997.862 1471.98C1025.27 1473.12 1279.93 1475.4 1314.19 1208.18C1346.64 940.965 1367.83 946.367 1337.93 973.892ZM997.862 1291.98C961.821 1292.23 898.39 1274.95 866.532 1265.52C855.414 1262.23 848.837 1250.99 851.111 1239.62L860.637 1191.99C863.217 1179.09 876.156 1171.16 889.234 1172.54C941.576 1178.09 988.594 1158.68 994.869 1155.96C995.308 1155.77 995.568 1155.41 995.589 1154.93V1154.93C995.637 1153.84 996.749 1154.15 997.36 1155.05C997.452 1155.18 997.557 1155.32 997.677 1155.45C997.795 1155.59 997.929 1155.68 998.093 1155.75C1001.78 1157.32 1049.06 1176.95 1102.33 1172.39C1116.09 1171.21 1129.4 1180.39 1131.23 1194.07C1134.85 1221.08 1140.95 1259.57 1146.32 1259.57C1145.18 1259.57 1065.22 1291.49 997.862 1291.98Z" fill="#5F220D"/>
<path d="M993.008 218.518C1544.58 218.518 1389.97 451.513 1401.84 697.006C1406.65 796.597 1368.49 937.277 1353.87 957.376C1359.58 925.401 1369.86 818.055 1353.87 677.592C1320.76 379.537 1143.75 557.685 995.292 555.401C842.267 553.117 656.126 382.963 634.428 673.024C619.582 871.728 642.422 957.376 642.422 957.376C618.44 897.993 597.885 823.765 585.323 743.827C584.181 732.407 584.181 719.846 584.181 708.426V708.426C584.181 437.777 441.434 218.518 993.008 218.518Z" fill="#5F220D"/>
<ellipse cx="1155.17" cy="789.506" rx="45.679" ry="68.5185" fill="#36180E"/>
<ellipse cx="835.416" cy="789.506" rx="45.679" ry="68.5185" fill="#36180E"/>
<path d="M1089.51 692.08C1109.89 675.235 1165.47 647.213 1224.74 669.891" stroke="#5F220D" stroke-width="22.8395" stroke-linecap="round"/>
<path d="M1063.65 1200.62C1041.48 1215.02 983.059 1236.5 926.774 1207.19" stroke="#B64741" stroke-width="22.8395" stroke-linecap="round"/>
<path d="M902.127 692.08C881.746 675.235 826.167 647.213 766.898 669.891" stroke="#5F220D" stroke-width="22.8395" stroke-linecap="round"/>
<path d="M984.606 812.346C975.089 877.058 957.198 1008.77 961.766 1017.9C967.476 1029.32 1024.58 1029.32 1041.7 1017.9" stroke="#F3AF91" stroke-width="22.8395" stroke-linecap="round"/>
<path d="M692.67 1554.63L652.701 1566.05L1006.71 1788.73L1349.31 1566.05L1303.63 1554.63L1006.71 1720.22L692.67 1554.63Z" fill="black"/>
</g>
</g>
<rect x="18" y="18" width="1964" height="1964" rx="982" stroke="white" stroke-width="36"/>
<defs>
<filter id="filter0_d_66_133" x="193.75" y="150" width="1614.51" height="1904.57" filterUnits="userSpaceOnUse" color-interpolation-filters="sRGB">
<feFlood flood-opacity="0" result="BackgroundImageFix"/>
<feColorMatrix in="SourceAlpha" type="matrix" values="0 0 0 0 0 0 0 0 0 0 0 0 0 0 0 0 0 0 127 0" result="hardAlpha"/>
<feOffset dy="25"/>
<feGaussianBlur stdDeviation="12.5"/>
<feComposite in2="hardAlpha" operator="out"/>
<feColorMatrix type="matrix" values="0 0 0 0 0 0 0 0 0 0 0 0 0 0 0 0 0 0 0.25 0"/>
<feBlend mode="normal" in2="BackgroundImageFix" result="effect1_dropShadow_66_133"/>
<feBlend mode="normal" in="SourceGraphic" in2="effect1_dropShadow_66_133" result="shape"/>
</filter>
<clipPath id="clip0_66_133">
<rect width="2000" height="2000" rx="1000" fill="white"/>
</clipPath>
</defs>
</svg>
