<svg width="1509" height="683" viewBox="0 0 1509 683" fill="none" xmlns="http://www.w3.org/2000/svg">
<rect width="1509" height="683" fill="#121212"/>
<path d="M104.327 110.711H100.283C100.21 110.188 100.059 109.723 99.831 109.317C99.6032 108.904 99.3108 108.554 98.9538 108.264C98.5968 107.975 98.1844 107.753 97.7166 107.599C97.255 107.446 96.7533 107.369 96.2116 107.369C95.233 107.369 94.3804 107.612 93.6541 108.098C92.9278 108.578 92.3646 109.28 91.9645 110.203C91.5644 111.12 91.3643 112.234 91.3643 113.545C91.3643 114.893 91.5644 116.026 91.9645 116.943C92.3707 117.86 92.937 118.553 93.6634 119.021C94.3897 119.488 95.2299 119.722 96.1839 119.722C96.7195 119.722 97.215 119.652 97.6705 119.51C98.1321 119.368 98.5414 119.162 98.8984 118.891C99.2554 118.614 99.5509 118.279 99.7848 117.885C100.025 117.491 100.191 117.042 100.283 116.537L104.327 116.555C104.223 117.423 103.961 118.26 103.543 119.067C103.13 119.867 102.573 120.584 101.871 121.218C101.176 121.846 100.345 122.344 99.3786 122.714C98.4183 123.077 97.3319 123.259 96.1193 123.259C94.4328 123.259 92.9247 122.877 91.5952 122.114C90.2718 121.35 89.2254 120.246 88.456 118.799C87.6927 117.353 87.3111 115.601 87.3111 113.545C87.3111 111.483 87.6989 109.729 88.4744 108.283C89.25 106.836 90.3026 105.734 91.6321 104.977C92.9616 104.214 94.4574 103.832 96.1193 103.832C97.215 103.832 98.2306 103.986 99.1662 104.294C100.108 104.602 100.942 105.051 101.668 105.642C102.395 106.227 102.986 106.944 103.441 107.793C103.903 108.643 104.198 109.615 104.327 110.711ZM113.528 123.277C112.094 123.277 110.854 122.972 109.807 122.363C108.767 121.747 107.964 120.892 107.397 119.796C106.831 118.694 106.548 117.417 106.548 115.964C106.548 114.5 106.831 113.219 107.397 112.124C107.964 111.022 108.767 110.166 109.807 109.557C110.854 108.941 112.094 108.634 113.528 108.634C114.962 108.634 116.199 108.941 117.24 109.557C118.286 110.166 119.092 111.022 119.659 112.124C120.225 113.219 120.508 114.5 120.508 115.964C120.508 117.417 120.225 118.694 119.659 119.796C119.092 120.892 118.286 121.747 117.24 122.363C116.199 122.972 114.962 123.277 113.528 123.277ZM113.547 120.23C114.199 120.23 114.744 120.045 115.181 119.676C115.618 119.301 115.947 118.79 116.169 118.143C116.396 117.497 116.51 116.762 116.51 115.937C116.51 115.112 116.396 114.376 116.169 113.73C115.947 113.084 115.618 112.573 115.181 112.197C114.744 111.822 114.199 111.634 113.547 111.634C112.888 111.634 112.334 111.822 111.885 112.197C111.441 112.573 111.106 113.084 110.878 113.73C110.657 114.376 110.546 115.112 110.546 115.937C110.546 116.762 110.657 117.497 110.878 118.143C111.106 118.79 111.441 119.301 111.885 119.676C112.334 120.045 112.888 120.23 113.547 120.23ZM128.292 123.231C127.214 123.231 126.239 122.954 125.365 122.4C124.497 121.84 123.807 121.018 123.297 119.935C122.792 118.845 122.539 117.509 122.539 115.928C122.539 114.303 122.801 112.951 123.324 111.874C123.847 110.791 124.543 109.982 125.411 109.446C126.285 108.904 127.242 108.634 128.282 108.634C129.076 108.634 129.738 108.769 130.267 109.04C130.803 109.304 131.234 109.637 131.56 110.037C131.892 110.431 132.145 110.819 132.317 111.2H132.437V104.091H136.361V123H132.483V120.729H132.317C132.132 121.123 131.871 121.513 131.532 121.901C131.2 122.283 130.766 122.6 130.23 122.852C129.701 123.105 129.055 123.231 128.292 123.231ZM129.538 120.101C130.172 120.101 130.708 119.929 131.145 119.584C131.588 119.233 131.926 118.744 132.16 118.116C132.4 117.488 132.52 116.752 132.52 115.909C132.52 115.066 132.403 114.333 132.169 113.712C131.935 113.09 131.597 112.61 131.154 112.271C130.711 111.933 130.172 111.763 129.538 111.763C128.892 111.763 128.347 111.939 127.904 112.29C127.461 112.641 127.125 113.127 126.897 113.749C126.67 114.37 126.556 115.09 126.556 115.909C126.556 116.734 126.67 117.463 126.897 118.097C127.131 118.725 127.467 119.218 127.904 119.575C128.347 119.925 128.892 120.101 129.538 120.101ZM139.595 123V108.818H143.528V123H139.595ZM141.571 106.99C140.986 106.99 140.484 106.796 140.066 106.408C139.653 106.014 139.447 105.544 139.447 104.996C139.447 104.454 139.653 103.989 140.066 103.602C140.484 103.208 140.986 103.011 141.571 103.011C142.156 103.011 142.654 103.208 143.067 103.602C143.485 103.989 143.694 104.454 143.694 104.996C143.694 105.544 143.485 106.014 143.067 106.408C142.654 106.796 142.156 106.99 141.571 106.99ZM154.305 108.818V111.773H145.553V108.818H154.305ZM147.556 123V107.793C147.556 106.765 147.756 105.913 148.156 105.236C148.562 104.559 149.116 104.051 149.818 103.712C150.52 103.374 151.317 103.205 152.21 103.205C152.813 103.205 153.364 103.251 153.862 103.343C154.367 103.435 154.742 103.518 154.989 103.592L154.287 106.547C154.133 106.498 153.942 106.451 153.714 106.408C153.493 106.365 153.265 106.344 153.031 106.344C152.453 106.344 152.049 106.479 151.822 106.75C151.594 107.015 151.48 107.387 151.48 107.867V123H147.556ZM156.708 123V108.818H160.642V123H156.708ZM158.684 106.99C158.099 106.99 157.598 106.796 157.179 106.408C156.767 106.014 156.561 105.544 156.561 104.996C156.561 104.454 156.767 103.989 157.179 103.602C157.598 103.208 158.099 103.011 158.684 103.011C159.269 103.011 159.767 103.208 160.18 103.602C160.598 103.989 160.808 104.454 160.808 104.996C160.808 105.544 160.598 106.014 160.18 106.408C159.767 106.796 159.269 106.99 158.684 106.99ZM170.2 123.277C168.747 123.277 167.498 122.969 166.451 122.354C165.411 121.732 164.611 120.87 164.051 119.768C163.497 118.667 163.22 117.399 163.22 115.964C163.22 114.512 163.5 113.238 164.06 112.142C164.626 111.04 165.43 110.182 166.47 109.566C167.51 108.944 168.747 108.634 170.181 108.634C171.419 108.634 172.502 108.858 173.431 109.308C174.361 109.757 175.096 110.388 175.638 111.2C176.18 112.013 176.478 112.967 176.534 114.062H172.822C172.717 113.355 172.44 112.785 171.991 112.354C171.548 111.917 170.966 111.699 170.246 111.699C169.637 111.699 169.104 111.865 168.649 112.197C168.199 112.524 167.849 113.001 167.596 113.629C167.344 114.256 167.218 115.017 167.218 115.909C167.218 116.814 167.341 117.583 167.587 118.217C167.839 118.851 168.193 119.335 168.649 119.667C169.104 119.999 169.637 120.165 170.246 120.165C170.695 120.165 171.099 120.073 171.456 119.888C171.819 119.704 172.117 119.436 172.351 119.085C172.591 118.728 172.748 118.3 172.822 117.802H176.534C176.472 118.885 176.177 119.839 175.647 120.664C175.124 121.483 174.401 122.123 173.478 122.585C172.554 123.046 171.462 123.277 170.2 123.277ZM183.096 123.268C182.191 123.268 181.385 123.111 180.677 122.797C179.969 122.477 179.409 122.006 178.997 121.384C178.59 120.756 178.387 119.975 178.387 119.039C178.387 118.251 178.532 117.589 178.821 117.054C179.11 116.518 179.504 116.088 180.003 115.761C180.502 115.435 181.068 115.189 181.702 115.023C182.342 114.857 183.013 114.74 183.715 114.672C184.539 114.586 185.204 114.506 185.709 114.432C186.214 114.352 186.58 114.235 186.808 114.081C187.035 113.927 187.149 113.699 187.149 113.398V113.342C187.149 112.758 186.965 112.305 186.595 111.985C186.232 111.665 185.715 111.505 185.044 111.505C184.336 111.505 183.773 111.662 183.355 111.976C182.936 112.284 182.659 112.671 182.524 113.139L178.886 112.844C179.07 111.982 179.434 111.237 179.975 110.609C180.517 109.975 181.216 109.489 182.071 109.151C182.933 108.806 183.93 108.634 185.063 108.634C185.851 108.634 186.605 108.726 187.325 108.911C188.051 109.095 188.694 109.381 189.254 109.769C189.821 110.157 190.267 110.656 190.593 111.265C190.919 111.868 191.083 112.591 191.083 113.435V123H187.352V121.033H187.242C187.014 121.477 186.709 121.867 186.328 122.206C185.946 122.538 185.487 122.8 184.952 122.991C184.416 123.175 183.798 123.268 183.096 123.268ZM184.222 120.553C184.801 120.553 185.312 120.439 185.755 120.212C186.198 119.978 186.546 119.664 186.798 119.27C187.051 118.876 187.177 118.43 187.177 117.931V116.426C187.054 116.506 186.885 116.58 186.669 116.648C186.46 116.709 186.223 116.768 185.958 116.823C185.694 116.872 185.429 116.919 185.164 116.962C184.9 116.999 184.66 117.032 184.444 117.063C183.982 117.131 183.579 117.239 183.235 117.386C182.89 117.534 182.622 117.734 182.431 117.987C182.24 118.233 182.145 118.54 182.145 118.91C182.145 119.445 182.339 119.855 182.727 120.138C183.121 120.415 183.619 120.553 184.222 120.553ZM200.542 123.277C199.089 123.277 197.84 122.969 196.793 122.354C195.753 121.732 194.953 120.87 194.393 119.768C193.839 118.667 193.562 117.399 193.562 115.964C193.562 114.512 193.842 113.238 194.402 112.142C194.968 111.04 195.771 110.182 196.812 109.566C197.852 108.944 199.089 108.634 200.523 108.634C201.76 108.634 202.844 108.858 203.773 109.308C204.703 109.757 205.438 110.388 205.98 111.2C206.522 112.013 206.82 112.967 206.876 114.062H203.164C203.059 113.355 202.782 112.785 202.333 112.354C201.89 111.917 201.308 111.699 200.588 111.699C199.979 111.699 199.446 111.865 198.991 112.197C198.541 112.524 198.19 113.001 197.938 113.629C197.686 114.256 197.559 115.017 197.559 115.909C197.559 116.814 197.683 117.583 197.929 118.217C198.181 118.851 198.535 119.335 198.991 119.667C199.446 119.999 199.979 120.165 200.588 120.165C201.037 120.165 201.44 120.073 201.797 119.888C202.161 119.704 202.459 119.436 202.693 119.085C202.933 118.728 203.09 118.3 203.164 117.802H206.876C206.814 118.885 206.519 119.839 205.989 120.664C205.466 121.483 204.743 122.123 203.819 122.585C202.896 123.046 201.804 123.277 200.542 123.277ZM209.394 123V108.818H213.327V123H209.394ZM211.37 106.99C210.785 106.99 210.283 106.796 209.865 106.408C209.452 106.014 209.246 105.544 209.246 104.996C209.246 104.454 209.452 103.989 209.865 103.602C210.283 103.208 210.785 103.011 211.37 103.011C211.954 103.011 212.453 103.208 212.865 103.602C213.284 103.989 213.493 104.454 213.493 104.996C213.493 105.544 213.284 106.014 212.865 106.408C212.453 106.796 211.954 106.99 211.37 106.99ZM222.885 123.277C221.451 123.277 220.211 122.972 219.165 122.363C218.124 121.747 217.321 120.892 216.755 119.796C216.189 118.694 215.905 117.417 215.905 115.964C215.905 114.5 216.189 113.219 216.755 112.124C217.321 111.022 218.124 110.166 219.165 109.557C220.211 108.941 221.451 108.634 222.885 108.634C224.32 108.634 225.557 108.941 226.597 109.557C227.644 110.166 228.45 111.022 229.016 112.124C229.582 113.219 229.866 114.5 229.866 115.964C229.866 117.417 229.582 118.694 229.016 119.796C228.45 120.892 227.644 121.747 226.597 122.363C225.557 122.972 224.32 123.277 222.885 123.277ZM222.904 120.23C223.556 120.23 224.101 120.045 224.538 119.676C224.975 119.301 225.305 118.79 225.526 118.143C225.754 117.497 225.868 116.762 225.868 115.937C225.868 115.112 225.754 114.376 225.526 113.73C225.305 113.084 224.975 112.573 224.538 112.197C224.101 111.822 223.556 111.634 222.904 111.634C222.245 111.634 221.691 111.822 221.242 112.197C220.799 112.573 220.463 113.084 220.236 113.73C220.014 114.376 219.903 115.112 219.903 115.937C219.903 116.762 220.014 117.497 220.236 118.143C220.463 118.79 220.799 119.301 221.242 119.676C221.691 120.045 222.245 120.23 222.904 120.23ZM221.473 106.99L223.43 102.789H227.068L224.252 106.99H221.473ZM236.356 114.801V123H232.423V108.818H236.172V111.32H236.338C236.652 110.496 237.178 109.843 237.917 109.363C238.655 108.877 239.551 108.634 240.604 108.634C241.588 108.634 242.447 108.849 243.18 109.28C243.912 109.711 244.481 110.326 244.888 111.126C245.294 111.92 245.497 112.868 245.497 113.97V123H241.564V114.672C241.57 113.804 241.348 113.127 240.899 112.641C240.45 112.148 239.831 111.902 239.043 111.902C238.514 111.902 238.046 112.016 237.64 112.244C237.24 112.471 236.926 112.804 236.698 113.241C236.476 113.672 236.363 114.192 236.356 114.801ZM259.84 123.231C258.763 123.231 257.788 122.954 256.914 122.4C256.046 121.84 255.356 121.018 254.845 119.935C254.341 118.845 254.088 117.509 254.088 115.928C254.088 114.303 254.35 112.951 254.873 111.874C255.396 110.791 256.092 109.982 256.96 109.446C257.834 108.904 258.791 108.634 259.831 108.634C260.625 108.634 261.287 108.769 261.816 109.04C262.352 109.304 262.783 109.637 263.109 110.037C263.441 110.431 263.694 110.819 263.866 111.2H263.986V104.091H267.91V123H264.032V120.729H263.866C263.681 121.123 263.42 121.513 263.081 121.901C262.749 122.283 262.315 122.6 261.779 122.852C261.25 123.105 260.604 123.231 259.84 123.231ZM261.087 120.101C261.721 120.101 262.256 119.929 262.693 119.584C263.137 119.233 263.475 118.744 263.709 118.116C263.949 117.488 264.069 116.752 264.069 115.909C264.069 115.066 263.952 114.333 263.718 113.712C263.484 113.09 263.146 112.61 262.703 112.271C262.259 111.933 261.721 111.763 261.087 111.763C260.441 111.763 259.896 111.939 259.453 112.29C259.009 112.641 258.674 113.127 258.446 113.749C258.218 114.37 258.105 115.09 258.105 115.909C258.105 116.734 258.218 117.463 258.446 118.097C258.68 118.725 259.016 119.218 259.453 119.575C259.896 119.925 260.441 120.101 261.087 120.101ZM277.607 123.277C276.148 123.277 274.892 122.982 273.84 122.391C272.793 121.794 271.987 120.95 271.421 119.861C270.855 118.765 270.571 117.469 270.571 115.974C270.571 114.515 270.855 113.235 271.421 112.133C271.987 111.031 272.784 110.172 273.812 109.557C274.846 108.941 276.059 108.634 277.45 108.634C278.386 108.634 279.257 108.784 280.063 109.086C280.875 109.381 281.583 109.828 282.186 110.425C282.796 111.022 283.27 111.773 283.608 112.678C283.947 113.576 284.116 114.629 284.116 115.835V116.915H272.141V114.478H280.414C280.414 113.912 280.291 113.41 280.044 112.973C279.798 112.536 279.457 112.194 279.02 111.948C278.589 111.696 278.087 111.57 277.515 111.57C276.917 111.57 276.388 111.708 275.926 111.985C275.471 112.256 275.114 112.622 274.855 113.084C274.597 113.539 274.465 114.047 274.458 114.607V116.925C274.458 117.626 274.588 118.233 274.846 118.744C275.111 119.254 275.483 119.648 275.963 119.925C276.444 120.202 277.013 120.341 277.672 120.341C278.109 120.341 278.509 120.279 278.872 120.156C279.235 120.033 279.546 119.848 279.804 119.602C280.063 119.356 280.26 119.054 280.395 118.697L284.033 118.938C283.848 119.812 283.47 120.575 282.897 121.227C282.331 121.874 281.599 122.378 280.7 122.741C279.807 123.098 278.776 123.277 277.607 123.277ZM296.634 104.091V123H292.7V104.091H296.634ZM303.828 123.268C302.924 123.268 302.117 123.111 301.409 122.797C300.702 122.477 300.141 122.006 299.729 121.384C299.323 120.756 299.12 119.975 299.12 119.039C299.12 118.251 299.264 117.589 299.554 117.054C299.843 116.518 300.237 116.088 300.735 115.761C301.234 115.435 301.8 115.189 302.434 115.023C303.074 114.857 303.745 114.74 304.447 114.672C305.272 114.586 305.937 114.506 306.441 114.432C306.946 114.352 307.312 114.235 307.54 114.081C307.768 113.927 307.882 113.699 307.882 113.398V113.342C307.882 112.758 307.697 112.305 307.328 111.985C306.965 111.665 306.448 111.505 305.777 111.505C305.069 111.505 304.506 111.662 304.087 111.976C303.668 112.284 303.391 112.671 303.256 113.139L299.618 112.844C299.803 111.982 300.166 111.237 300.708 110.609C301.249 109.975 301.948 109.489 302.804 109.151C303.665 108.806 304.663 108.634 305.795 108.634C306.583 108.634 307.337 108.726 308.057 108.911C308.783 109.095 309.427 109.381 309.987 109.769C310.553 110.157 310.999 110.656 311.326 111.265C311.652 111.868 311.815 112.591 311.815 113.435V123H308.085V121.033H307.974C307.746 121.477 307.442 121.867 307.06 122.206C306.678 122.538 306.22 122.8 305.684 122.991C305.149 123.175 304.53 123.268 303.828 123.268ZM304.955 120.553C305.533 120.553 306.044 120.439 306.488 120.212C306.931 119.978 307.279 119.664 307.531 119.27C307.783 118.876 307.909 118.43 307.909 117.931V116.426C307.786 116.506 307.617 116.58 307.402 116.648C307.192 116.709 306.955 116.768 306.691 116.823C306.426 116.872 306.161 116.919 305.897 116.962C305.632 116.999 305.392 117.032 305.176 117.063C304.715 117.131 304.312 117.239 303.967 117.386C303.622 117.534 303.355 117.734 303.164 117.987C302.973 118.233 302.877 118.54 302.877 118.91C302.877 119.445 303.071 119.855 303.459 120.138C303.853 120.415 304.352 120.553 304.955 120.553ZM326.666 112.862L323.065 113.084C323.004 112.776 322.871 112.499 322.668 112.253C322.465 112 322.197 111.8 321.865 111.653C321.539 111.499 321.148 111.422 320.692 111.422C320.083 111.422 319.569 111.551 319.151 111.81C318.732 112.062 318.523 112.401 318.523 112.825C318.523 113.164 318.658 113.45 318.929 113.684C319.2 113.918 319.665 114.106 320.323 114.247L322.89 114.764C324.269 115.047 325.297 115.503 325.974 116.131C326.651 116.759 326.989 117.583 326.989 118.605C326.989 119.535 326.715 120.35 326.168 121.052C325.626 121.754 324.881 122.301 323.933 122.695C322.991 123.083 321.905 123.277 320.674 123.277C318.797 123.277 317.301 122.886 316.187 122.104C315.079 121.317 314.429 120.246 314.239 118.891L318.107 118.688C318.224 119.261 318.507 119.698 318.957 119.999C319.406 120.295 319.982 120.442 320.683 120.442C321.373 120.442 321.927 120.31 322.345 120.045C322.77 119.775 322.985 119.427 322.991 119.002C322.985 118.645 322.835 118.353 322.539 118.125C322.244 117.891 321.788 117.713 321.173 117.589L318.717 117.1C317.332 116.823 316.301 116.343 315.624 115.66C314.953 114.977 314.617 114.106 314.617 113.047C314.617 112.136 314.863 111.351 315.356 110.692C315.854 110.034 316.553 109.526 317.452 109.169C318.357 108.812 319.415 108.634 320.628 108.634C322.419 108.634 323.829 109.012 324.857 109.769C325.891 110.526 326.494 111.557 326.666 112.862ZM339.417 114.801V123H335.484V108.818H339.232V111.32H339.398C339.712 110.496 340.239 109.843 340.977 109.363C341.716 108.877 342.612 108.634 343.664 108.634C344.649 108.634 345.508 108.849 346.24 109.28C346.973 109.711 347.542 110.326 347.948 111.126C348.354 111.92 348.558 112.868 348.558 113.97V123H344.624V114.672C344.63 113.804 344.409 113.127 343.96 112.641C343.51 112.148 342.892 111.902 342.104 111.902C341.574 111.902 341.107 112.016 340.7 112.244C340.3 112.471 339.986 112.804 339.759 113.241C339.537 113.672 339.423 114.192 339.417 114.801ZM358.065 123.277C356.631 123.277 355.391 122.972 354.344 122.363C353.304 121.747 352.501 120.892 351.934 119.796C351.368 118.694 351.085 117.417 351.085 115.964C351.085 114.5 351.368 113.219 351.934 112.124C352.501 111.022 353.304 110.166 354.344 109.557C355.391 108.941 356.631 108.634 358.065 108.634C359.499 108.634 360.737 108.941 361.777 109.557C362.823 110.166 363.63 111.022 364.196 112.124C364.762 113.219 365.045 114.5 365.045 115.964C365.045 117.417 364.762 118.694 364.196 119.796C363.63 120.892 362.823 121.747 361.777 122.363C360.737 122.972 359.499 123.277 358.065 123.277ZM358.084 120.23C358.736 120.23 359.281 120.045 359.718 119.676C360.155 119.301 360.484 118.79 360.706 118.143C360.934 117.497 361.047 116.762 361.047 115.937C361.047 115.112 360.934 114.376 360.706 113.73C360.484 113.084 360.155 112.573 359.718 112.197C359.281 111.822 358.736 111.634 358.084 111.634C357.425 111.634 356.871 111.822 356.422 112.197C355.979 112.573 355.643 113.084 355.415 113.73C355.194 114.376 355.083 115.112 355.083 115.937C355.083 116.762 355.194 117.497 355.415 118.143C355.643 118.79 355.979 119.301 356.422 119.676C356.871 120.045 357.425 120.23 358.084 120.23ZM375.146 108.818V111.773H366.606V108.818H375.146ZM368.545 105.42H372.478V118.642C372.478 119.005 372.533 119.288 372.644 119.491C372.755 119.688 372.909 119.827 373.106 119.907C373.309 119.987 373.543 120.027 373.807 120.027C373.992 120.027 374.177 120.012 374.361 119.981C374.546 119.944 374.688 119.916 374.786 119.898L375.405 122.825C375.208 122.886 374.931 122.957 374.574 123.037C374.217 123.123 373.783 123.175 373.272 123.194C372.324 123.231 371.493 123.105 370.779 122.815C370.071 122.526 369.52 122.077 369.126 121.467C368.732 120.858 368.538 120.089 368.545 119.159V105.42ZM381.752 123.268C380.847 123.268 380.041 123.111 379.333 122.797C378.625 122.477 378.065 122.006 377.653 121.384C377.247 120.756 377.044 119.975 377.044 119.039C377.044 118.251 377.188 117.589 377.477 117.054C377.767 116.518 378.161 116.088 378.659 115.761C379.158 115.435 379.724 115.189 380.358 115.023C380.998 114.857 381.669 114.74 382.371 114.672C383.196 114.586 383.86 114.506 384.365 114.432C384.87 114.352 385.236 114.235 385.464 114.081C385.692 113.927 385.806 113.699 385.806 113.398V113.342C385.806 112.758 385.621 112.305 385.252 111.985C384.888 111.665 384.371 111.505 383.7 111.505C382.993 111.505 382.429 111.662 382.011 111.976C381.592 112.284 381.315 112.671 381.18 113.139L377.542 112.844C377.727 111.982 378.09 111.237 378.632 110.609C379.173 109.975 379.872 109.489 380.727 109.151C381.589 108.806 382.586 108.634 383.719 108.634C384.507 108.634 385.261 108.726 385.981 108.911C386.707 109.095 387.351 109.381 387.911 109.769C388.477 110.157 388.923 110.656 389.249 111.265C389.576 111.868 389.739 112.591 389.739 113.435V123H386.009V121.033H385.898C385.67 121.477 385.365 121.867 384.984 122.206C384.602 122.538 384.144 122.8 383.608 122.991C383.073 123.175 382.454 123.268 381.752 123.268ZM382.879 120.553C383.457 120.553 383.968 120.439 384.411 120.212C384.855 119.978 385.202 119.664 385.455 119.27C385.707 118.876 385.833 118.43 385.833 117.931V116.426C385.71 116.506 385.541 116.58 385.325 116.648C385.116 116.709 384.879 116.768 384.615 116.823C384.35 116.872 384.085 116.919 383.82 116.962C383.556 116.999 383.316 117.032 383.1 117.063C382.639 117.131 382.235 117.239 381.891 117.386C381.546 117.534 381.278 117.734 381.088 117.987C380.897 118.233 380.801 118.54 380.801 118.91C380.801 119.445 380.995 119.855 381.383 120.138C381.777 120.415 382.276 120.553 382.879 120.553ZM404.59 112.862L400.989 113.084C400.928 112.776 400.795 112.499 400.592 112.253C400.389 112 400.121 111.8 399.789 111.653C399.463 111.499 399.072 111.422 398.616 111.422C398.007 111.422 397.493 111.551 397.074 111.81C396.656 112.062 396.447 112.401 396.447 112.825C396.447 113.164 396.582 113.45 396.853 113.684C397.124 113.918 397.588 114.106 398.247 114.247L400.814 114.764C402.193 115.047 403.22 115.503 403.898 116.131C404.575 116.759 404.913 117.583 404.913 118.605C404.913 119.535 404.639 120.35 404.091 121.052C403.55 121.754 402.805 122.301 401.857 122.695C400.915 123.083 399.829 123.277 398.598 123.277C396.72 123.277 395.225 122.886 394.111 122.104C393.003 121.317 392.353 120.246 392.162 118.891L396.031 118.688C396.148 119.261 396.431 119.698 396.881 119.999C397.33 120.295 397.905 120.442 398.607 120.442C399.296 120.442 399.85 120.31 400.269 120.045C400.694 119.775 400.909 119.427 400.915 119.002C400.909 118.645 400.758 118.353 400.463 118.125C400.167 117.891 399.712 117.713 399.096 117.589L396.64 117.1C395.256 116.823 394.224 116.343 393.547 115.66C392.876 114.977 392.541 114.106 392.541 113.047C392.541 112.136 392.787 111.351 393.28 110.692C393.778 110.034 394.477 109.526 395.376 109.169C396.28 108.812 397.339 108.634 398.552 108.634C400.343 108.634 401.752 109.012 402.78 109.769C403.814 110.526 404.418 111.557 404.59 112.862ZM409.689 123.24C409.08 123.24 408.556 123.025 408.119 122.594C407.688 122.157 407.473 121.634 407.473 121.024C407.473 120.421 407.688 119.904 408.119 119.473C408.556 119.042 409.08 118.827 409.689 118.827C410.28 118.827 410.797 119.042 411.24 119.473C411.683 119.904 411.905 120.421 411.905 121.024C411.905 121.43 411.8 121.803 411.591 122.141C411.388 122.474 411.12 122.741 410.788 122.945C410.455 123.142 410.089 123.24 409.689 123.24ZM409.689 113.305C409.08 113.305 408.556 113.09 408.119 112.659C407.688 112.228 407.473 111.705 407.473 111.089C407.473 110.486 407.688 109.972 408.119 109.548C408.556 109.117 409.08 108.901 409.689 108.901C410.28 108.901 410.797 109.117 411.24 109.548C411.683 109.972 411.905 110.486 411.905 111.089C411.905 111.502 411.8 111.877 411.591 112.216C411.388 112.548 411.12 112.813 410.788 113.01C410.455 113.207 410.089 113.305 409.689 113.305ZM102.159 169H100.045C99.9205 168.392 99.7017 167.858 99.3892 167.398C99.0824 166.938 98.7074 166.551 98.2642 166.239C97.8267 165.92 97.3409 165.682 96.8068 165.523C96.2727 165.364 95.7159 165.284 95.1364 165.284C94.0795 165.284 93.1222 165.551 92.2642 166.085C91.4119 166.619 90.733 167.406 90.2273 168.446C89.7273 169.486 89.4773 170.761 89.4773 172.273C89.4773 173.784 89.7273 175.06 90.2273 176.099C90.733 177.139 91.4119 177.926 92.2642 178.46C93.1222 178.994 94.0795 179.261 95.1364 179.261C95.7159 179.261 96.2727 179.182 96.8068 179.023C97.3409 178.864 97.8267 178.628 98.2642 178.315C98.7074 177.997 99.0824 177.608 99.3892 177.148C99.7017 176.682 99.9205 176.148 100.045 175.545H102.159C102 176.437 101.71 177.236 101.29 177.94C100.869 178.645 100.347 179.244 99.7216 179.739C99.0966 180.227 98.3949 180.599 97.6165 180.855C96.8438 181.111 96.017 181.239 95.1364 181.239C93.6477 181.239 92.3239 180.875 91.1648 180.148C90.0057 179.42 89.0938 178.386 88.429 177.045C87.7642 175.705 87.4318 174.114 87.4318 172.273C87.4318 170.432 87.7642 168.841 88.429 167.5C89.0938 166.159 90.0057 165.125 91.1648 164.398C92.3239 163.67 93.6477 163.307 95.1364 163.307C96.017 163.307 96.8438 163.435 97.6165 163.69C98.3949 163.946 99.0966 164.321 99.7216 164.815C100.347 165.304 100.869 165.901 101.29 166.605C101.71 167.304 102 168.102 102.159 169ZM109.154 181.307C108.325 181.307 107.572 181.151 106.896 180.838C106.219 180.52 105.683 180.062 105.285 179.466C104.887 178.864 104.688 178.136 104.688 177.284C104.688 176.534 104.836 175.926 105.131 175.46C105.427 174.989 105.822 174.619 106.316 174.352C106.81 174.085 107.356 173.886 107.952 173.756C108.555 173.619 109.16 173.511 109.768 173.432C110.563 173.33 111.208 173.253 111.702 173.202C112.202 173.145 112.566 173.051 112.793 172.92C113.026 172.79 113.143 172.562 113.143 172.239V172.17C113.143 171.33 112.913 170.676 112.452 170.21C111.998 169.744 111.308 169.511 110.381 169.511C109.421 169.511 108.668 169.722 108.123 170.142C107.577 170.562 107.194 171.011 106.972 171.489L105.063 170.807C105.404 170.011 105.859 169.392 106.427 168.949C107.001 168.5 107.626 168.187 108.302 168.011C108.984 167.83 109.654 167.739 110.313 167.739C110.734 167.739 111.217 167.79 111.762 167.892C112.313 167.989 112.844 168.19 113.356 168.497C113.873 168.804 114.302 169.267 114.643 169.886C114.984 170.506 115.154 171.335 115.154 172.375V181H113.143V179.227H113.04C112.904 179.511 112.677 179.815 112.359 180.139C112.04 180.463 111.617 180.739 111.089 180.966C110.56 181.193 109.915 181.307 109.154 181.307ZM109.461 179.5C110.256 179.5 110.927 179.344 111.472 179.031C112.023 178.719 112.438 178.315 112.717 177.821C113.001 177.327 113.143 176.807 113.143 176.261V174.42C113.058 174.523 112.87 174.616 112.58 174.702C112.296 174.781 111.967 174.852 111.592 174.915C111.222 174.972 110.862 175.023 110.509 175.068C110.163 175.108 109.881 175.142 109.665 175.17C109.143 175.239 108.654 175.349 108.2 175.503C107.751 175.651 107.387 175.875 107.109 176.176C106.836 176.472 106.7 176.875 106.7 177.386C106.7 178.085 106.958 178.614 107.475 178.972C107.998 179.324 108.66 179.5 109.461 179.5ZM120.837 173.125V181H118.825V167.909H120.768V169.955H120.939C121.246 169.29 121.712 168.756 122.337 168.352C122.962 167.943 123.768 167.739 124.757 167.739C125.643 167.739 126.419 167.92 127.084 168.284C127.749 168.642 128.266 169.188 128.635 169.92C129.004 170.648 129.189 171.568 129.189 172.682V181H127.178V172.818C127.178 171.79 126.911 170.989 126.376 170.415C125.842 169.835 125.109 169.545 124.178 169.545C123.536 169.545 122.962 169.685 122.456 169.963C121.956 170.241 121.561 170.648 121.271 171.182C120.982 171.716 120.837 172.364 120.837 173.125ZM138.183 181.273C136.955 181.273 135.898 180.983 135.012 180.403C134.126 179.824 133.444 179.026 132.967 178.009C132.489 176.991 132.251 175.83 132.251 174.523C132.251 173.193 132.495 172.02 132.984 171.003C133.478 169.98 134.165 169.182 135.046 168.608C135.933 168.028 136.967 167.739 138.148 167.739C139.069 167.739 139.898 167.909 140.637 168.25C141.376 168.591 141.981 169.068 142.452 169.682C142.924 170.295 143.217 171.011 143.33 171.83H141.319C141.165 171.233 140.825 170.705 140.296 170.244C139.773 169.778 139.069 169.545 138.183 169.545C137.398 169.545 136.711 169.75 136.12 170.159C135.535 170.562 135.077 171.134 134.748 171.872C134.424 172.605 134.262 173.466 134.262 174.455C134.262 175.466 134.421 176.347 134.739 177.097C135.063 177.847 135.518 178.429 136.103 178.844C136.694 179.259 137.387 179.466 138.183 179.466C138.705 179.466 139.18 179.375 139.606 179.193C140.032 179.011 140.393 178.75 140.688 178.409C140.984 178.068 141.194 177.659 141.319 177.182H143.33C143.217 177.955 142.935 178.651 142.487 179.27C142.043 179.884 141.455 180.372 140.722 180.736C139.995 181.094 139.148 181.273 138.183 181.273ZM146.271 181V167.909H148.282V181H146.271ZM147.293 165.727C146.901 165.727 146.563 165.594 146.279 165.327C146.001 165.06 145.862 164.739 145.862 164.364C145.862 163.989 146.001 163.668 146.279 163.401C146.563 163.134 146.901 163 147.293 163C147.685 163 148.021 163.134 148.299 163.401C148.583 163.668 148.725 163.989 148.725 164.364C148.725 164.739 148.583 165.06 148.299 165.327C148.021 165.594 147.685 165.727 147.293 165.727ZM157.284 181.273C156.102 181.273 155.065 180.991 154.173 180.429C153.287 179.866 152.594 179.08 152.094 178.068C151.599 177.057 151.352 175.875 151.352 174.523C151.352 173.159 151.599 171.969 152.094 170.952C152.594 169.935 153.287 169.145 154.173 168.582C155.065 168.02 156.102 167.739 157.284 167.739C158.466 167.739 159.5 168.02 160.386 168.582C161.278 169.145 161.972 169.935 162.466 170.952C162.966 171.969 163.216 173.159 163.216 174.523C163.216 175.875 162.966 177.057 162.466 178.068C161.972 179.08 161.278 179.866 160.386 180.429C159.5 180.991 158.466 181.273 157.284 181.273ZM157.284 179.466C158.182 179.466 158.92 179.236 159.5 178.776C160.08 178.315 160.509 177.71 160.787 176.96C161.065 176.21 161.205 175.398 161.205 174.523C161.205 173.648 161.065 172.832 160.787 172.077C160.509 171.321 160.08 170.71 159.5 170.244C158.92 169.778 158.182 169.545 157.284 169.545C156.386 169.545 155.648 169.778 155.068 170.244C154.489 170.71 154.06 171.321 153.781 172.077C153.503 172.832 153.364 173.648 153.364 174.523C153.364 175.398 153.503 176.21 153.781 176.96C154.06 177.71 154.489 178.315 155.068 178.776C155.648 179.236 156.386 179.466 157.284 179.466ZM156.364 166.136L158.443 162.182H160.795L158.136 166.136H156.364ZM168.298 173.125V181H166.286V167.909H168.229V169.955H168.4C168.707 169.29 169.173 168.756 169.798 168.352C170.423 167.943 171.229 167.739 172.218 167.739C173.104 167.739 173.88 167.92 174.545 168.284C175.21 168.642 175.727 169.188 176.096 169.92C176.465 170.648 176.65 171.568 176.65 172.682V181H174.638V172.818C174.638 171.79 174.371 170.989 173.837 170.415C173.303 169.835 172.57 169.545 171.638 169.545C170.996 169.545 170.423 169.685 169.917 169.963C169.417 170.241 169.022 170.648 168.732 171.182C168.442 171.716 168.298 172.364 168.298 173.125ZM181.791 181.136C181.371 181.136 181.01 180.986 180.709 180.685C180.408 180.384 180.257 180.023 180.257 179.602C180.257 179.182 180.408 178.821 180.709 178.52C181.01 178.219 181.371 178.068 181.791 178.068C182.212 178.068 182.572 178.219 182.874 178.52C183.175 178.821 183.325 179.182 183.325 179.602C183.325 179.881 183.254 180.136 183.112 180.369C182.976 180.602 182.791 180.79 182.558 180.932C182.331 181.068 182.075 181.136 181.791 181.136ZM181.791 171.42C181.371 171.42 181.01 171.27 180.709 170.969C180.408 170.668 180.257 170.307 180.257 169.886C180.257 169.466 180.408 169.105 180.709 168.804C181.01 168.503 181.371 168.352 181.791 168.352C182.212 168.352 182.572 168.503 182.874 168.804C183.175 169.105 183.325 169.466 183.325 169.886C183.325 170.165 183.254 170.42 183.112 170.653C182.976 170.886 182.791 171.074 182.558 171.216C182.331 171.352 182.075 171.42 181.791 171.42ZM199.548 181.239C198.423 181.239 197.42 181.045 196.54 180.659C195.665 180.273 194.969 179.736 194.452 179.048C193.94 178.355 193.662 177.551 193.616 176.636H195.764C195.81 177.199 196.003 177.685 196.344 178.094C196.685 178.497 197.131 178.81 197.682 179.031C198.233 179.253 198.844 179.364 199.514 179.364C200.264 179.364 200.929 179.233 201.509 178.972C202.088 178.71 202.543 178.347 202.872 177.881C203.202 177.415 203.366 176.875 203.366 176.261C203.366 175.619 203.207 175.054 202.889 174.565C202.571 174.071 202.105 173.685 201.491 173.406C200.878 173.128 200.128 172.989 199.241 172.989H197.844V171.114H199.241C199.935 171.114 200.543 170.989 201.065 170.739C201.594 170.489 202.006 170.136 202.301 169.682C202.602 169.227 202.753 168.693 202.753 168.08C202.753 167.489 202.622 166.974 202.361 166.537C202.099 166.099 201.73 165.759 201.253 165.514C200.781 165.27 200.224 165.148 199.582 165.148C198.98 165.148 198.412 165.259 197.878 165.48C197.349 165.696 196.918 166.011 196.582 166.426C196.247 166.835 196.065 167.33 196.037 167.909H193.991C194.026 166.994 194.301 166.193 194.818 165.506C195.335 164.812 196.011 164.273 196.847 163.886C197.688 163.5 198.611 163.307 199.616 163.307C200.696 163.307 201.622 163.526 202.395 163.963C203.168 164.395 203.761 164.966 204.176 165.676C204.591 166.386 204.798 167.153 204.798 167.977C204.798 168.96 204.54 169.798 204.023 170.491C203.511 171.185 202.815 171.665 201.935 171.932V172.068C203.037 172.25 203.898 172.719 204.517 173.474C205.136 174.224 205.446 175.153 205.446 176.261C205.446 177.21 205.188 178.062 204.67 178.818C204.159 179.568 203.46 180.159 202.574 180.591C201.688 181.023 200.679 181.239 199.548 181.239ZM214.625 181.239C213.341 181.239 212.247 180.889 211.344 180.19C210.44 179.486 209.75 178.466 209.273 177.131C208.795 175.79 208.557 174.17 208.557 172.273C208.557 170.386 208.795 168.776 209.273 167.44C209.756 166.099 210.449 165.077 211.352 164.372C212.261 163.662 213.352 163.307 214.625 163.307C215.898 163.307 216.986 163.662 217.889 164.372C218.798 165.077 219.491 166.099 219.969 167.44C220.452 168.776 220.693 170.386 220.693 172.273C220.693 174.17 220.455 175.79 219.977 177.131C219.5 178.466 218.81 179.486 217.906 180.19C217.003 180.889 215.909 181.239 214.625 181.239ZM214.625 179.364C215.898 179.364 216.886 178.75 217.591 177.523C218.295 176.295 218.648 174.545 218.648 172.273C218.648 170.761 218.486 169.474 218.162 168.412C217.844 167.349 217.384 166.54 216.781 165.983C216.185 165.426 215.466 165.148 214.625 165.148C213.364 165.148 212.378 165.77 211.668 167.014C210.957 168.253 210.602 170.006 210.602 172.273C210.602 173.784 210.761 175.068 211.08 176.125C211.398 177.182 211.855 177.986 212.452 178.537C213.054 179.088 213.778 179.364 214.625 179.364ZM229.625 181.239C228.341 181.239 227.247 180.889 226.344 180.19C225.44 179.486 224.75 178.466 224.273 177.131C223.795 175.79 223.557 174.17 223.557 172.273C223.557 170.386 223.795 168.776 224.273 167.44C224.756 166.099 225.449 165.077 226.352 164.372C227.261 163.662 228.352 163.307 229.625 163.307C230.898 163.307 231.986 163.662 232.889 164.372C233.798 165.077 234.491 166.099 234.969 167.44C235.452 168.776 235.693 170.386 235.693 172.273C235.693 174.17 235.455 175.79 234.977 177.131C234.5 178.466 233.81 179.486 232.906 180.19C232.003 180.889 230.909 181.239 229.625 181.239ZM229.625 179.364C230.898 179.364 231.886 178.75 232.591 177.523C233.295 176.295 233.648 174.545 233.648 172.273C233.648 170.761 233.486 169.474 233.162 168.412C232.844 167.349 232.384 166.54 231.781 165.983C231.185 165.426 230.466 165.148 229.625 165.148C228.364 165.148 227.378 165.77 226.668 167.014C225.957 168.253 225.602 170.006 225.602 172.273C225.602 173.784 225.761 175.068 226.08 176.125C226.398 177.182 226.855 177.986 227.452 178.537C228.054 179.088 228.778 179.364 229.625 179.364ZM244.386 181.239C243.386 181.239 242.486 181.04 241.685 180.642C240.884 180.244 240.241 179.699 239.759 179.006C239.276 178.312 239.011 177.523 238.966 176.636H241.011C241.091 177.426 241.449 178.08 242.085 178.597C242.727 179.108 243.494 179.364 244.386 179.364C245.102 179.364 245.739 179.196 246.295 178.861C246.858 178.526 247.298 178.065 247.616 177.48C247.94 176.889 248.102 176.222 248.102 175.477C248.102 174.716 247.935 174.037 247.599 173.44C247.27 172.838 246.815 172.364 246.236 172.017C245.656 171.67 244.994 171.494 244.25 171.489C243.716 171.483 243.168 171.565 242.605 171.736C242.043 171.901 241.58 172.114 241.216 172.375L239.239 172.136L240.295 163.545H249.364V165.42H242.068L241.455 170.568H241.557C241.915 170.284 242.364 170.048 242.903 169.861C243.443 169.673 244.006 169.58 244.591 169.58C245.659 169.58 246.611 169.835 247.446 170.347C248.287 170.852 248.946 171.545 249.423 172.426C249.906 173.307 250.148 174.312 250.148 175.443C250.148 176.557 249.898 177.551 249.398 178.426C248.903 179.295 248.222 179.983 247.352 180.489C246.483 180.989 245.494 181.239 244.386 181.239Z" fill="white"/>
<line x1="634.5" y1="147" x2="634.5" y2="407" stroke="white" stroke-width="5"/>
<ellipse cx="596.057" cy="406.843" rx="43.3643" ry="35.1733" transform="rotate(-6.48096 596.057 406.843)" fill="white"/>
</svg>
