<svg width="1509" height="683" viewBox="0 0 1509 683" fill="none" xmlns="http://www.w3.org/2000/svg">
<rect width="1509" height="683" fill="#121212"/>
<path d="M104.327 110.711H100.283C100.21 110.188 100.059 109.723 99.831 109.317C99.6032 108.904 99.3108 108.554 98.9538 108.264C98.5968 107.975 98.1844 107.753 97.7166 107.599C97.255 107.446 96.7533 107.369 96.2116 107.369C95.233 107.369 94.3804 107.612 93.6541 108.098C92.9278 108.578 92.3646 109.28 91.9645 110.203C91.5644 111.12 91.3643 112.234 91.3643 113.545C91.3643 114.893 91.5644 116.026 91.9645 116.943C92.3707 117.86 92.937 118.553 93.6634 119.021C94.3897 119.488 95.2299 119.722 96.1839 119.722C96.7195 119.722 97.215 119.652 97.6705 119.51C98.1321 119.368 98.5414 119.162 98.8984 118.891C99.2554 118.614 99.5509 118.279 99.7848 117.885C100.025 117.491 100.191 117.042 100.283 116.537L104.327 116.555C104.223 117.423 103.961 118.26 103.543 119.067C103.13 119.867 102.573 120.584 101.871 121.218C101.176 121.846 100.345 122.344 99.3786 122.714C98.4183 123.077 97.3319 123.259 96.1193 123.259C94.4328 123.259 92.9247 122.877 91.5952 122.114C90.2718 121.35 89.2254 120.246 88.456 118.799C87.6927 117.353 87.3111 115.601 87.3111 113.545C87.3111 111.483 87.6989 109.729 88.4744 108.283C89.25 106.836 90.3026 105.734 91.6321 104.977C92.9616 104.214 94.4574 103.832 96.1193 103.832C97.215 103.832 98.2306 103.986 99.1662 104.294C100.108 104.602 100.942 105.051 101.668 105.642C102.395 106.227 102.986 106.944 103.441 107.793C103.903 108.643 104.198 109.615 104.327 110.711ZM113.528 123.277C112.094 123.277 110.854 122.972 109.807 122.363C108.767 121.747 107.964 120.892 107.397 119.796C106.831 118.694 106.548 117.417 106.548 115.964C106.548 114.5 106.831 113.219 107.397 112.124C107.964 111.022 108.767 110.166 109.807 109.557C110.854 108.941 112.094 108.634 113.528 108.634C114.962 108.634 116.199 108.941 117.24 109.557C118.286 110.166 119.092 111.022 119.659 112.124C120.225 113.219 120.508 114.5 120.508 115.964C120.508 117.417 120.225 118.694 119.659 119.796C119.092 120.892 118.286 121.747 117.24 122.363C116.199 122.972 114.962 123.277 113.528 123.277ZM113.547 120.23C114.199 120.23 114.744 120.045 115.181 119.676C115.618 119.301 115.947 118.79 116.169 118.143C116.396 117.497 116.51 116.762 116.51 115.937C116.51 115.112 116.396 114.376 116.169 113.73C115.947 113.084 115.618 112.573 115.181 112.197C114.744 111.822 114.199 111.634 113.547 111.634C112.888 111.634 112.334 111.822 111.885 112.197C111.441 112.573 111.106 113.084 110.878 113.73C110.657 114.376 110.546 115.112 110.546 115.937C110.546 116.762 110.657 117.497 110.878 118.143C111.106 118.79 111.441 119.301 111.885 119.676C112.334 120.045 112.888 120.23 113.547 120.23ZM128.292 123.231C127.214 123.231 126.239 122.954 125.365 122.4C124.497 121.84 123.807 121.018 123.297 119.935C122.792 118.845 122.539 117.509 122.539 115.928C122.539 114.303 122.801 112.951 123.324 111.874C123.847 110.791 124.543 109.982 125.411 109.446C126.285 108.904 127.242 108.634 128.282 108.634C129.076 108.634 129.738 108.769 130.267 109.04C130.803 109.304 131.234 109.637 131.56 110.037C131.892 110.431 132.145 110.819 132.317 111.2H132.437V104.091H136.361V123H132.483V120.729H132.317C132.132 121.123 131.871 121.513 131.532 121.901C131.2 122.283 130.766 122.6 130.23 122.852C129.701 123.105 129.055 123.231 128.292 123.231ZM129.538 120.101C130.172 120.101 130.708 119.929 131.145 119.584C131.588 119.233 131.926 118.744 132.16 118.116C132.4 117.488 132.52 116.752 132.52 115.909C132.52 115.066 132.403 114.333 132.169 113.712C131.935 113.09 131.597 112.61 131.154 112.271C130.711 111.933 130.172 111.763 129.538 111.763C128.892 111.763 128.347 111.939 127.904 112.29C127.461 112.641 127.125 113.127 126.897 113.749C126.67 114.37 126.556 115.09 126.556 115.909C126.556 116.734 126.67 117.463 126.897 118.097C127.131 118.725 127.467 119.218 127.904 119.575C128.347 119.925 128.892 120.101 129.538 120.101ZM139.595 123V108.818H143.528V123H139.595ZM141.571 106.99C140.986 106.99 140.484 106.796 140.066 106.408C139.653 106.014 139.447 105.544 139.447 104.996C139.447 104.454 139.653 103.989 140.066 103.602C140.484 103.208 140.986 103.011 141.571 103.011C142.156 103.011 142.654 103.208 143.067 103.602C143.485 103.989 143.694 104.454 143.694 104.996C143.694 105.544 143.485 106.014 143.067 106.408C142.654 106.796 142.156 106.99 141.571 106.99ZM154.305 108.818V111.773H145.553V108.818H154.305ZM147.556 123V107.793C147.556 106.765 147.756 105.913 148.156 105.236C148.562 104.559 149.116 104.051 149.818 103.712C150.52 103.374 151.317 103.205 152.21 103.205C152.813 103.205 153.364 103.251 153.862 103.343C154.367 103.435 154.742 103.518 154.989 103.592L154.287 106.547C154.133 106.498 153.942 106.451 153.714 106.408C153.493 106.365 153.265 106.344 153.031 106.344C152.453 106.344 152.049 106.479 151.822 106.75C151.594 107.015 151.48 107.387 151.48 107.867V123H147.556ZM156.708 123V108.818H160.642V123H156.708ZM158.684 106.99C158.099 106.99 157.598 106.796 157.179 106.408C156.767 106.014 156.561 105.544 156.561 104.996C156.561 104.454 156.767 103.989 157.179 103.602C157.598 103.208 158.099 103.011 158.684 103.011C159.269 103.011 159.767 103.208 160.18 103.602C160.598 103.989 160.808 104.454 160.808 104.996C160.808 105.544 160.598 106.014 160.18 106.408C159.767 106.796 159.269 106.99 158.684 106.99ZM170.2 123.277C168.747 123.277 167.498 122.969 166.451 122.354C165.411 121.732 164.611 120.87 164.051 119.768C163.497 118.667 163.22 117.399 163.22 115.964C163.22 114.512 163.5 113.238 164.06 112.142C164.626 111.04 165.43 110.182 166.47 109.566C167.51 108.944 168.747 108.634 170.181 108.634C171.419 108.634 172.502 108.858 173.431 109.308C174.361 109.757 175.096 110.388 175.638 111.2C176.18 112.013 176.478 112.967 176.534 114.062H172.822C172.717 113.355 172.44 112.785 171.991 112.354C171.548 111.917 170.966 111.699 170.246 111.699C169.637 111.699 169.104 111.865 168.649 112.197C168.199 112.524 167.849 113.001 167.596 113.629C167.344 114.256 167.218 115.017 167.218 115.909C167.218 116.814 167.341 117.583 167.587 118.217C167.839 118.851 168.193 119.335 168.649 119.667C169.104 119.999 169.637 120.165 170.246 120.165C170.695 120.165 171.099 120.073 171.456 119.888C171.819 119.704 172.117 119.436 172.351 119.085C172.591 118.728 172.748 118.3 172.822 117.802H176.534C176.472 118.885 176.177 119.839 175.647 120.664C175.124 121.483 174.401 122.123 173.478 122.585C172.554 123.046 171.462 123.277 170.2 123.277ZM183.096 123.268C182.191 123.268 181.385 123.111 180.677 122.797C179.969 122.477 179.409 122.006 178.997 121.384C178.59 120.756 178.387 119.975 178.387 119.039C178.387 118.251 178.532 117.589 178.821 117.054C179.11 116.518 179.504 116.088 180.003 115.761C180.502 115.435 181.068 115.189 181.702 115.023C182.342 114.857 183.013 114.74 183.715 114.672C184.539 114.586 185.204 114.506 185.709 114.432C186.214 114.352 186.58 114.235 186.808 114.081C187.035 113.927 187.149 113.699 187.149 113.398V113.342C187.149 112.758 186.965 112.305 186.595 111.985C186.232 111.665 185.715 111.505 185.044 111.505C184.336 111.505 183.773 111.662 183.355 111.976C182.936 112.284 182.659 112.671 182.524 113.139L178.886 112.844C179.07 111.982 179.434 111.237 179.975 110.609C180.517 109.975 181.216 109.489 182.071 109.151C182.933 108.806 183.93 108.634 185.063 108.634C185.851 108.634 186.605 108.726 187.325 108.911C188.051 109.095 188.694 109.381 189.254 109.769C189.821 110.157 190.267 110.656 190.593 111.265C190.919 111.868 191.083 112.591 191.083 113.435V123H187.352V121.033H187.242C187.014 121.477 186.709 121.867 186.328 122.206C185.946 122.538 185.487 122.8 184.952 122.991C184.416 123.175 183.798 123.268 183.096 123.268ZM184.222 120.553C184.801 120.553 185.312 120.439 185.755 120.212C186.198 119.978 186.546 119.664 186.798 119.27C187.051 118.876 187.177 118.43 187.177 117.931V116.426C187.054 116.506 186.885 116.58 186.669 116.648C186.46 116.709 186.223 116.768 185.958 116.823C185.694 116.872 185.429 116.919 185.164 116.962C184.9 116.999 184.66 117.032 184.444 117.063C183.982 117.131 183.579 117.239 183.235 117.386C182.89 117.534 182.622 117.734 182.431 117.987C182.24 118.233 182.145 118.54 182.145 118.91C182.145 119.445 182.339 119.855 182.727 120.138C183.121 120.415 183.619 120.553 184.222 120.553ZM200.542 123.277C199.089 123.277 197.84 122.969 196.793 122.354C195.753 121.732 194.953 120.87 194.393 119.768C193.839 118.667 193.562 117.399 193.562 115.964C193.562 114.512 193.842 113.238 194.402 112.142C194.968 111.04 195.771 110.182 196.812 109.566C197.852 108.944 199.089 108.634 200.523 108.634C201.76 108.634 202.844 108.858 203.773 109.308C204.703 109.757 205.438 110.388 205.98 111.2C206.522 112.013 206.82 112.967 206.876 114.062H203.164C203.059 113.355 202.782 112.785 202.333 112.354C201.89 111.917 201.308 111.699 200.588 111.699C199.979 111.699 199.446 111.865 198.991 112.197C198.541 112.524 198.19 113.001 197.938 113.629C197.686 114.256 197.559 115.017 197.559 115.909C197.559 116.814 197.683 117.583 197.929 118.217C198.181 118.851 198.535 119.335 198.991 119.667C199.446 119.999 199.979 120.165 200.588 120.165C201.037 120.165 201.44 120.073 201.797 119.888C202.161 119.704 202.459 119.436 202.693 119.085C202.933 118.728 203.09 118.3 203.164 117.802H206.876C206.814 118.885 206.519 119.839 205.989 120.664C205.466 121.483 204.743 122.123 203.819 122.585C202.896 123.046 201.804 123.277 200.542 123.277ZM209.394 123V108.818H213.327V123H209.394ZM211.37 106.99C210.785 106.99 210.283 106.796 209.865 106.408C209.452 106.014 209.246 105.544 209.246 104.996C209.246 104.454 209.452 103.989 209.865 103.602C210.283 103.208 210.785 103.011 211.37 103.011C211.954 103.011 212.453 103.208 212.865 103.602C213.284 103.989 213.493 104.454 213.493 104.996C213.493 105.544 213.284 106.014 212.865 106.408C212.453 106.796 211.954 106.99 211.37 106.99ZM222.885 123.277C221.451 123.277 220.211 122.972 219.165 122.363C218.124 121.747 217.321 120.892 216.755 119.796C216.189 118.694 215.905 117.417 215.905 115.964C215.905 114.5 216.189 113.219 216.755 112.124C217.321 111.022 218.124 110.166 219.165 109.557C220.211 108.941 221.451 108.634 222.885 108.634C224.32 108.634 225.557 108.941 226.597 109.557C227.644 110.166 228.45 111.022 229.016 112.124C229.582 113.219 229.866 114.5 229.866 115.964C229.866 117.417 229.582 118.694 229.016 119.796C228.45 120.892 227.644 121.747 226.597 122.363C225.557 122.972 224.32 123.277 222.885 123.277ZM222.904 120.23C223.556 120.23 224.101 120.045 224.538 119.676C224.975 119.301 225.305 118.79 225.526 118.143C225.754 117.497 225.868 116.762 225.868 115.937C225.868 115.112 225.754 114.376 225.526 113.73C225.305 113.084 224.975 112.573 224.538 112.197C224.101 111.822 223.556 111.634 222.904 111.634C222.245 111.634 221.691 111.822 221.242 112.197C220.799 112.573 220.463 113.084 220.236 113.73C220.014 114.376 219.903 115.112 219.903 115.937C219.903 116.762 220.014 117.497 220.236 118.143C220.463 118.79 220.799 119.301 221.242 119.676C221.691 120.045 222.245 120.23 222.904 120.23ZM221.473 106.99L223.43 102.789H227.068L224.252 106.99H221.473ZM236.356 114.801V123H232.423V108.818H236.172V111.32H236.338C236.652 110.496 237.178 109.843 237.917 109.363C238.655 108.877 239.551 108.634 240.604 108.634C241.588 108.634 242.447 108.849 243.18 109.28C243.912 109.711 244.481 110.326 244.888 111.126C245.294 111.92 245.497 112.868 245.497 113.97V123H241.564V114.672C241.57 113.804 241.348 113.127 240.899 112.641C240.45 112.148 239.831 111.902 239.043 111.902C238.514 111.902 238.046 112.016 237.64 112.244C237.24 112.471 236.926 112.804 236.698 113.241C236.476 113.672 236.363 114.192 236.356 114.801ZM259.84 123.231C258.763 123.231 257.788 122.954 256.914 122.4C256.046 121.84 255.356 121.018 254.845 119.935C254.341 118.845 254.088 117.509 254.088 115.928C254.088 114.303 254.35 112.951 254.873 111.874C255.396 110.791 256.092 109.982 256.96 109.446C257.834 108.904 258.791 108.634 259.831 108.634C260.625 108.634 261.287 108.769 261.816 109.04C262.352 109.304 262.783 109.637 263.109 110.037C263.441 110.431 263.694 110.819 263.866 111.2H263.986V104.091H267.91V123H264.032V120.729H263.866C263.681 121.123 263.42 121.513 263.081 121.901C262.749 122.283 262.315 122.6 261.779 122.852C261.25 123.105 260.604 123.231 259.84 123.231ZM261.087 120.101C261.721 120.101 262.256 119.929 262.693 119.584C263.137 119.233 263.475 118.744 263.709 118.116C263.949 117.488 264.069 116.752 264.069 115.909C264.069 115.066 263.952 114.333 263.718 113.712C263.484 113.09 263.146 112.61 262.703 112.271C262.259 111.933 261.721 111.763 261.087 111.763C260.441 111.763 259.896 111.939 259.453 112.29C259.009 112.641 258.674 113.127 258.446 113.749C258.218 114.37 258.105 115.09 258.105 115.909C258.105 116.734 258.218 117.463 258.446 118.097C258.68 118.725 259.016 119.218 259.453 119.575C259.896 119.925 260.441 120.101 261.087 120.101ZM277.607 123.277C276.148 123.277 274.892 122.982 273.84 122.391C272.793 121.794 271.987 120.95 271.421 119.861C270.855 118.765 270.571 117.469 270.571 115.974C270.571 114.515 270.855 113.235 271.421 112.133C271.987 111.031 272.784 110.172 273.812 109.557C274.846 108.941 276.059 108.634 277.45 108.634C278.386 108.634 279.257 108.784 280.063 109.086C280.875 109.381 281.583 109.828 282.186 110.425C282.796 111.022 283.27 111.773 283.608 112.678C283.947 113.576 284.116 114.629 284.116 115.835V116.915H272.141V114.478H280.414C280.414 113.912 280.291 113.41 280.044 112.973C279.798 112.536 279.457 112.194 279.02 111.948C278.589 111.696 278.087 111.57 277.515 111.57C276.917 111.57 276.388 111.708 275.926 111.985C275.471 112.256 275.114 112.622 274.855 113.084C274.597 113.539 274.465 114.047 274.458 114.607V116.925C274.458 117.626 274.588 118.233 274.846 118.744C275.111 119.254 275.483 119.648 275.963 119.925C276.444 120.202 277.013 120.341 277.672 120.341C278.109 120.341 278.509 120.279 278.872 120.156C279.235 120.033 279.546 119.848 279.804 119.602C280.063 119.356 280.26 119.054 280.395 118.697L284.033 118.938C283.848 119.812 283.47 120.575 282.897 121.227C282.331 121.874 281.599 122.378 280.7 122.741C279.807 123.098 278.776 123.277 277.607 123.277ZM296.634 104.091V123H292.7V104.091H296.634ZM303.828 123.268C302.924 123.268 302.117 123.111 301.409 122.797C300.702 122.477 300.141 122.006 299.729 121.384C299.323 120.756 299.12 119.975 299.12 119.039C299.12 118.251 299.264 117.589 299.554 117.054C299.843 116.518 300.237 116.088 300.735 115.761C301.234 115.435 301.8 115.189 302.434 115.023C303.074 114.857 303.745 114.74 304.447 114.672C305.272 114.586 305.937 114.506 306.441 114.432C306.946 114.352 307.312 114.235 307.54 114.081C307.768 113.927 307.882 113.699 307.882 113.398V113.342C307.882 112.758 307.697 112.305 307.328 111.985C306.965 111.665 306.448 111.505 305.777 111.505C305.069 111.505 304.506 111.662 304.087 111.976C303.668 112.284 303.391 112.671 303.256 113.139L299.618 112.844C299.803 111.982 300.166 111.237 300.708 110.609C301.249 109.975 301.948 109.489 302.804 109.151C303.665 108.806 304.663 108.634 305.795 108.634C306.583 108.634 307.337 108.726 308.057 108.911C308.783 109.095 309.427 109.381 309.987 109.769C310.553 110.157 310.999 110.656 311.326 111.265C311.652 111.868 311.815 112.591 311.815 113.435V123H308.085V121.033H307.974C307.746 121.477 307.442 121.867 307.06 122.206C306.678 122.538 306.22 122.8 305.684 122.991C305.149 123.175 304.53 123.268 303.828 123.268ZM304.955 120.553C305.533 120.553 306.044 120.439 306.488 120.212C306.931 119.978 307.279 119.664 307.531 119.27C307.783 118.876 307.909 118.43 307.909 117.931V116.426C307.786 116.506 307.617 116.58 307.402 116.648C307.192 116.709 306.955 116.768 306.691 116.823C306.426 116.872 306.161 116.919 305.897 116.962C305.632 116.999 305.392 117.032 305.176 117.063C304.715 117.131 304.312 117.239 303.967 117.386C303.622 117.534 303.355 117.734 303.164 117.987C302.973 118.233 302.877 118.54 302.877 118.91C302.877 119.445 303.071 119.855 303.459 120.138C303.853 120.415 304.352 120.553 304.955 120.553ZM326.666 112.862L323.065 113.084C323.004 112.776 322.871 112.499 322.668 112.253C322.465 112 322.197 111.8 321.865 111.653C321.539 111.499 321.148 111.422 320.692 111.422C320.083 111.422 319.569 111.551 319.151 111.81C318.732 112.062 318.523 112.401 318.523 112.825C318.523 113.164 318.658 113.45 318.929 113.684C319.2 113.918 319.665 114.106 320.323 114.247L322.89 114.764C324.269 115.047 325.297 115.503 325.974 116.131C326.651 116.759 326.989 117.583 326.989 118.605C326.989 119.535 326.715 120.35 326.168 121.052C325.626 121.754 324.881 122.301 323.933 122.695C322.991 123.083 321.905 123.277 320.674 123.277C318.797 123.277 317.301 122.886 316.187 122.104C315.079 121.317 314.429 120.246 314.239 118.891L318.107 118.688C318.224 119.261 318.507 119.698 318.957 119.999C319.406 120.295 319.982 120.442 320.683 120.442C321.373 120.442 321.927 120.31 322.345 120.045C322.77 119.775 322.985 119.427 322.991 119.002C322.985 118.645 322.835 118.353 322.539 118.125C322.244 117.891 321.788 117.713 321.173 117.589L318.717 117.1C317.332 116.823 316.301 116.343 315.624 115.66C314.953 114.977 314.617 114.106 314.617 113.047C314.617 112.136 314.863 111.351 315.356 110.692C315.854 110.034 316.553 109.526 317.452 109.169C318.357 108.812 319.415 108.634 320.628 108.634C322.419 108.634 323.829 109.012 324.857 109.769C325.891 110.526 326.494 111.557 326.666 112.862ZM339.417 114.801V123H335.484V108.818H339.232V111.32H339.398C339.712 110.496 340.239 109.843 340.977 109.363C341.716 108.877 342.612 108.634 343.664 108.634C344.649 108.634 345.508 108.849 346.24 109.28C346.973 109.711 347.542 110.326 347.948 111.126C348.354 111.92 348.558 112.868 348.558 113.97V123H344.624V114.672C344.63 113.804 344.409 113.127 343.96 112.641C343.51 112.148 342.892 111.902 342.104 111.902C341.574 111.902 341.107 112.016 340.7 112.244C340.3 112.471 339.986 112.804 339.759 113.241C339.537 113.672 339.423 114.192 339.417 114.801ZM358.065 123.277C356.631 123.277 355.391 122.972 354.344 122.363C353.304 121.747 352.501 120.892 351.934 119.796C351.368 118.694 351.085 117.417 351.085 115.964C351.085 114.5 351.368 113.219 351.934 112.124C352.501 111.022 353.304 110.166 354.344 109.557C355.391 108.941 356.631 108.634 358.065 108.634C359.499 108.634 360.737 108.941 361.777 109.557C362.823 110.166 363.63 111.022 364.196 112.124C364.762 113.219 365.045 114.5 365.045 115.964C365.045 117.417 364.762 118.694 364.196 119.796C363.63 120.892 362.823 121.747 361.777 122.363C360.737 122.972 359.499 123.277 358.065 123.277ZM358.084 120.23C358.736 120.23 359.281 120.045 359.718 119.676C360.155 119.301 360.484 118.79 360.706 118.143C360.934 117.497 361.047 116.762 361.047 115.937C361.047 115.112 360.934 114.376 360.706 113.73C360.484 113.084 360.155 112.573 359.718 112.197C359.281 111.822 358.736 111.634 358.084 111.634C357.425 111.634 356.871 111.822 356.422 112.197C355.979 112.573 355.643 113.084 355.415 113.73C355.194 114.376 355.083 115.112 355.083 115.937C355.083 116.762 355.194 117.497 355.415 118.143C355.643 118.79 355.979 119.301 356.422 119.676C356.871 120.045 357.425 120.23 358.084 120.23ZM375.146 108.818V111.773H366.606V108.818H375.146ZM368.545 105.42H372.478V118.642C372.478 119.005 372.533 119.288 372.644 119.491C372.755 119.688 372.909 119.827 373.106 119.907C373.309 119.987 373.543 120.027 373.807 120.027C373.992 120.027 374.177 120.012 374.361 119.981C374.546 119.944 374.688 119.916 374.786 119.898L375.405 122.825C375.208 122.886 374.931 122.957 374.574 123.037C374.217 123.123 373.783 123.175 373.272 123.194C372.324 123.231 371.493 123.105 370.779 122.815C370.071 122.526 369.52 122.077 369.126 121.467C368.732 120.858 368.538 120.089 368.545 119.159V105.42ZM381.752 123.268C380.847 123.268 380.041 123.111 379.333 122.797C378.625 122.477 378.065 122.006 377.653 121.384C377.247 120.756 377.044 119.975 377.044 119.039C377.044 118.251 377.188 117.589 377.477 117.054C377.767 116.518 378.161 116.088 378.659 115.761C379.158 115.435 379.724 115.189 380.358 115.023C380.998 114.857 381.669 114.74 382.371 114.672C383.196 114.586 383.86 114.506 384.365 114.432C384.87 114.352 385.236 114.235 385.464 114.081C385.692 113.927 385.806 113.699 385.806 113.398V113.342C385.806 112.758 385.621 112.305 385.252 111.985C384.888 111.665 384.371 111.505 383.7 111.505C382.993 111.505 382.429 111.662 382.011 111.976C381.592 112.284 381.315 112.671 381.18 113.139L377.542 112.844C377.727 111.982 378.09 111.237 378.632 110.609C379.173 109.975 379.872 109.489 380.727 109.151C381.589 108.806 382.586 108.634 383.719 108.634C384.507 108.634 385.261 108.726 385.981 108.911C386.707 109.095 387.351 109.381 387.911 109.769C388.477 110.157 388.923 110.656 389.249 111.265C389.576 111.868 389.739 112.591 389.739 113.435V123H386.009V121.033H385.898C385.67 121.477 385.365 121.867 384.984 122.206C384.602 122.538 384.144 122.8 383.608 122.991C383.073 123.175 382.454 123.268 381.752 123.268ZM382.879 120.553C383.457 120.553 383.968 120.439 384.411 120.212C384.855 119.978 385.202 119.664 385.455 119.27C385.707 118.876 385.833 118.43 385.833 117.931V116.426C385.71 116.506 385.541 116.58 385.325 116.648C385.116 116.709 384.879 116.768 384.615 116.823C384.35 116.872 384.085 116.919 383.82 116.962C383.556 116.999 383.316 117.032 383.1 117.063C382.639 117.131 382.235 117.239 381.891 117.386C381.546 117.534 381.278 117.734 381.088 117.987C380.897 118.233 380.801 118.54 380.801 118.91C380.801 119.445 380.995 119.855 381.383 120.138C381.777 120.415 382.276 120.553 382.879 120.553ZM404.59 112.862L400.989 113.084C400.928 112.776 400.795 112.499 400.592 112.253C400.389 112 400.121 111.8 399.789 111.653C399.463 111.499 399.072 111.422 398.616 111.422C398.007 111.422 397.493 111.551 397.074 111.81C396.656 112.062 396.447 112.401 396.447 112.825C396.447 113.164 396.582 113.45 396.853 113.684C397.124 113.918 397.588 114.106 398.247 114.247L400.814 114.764C402.193 115.047 403.22 115.503 403.898 116.131C404.575 116.759 404.913 117.583 404.913 118.605C404.913 119.535 404.639 120.35 404.091 121.052C403.55 121.754 402.805 122.301 401.857 122.695C400.915 123.083 399.829 123.277 398.598 123.277C396.72 123.277 395.225 122.886 394.111 122.104C393.003 121.317 392.353 120.246 392.162 118.891L396.031 118.688C396.148 119.261 396.431 119.698 396.881 119.999C397.33 120.295 397.905 120.442 398.607 120.442C399.296 120.442 399.85 120.31 400.269 120.045C400.694 119.775 400.909 119.427 400.915 119.002C400.909 118.645 400.758 118.353 400.463 118.125C400.167 117.891 399.712 117.713 399.096 117.589L396.64 117.1C395.256 116.823 394.224 116.343 393.547 115.66C392.876 114.977 392.541 114.106 392.541 113.047C392.541 112.136 392.787 111.351 393.28 110.692C393.778 110.034 394.477 109.526 395.376 109.169C396.28 108.812 397.339 108.634 398.552 108.634C400.343 108.634 401.752 109.012 402.78 109.769C403.814 110.526 404.418 111.557 404.59 112.862ZM409.689 123.24C409.08 123.24 408.556 123.025 408.119 122.594C407.688 122.157 407.473 121.634 407.473 121.024C407.473 120.421 407.688 119.904 408.119 119.473C408.556 119.042 409.08 118.827 409.689 118.827C410.28 118.827 410.797 119.042 411.24 119.473C411.683 119.904 411.905 120.421 411.905 121.024C411.905 121.43 411.8 121.803 411.591 122.141C411.388 122.474 411.12 122.741 410.788 122.945C410.455 123.142 410.089 123.24 409.689 123.24ZM409.689 113.305C409.08 113.305 408.556 113.09 408.119 112.659C407.688 112.228 407.473 111.705 407.473 111.089C407.473 110.486 407.688 109.972 408.119 109.548C408.556 109.117 409.08 108.901 409.689 108.901C410.28 108.901 410.797 109.117 411.24 109.548C411.683 109.972 411.905 110.486 411.905 111.089C411.905 111.502 411.8 111.877 411.591 112.216C411.388 112.548 411.12 112.813 410.788 113.01C410.455 113.207 410.089 113.305 409.689 113.305ZM102.159 169H100.045C99.9205 168.392 99.7017 167.858 99.3892 167.398C99.0824 166.938 98.7074 166.551 98.2642 166.239C97.8267 165.92 97.3409 165.682 96.8068 165.523C96.2727 165.364 95.7159 165.284 95.1364 165.284C94.0795 165.284 93.1222 165.551 92.2642 166.085C91.4119 166.619 90.733 167.406 90.2273 168.446C89.7273 169.486 89.4773 170.761 89.4773 172.273C89.4773 173.784 89.7273 175.06 90.2273 176.099C90.733 177.139 91.4119 177.926 92.2642 178.46C93.1222 178.994 94.0795 179.261 95.1364 179.261C95.7159 179.261 96.2727 179.182 96.8068 179.023C97.3409 178.864 97.8267 178.628 98.2642 178.315C98.7074 177.997 99.0824 177.608 99.3892 177.148C99.7017 176.682 99.9205 176.148 100.045 175.545H102.159C102 176.437 101.71 177.236 101.29 177.94C100.869 178.645 100.347 179.244 99.7216 179.739C99.0966 180.227 98.3949 180.599 97.6165 180.855C96.8438 181.111 96.017 181.239 95.1364 181.239C93.6477 181.239 92.3239 180.875 91.1648 180.148C90.0057 179.42 89.0938 178.386 88.429 177.045C87.7642 175.705 87.4318 174.114 87.4318 172.273C87.4318 170.432 87.7642 168.841 88.429 167.5C89.0938 166.159 90.0057 165.125 91.1648 164.398C92.3239 163.67 93.6477 163.307 95.1364 163.307C96.017 163.307 96.8438 163.435 97.6165 163.69C98.3949 163.946 99.0966 164.321 99.7216 164.815C100.347 165.304 100.869 165.901 101.29 166.605C101.71 167.304 102 168.102 102.159 169ZM109.154 181.307C108.325 181.307 107.572 181.151 106.896 180.838C106.219 180.52 105.683 180.062 105.285 179.466C104.887 178.864 104.688 178.136 104.688 177.284C104.688 176.534 104.836 175.926 105.131 175.46C105.427 174.989 105.822 174.619 106.316 174.352C106.81 174.085 107.356 173.886 107.952 173.756C108.555 173.619 109.16 173.511 109.768 173.432C110.563 173.33 111.208 173.253 111.702 173.202C112.202 173.145 112.566 173.051 112.793 172.92C113.026 172.79 113.143 172.562 113.143 172.239V172.17C113.143 171.33 112.913 170.676 112.452 170.21C111.998 169.744 111.308 169.511 110.381 169.511C109.421 169.511 108.668 169.722 108.123 170.142C107.577 170.562 107.194 171.011 106.972 171.489L105.063 170.807C105.404 170.011 105.859 169.392 106.427 168.949C107.001 168.5 107.626 168.187 108.302 168.011C108.984 167.83 109.654 167.739 110.313 167.739C110.734 167.739 111.217 167.79 111.762 167.892C112.313 167.989 112.844 168.19 113.356 168.497C113.873 168.804 114.302 169.267 114.643 169.886C114.984 170.506 115.154 171.335 115.154 172.375V181H113.143V179.227H113.04C112.904 179.511 112.677 179.815 112.359 180.139C112.04 180.463 111.617 180.739 111.089 180.966C110.56 181.193 109.915 181.307 109.154 181.307ZM109.461 179.5C110.256 179.5 110.927 179.344 111.472 179.031C112.023 178.719 112.438 178.315 112.717 177.821C113.001 177.327 113.143 176.807 113.143 176.261V174.42C113.058 174.523 112.87 174.616 112.58 174.702C112.296 174.781 111.967 174.852 111.592 174.915C111.222 174.972 110.862 175.023 110.509 175.068C110.163 175.108 109.881 175.142 109.665 175.17C109.143 175.239 108.654 175.349 108.2 175.503C107.751 175.651 107.387 175.875 107.109 176.176C106.836 176.472 106.7 176.875 106.7 177.386C106.7 178.085 106.958 178.614 107.475 178.972C107.998 179.324 108.66 179.5 109.461 179.5ZM120.837 173.125V181H118.825V167.909H120.768V169.955H120.939C121.246 169.29 121.712 168.756 122.337 168.352C122.962 167.943 123.768 167.739 124.757 167.739C125.643 167.739 126.419 167.92 127.084 168.284C127.749 168.642 128.266 169.188 128.635 169.92C129.004 170.648 129.189 171.568 129.189 172.682V181H127.178V172.818C127.178 171.79 126.911 170.989 126.376 170.415C125.842 169.835 125.109 169.545 124.178 169.545C123.536 169.545 122.962 169.685 122.456 169.963C121.956 170.241 121.561 170.648 121.271 171.182C120.982 171.716 120.837 172.364 120.837 173.125ZM138.183 181.273C136.955 181.273 135.898 180.983 135.012 180.403C134.126 179.824 133.444 179.026 132.967 178.009C132.489 176.991 132.251 175.83 132.251 174.523C132.251 173.193 132.495 172.02 132.984 171.003C133.478 169.98 134.165 169.182 135.046 168.608C135.933 168.028 136.967 167.739 138.148 167.739C139.069 167.739 139.898 167.909 140.637 168.25C141.376 168.591 141.981 169.068 142.452 169.682C142.924 170.295 143.217 171.011 143.33 171.83H141.319C141.165 171.233 140.825 170.705 140.296 170.244C139.773 169.778 139.069 169.545 138.183 169.545C137.398 169.545 136.711 169.75 136.12 170.159C135.535 170.562 135.077 171.134 134.748 171.872C134.424 172.605 134.262 173.466 134.262 174.455C134.262 175.466 134.421 176.347 134.739 177.097C135.063 177.847 135.518 178.429 136.103 178.844C136.694 179.259 137.387 179.466 138.183 179.466C138.705 179.466 139.18 179.375 139.606 179.193C140.032 179.011 140.393 178.75 140.688 178.409C140.984 178.068 141.194 177.659 141.319 177.182H143.33C143.217 177.955 142.935 178.651 142.487 179.27C142.043 179.884 141.455 180.372 140.722 180.736C139.995 181.094 139.148 181.273 138.183 181.273ZM146.271 181V167.909H148.282V181H146.271ZM147.293 165.727C146.901 165.727 146.563 165.594 146.279 165.327C146.001 165.06 145.862 164.739 145.862 164.364C145.862 163.989 146.001 163.668 146.279 163.401C146.563 163.134 146.901 163 147.293 163C147.685 163 148.021 163.134 148.299 163.401C148.583 163.668 148.725 163.989 148.725 164.364C148.725 164.739 148.583 165.06 148.299 165.327C148.021 165.594 147.685 165.727 147.293 165.727ZM157.284 181.273C156.102 181.273 155.065 180.991 154.173 180.429C153.287 179.866 152.594 179.08 152.094 178.068C151.599 177.057 151.352 175.875 151.352 174.523C151.352 173.159 151.599 171.969 152.094 170.952C152.594 169.935 153.287 169.145 154.173 168.582C155.065 168.02 156.102 167.739 157.284 167.739C158.466 167.739 159.5 168.02 160.386 168.582C161.278 169.145 161.972 169.935 162.466 170.952C162.966 171.969 163.216 173.159 163.216 174.523C163.216 175.875 162.966 177.057 162.466 178.068C161.972 179.08 161.278 179.866 160.386 180.429C159.5 180.991 158.466 181.273 157.284 181.273ZM157.284 179.466C158.182 179.466 158.92 179.236 159.5 178.776C160.08 178.315 160.509 177.71 160.787 176.96C161.065 176.21 161.205 175.398 161.205 174.523C161.205 173.648 161.065 172.832 160.787 172.077C160.509 171.321 160.08 170.71 159.5 170.244C158.92 169.778 158.182 169.545 157.284 169.545C156.386 169.545 155.648 169.778 155.068 170.244C154.489 170.71 154.06 171.321 153.781 172.077C153.503 172.832 153.364 173.648 153.364 174.523C153.364 175.398 153.503 176.21 153.781 176.96C154.06 177.71 154.489 178.315 155.068 178.776C155.648 179.236 156.386 179.466 157.284 179.466ZM156.364 166.136L158.443 162.182H160.795L158.136 166.136H156.364ZM168.298 173.125V181H166.286V167.909H168.229V169.955H168.4C168.707 169.29 169.173 168.756 169.798 168.352C170.423 167.943 171.229 167.739 172.218 167.739C173.104 167.739 173.88 167.92 174.545 168.284C175.21 168.642 175.727 169.188 176.096 169.92C176.465 170.648 176.65 171.568 176.65 172.682V181H174.638V172.818C174.638 171.79 174.371 170.989 173.837 170.415C173.303 169.835 172.57 169.545 171.638 169.545C170.996 169.545 170.423 169.685 169.917 169.963C169.417 170.241 169.022 170.648 168.732 171.182C168.442 171.716 168.298 172.364 168.298 173.125ZM181.791 181.136C181.371 181.136 181.01 180.986 180.709 180.685C180.408 180.384 180.257 180.023 180.257 179.602C180.257 179.182 180.408 178.821 180.709 178.52C181.01 178.219 181.371 178.068 181.791 178.068C182.212 178.068 182.572 178.219 182.874 178.52C183.175 178.821 183.325 179.182 183.325 179.602C183.325 179.881 183.254 180.136 183.112 180.369C182.976 180.602 182.791 180.79 182.558 180.932C182.331 181.068 182.075 181.136 181.791 181.136ZM181.791 171.42C181.371 171.42 181.01 171.27 180.709 170.969C180.408 170.668 180.257 170.307 180.257 169.886C180.257 169.466 180.408 169.105 180.709 168.804C181.01 168.503 181.371 168.352 181.791 168.352C182.212 168.352 182.572 168.503 182.874 168.804C183.175 169.105 183.325 169.466 183.325 169.886C183.325 170.165 183.254 170.42 183.112 170.653C182.976 170.886 182.791 171.074 182.558 171.216C182.331 171.352 182.075 171.42 181.791 171.42ZM199.548 181.239C198.423 181.239 197.42 181.045 196.54 180.659C195.665 180.273 194.969 179.736 194.452 179.048C193.94 178.355 193.662 177.551 193.616 176.636H195.764C195.81 177.199 196.003 177.685 196.344 178.094C196.685 178.497 197.131 178.81 197.682 179.031C198.233 179.253 198.844 179.364 199.514 179.364C200.264 179.364 200.929 179.233 201.509 178.972C202.088 178.71 202.543 178.347 202.872 177.881C203.202 177.415 203.366 176.875 203.366 176.261C203.366 175.619 203.207 175.054 202.889 174.565C202.571 174.071 202.105 173.685 201.491 173.406C200.878 173.128 200.128 172.989 199.241 172.989H197.844V171.114H199.241C199.935 171.114 200.543 170.989 201.065 170.739C201.594 170.489 202.006 170.136 202.301 169.682C202.602 169.227 202.753 168.693 202.753 168.08C202.753 167.489 202.622 166.974 202.361 166.537C202.099 166.099 201.73 165.759 201.253 165.514C200.781 165.27 200.224 165.148 199.582 165.148C198.98 165.148 198.412 165.259 197.878 165.48C197.349 165.696 196.918 166.011 196.582 166.426C196.247 166.835 196.065 167.33 196.037 167.909H193.991C194.026 166.994 194.301 166.193 194.818 165.506C195.335 164.812 196.011 164.273 196.847 163.886C197.688 163.5 198.611 163.307 199.616 163.307C200.696 163.307 201.622 163.526 202.395 163.963C203.168 164.395 203.761 164.966 204.176 165.676C204.591 166.386 204.798 167.153 204.798 167.977C204.798 168.96 204.54 169.798 204.023 170.491C203.511 171.185 202.815 171.665 201.935 171.932V172.068C203.037 172.25 203.898 172.719 204.517 173.474C205.136 174.224 205.446 175.153 205.446 176.261C205.446 177.21 205.188 178.062 204.67 178.818C204.159 179.568 203.46 180.159 202.574 180.591C201.688 181.023 200.679 181.239 199.548 181.239ZM214.625 181.239C213.341 181.239 212.247 180.889 211.344 180.19C210.44 179.486 209.75 178.466 209.273 177.131C208.795 175.79 208.557 174.17 208.557 172.273C208.557 170.386 208.795 168.776 209.273 167.44C209.756 166.099 210.449 165.077 211.352 164.372C212.261 163.662 213.352 163.307 214.625 163.307C215.898 163.307 216.986 163.662 217.889 164.372C218.798 165.077 219.491 166.099 219.969 167.44C220.452 168.776 220.693 170.386 220.693 172.273C220.693 174.17 220.455 175.79 219.977 177.131C219.5 178.466 218.81 179.486 217.906 180.19C217.003 180.889 215.909 181.239 214.625 181.239ZM214.625 179.364C215.898 179.364 216.886 178.75 217.591 177.523C218.295 176.295 218.648 174.545 218.648 172.273C218.648 170.761 218.486 169.474 218.162 168.412C217.844 167.349 217.384 166.54 216.781 165.983C216.185 165.426 215.466 165.148 214.625 165.148C213.364 165.148 212.378 165.77 211.668 167.014C210.957 168.253 210.602 170.006 210.602 172.273C210.602 173.784 210.761 175.068 211.08 176.125C211.398 177.182 211.855 177.986 212.452 178.537C213.054 179.088 213.778 179.364 214.625 179.364ZM229.625 181.239C228.341 181.239 227.247 180.889 226.344 180.19C225.44 179.486 224.75 178.466 224.273 177.131C223.795 175.79 223.557 174.17 223.557 172.273C223.557 170.386 223.795 168.776 224.273 167.44C224.756 166.099 225.449 165.077 226.352 164.372C227.261 163.662 228.352 163.307 229.625 163.307C230.898 163.307 231.986 163.662 232.889 164.372C233.798 165.077 234.491 166.099 234.969 167.44C235.452 168.776 235.693 170.386 235.693 172.273C235.693 174.17 235.455 175.79 234.977 177.131C234.5 178.466 233.81 179.486 232.906 180.19C232.003 180.889 230.909 181.239 229.625 181.239ZM229.625 179.364C230.898 179.364 231.886 178.75 232.591 177.523C233.295 176.295 233.648 174.545 233.648 172.273C233.648 170.761 233.486 169.474 233.162 168.412C232.844 167.349 232.384 166.54 231.781 165.983C231.185 165.426 230.466 165.148 229.625 165.148C228.364 165.148 227.378 165.77 226.668 167.014C225.957 168.253 225.602 170.006 225.602 172.273C225.602 173.784 225.761 175.068 226.08 176.125C226.398 177.182 226.855 177.986 227.452 178.537C228.054 179.088 228.778 179.364 229.625 179.364ZM244.386 181.239C243.386 181.239 242.486 181.04 241.685 180.642C240.884 180.244 240.241 179.699 239.759 179.006C239.276 178.312 239.011 177.523 238.966 176.636H241.011C241.091 177.426 241.449 178.08 242.085 178.597C242.727 179.108 243.494 179.364 244.386 179.364C245.102 179.364 245.739 179.196 246.295 178.861C246.858 178.526 247.298 178.065 247.616 177.48C247.94 176.889 248.102 176.222 248.102 175.477C248.102 174.716 247.935 174.037 247.599 173.44C247.27 172.838 246.815 172.364 246.236 172.017C245.656 171.67 244.994 171.494 244.25 171.489C243.716 171.483 243.168 171.565 242.605 171.736C242.043 171.901 241.58 172.114 241.216 172.375L239.239 172.136L240.295 163.545H249.364V165.42H242.068L241.455 170.568H241.557C241.915 170.284 242.364 170.048 242.903 169.861C243.443 169.673 244.006 169.58 244.591 169.58C245.659 169.58 246.611 169.835 247.446 170.347C248.287 170.852 248.946 171.545 249.423 172.426C249.906 173.307 250.148 174.312 250.148 175.443C250.148 176.557 249.898 177.551 249.398 178.426C248.903 179.295 248.222 179.983 247.352 180.489C246.483 180.989 245.494 181.239 244.386 181.239ZM93.5 239H88.1136V221.545H93.7386C95.4318 221.545 96.8807 221.895 98.0852 222.594C99.2898 223.287 100.213 224.284 100.855 225.585C101.497 226.881 101.818 228.432 101.818 230.239C101.818 232.057 101.494 233.622 100.847 234.935C100.199 236.241 99.2557 237.247 98.017 237.952C96.7784 238.651 95.2727 239 93.5 239ZM90.2273 237.125H93.3636C94.8068 237.125 96.0028 236.847 96.9517 236.29C97.9006 235.733 98.608 234.94 99.0739 233.912C99.5398 232.884 99.7727 231.659 99.7727 230.239C99.7727 228.83 99.5426 227.616 99.0824 226.599C98.6222 225.577 97.9347 224.793 97.0199 224.247C96.1051 223.696 94.9659 223.42 93.6023 223.42H90.2273V237.125ZM110.58 239.273C109.318 239.273 108.23 238.994 107.315 238.438C106.406 237.875 105.705 237.091 105.21 236.085C104.722 235.074 104.477 233.898 104.477 232.557C104.477 231.216 104.722 230.034 105.21 229.011C105.705 227.983 106.392 227.182 107.273 226.608C108.159 226.028 109.193 225.739 110.375 225.739C111.057 225.739 111.73 225.852 112.395 226.08C113.06 226.307 113.665 226.676 114.21 227.188C114.756 227.693 115.19 228.364 115.514 229.199C115.838 230.034 116 231.062 116 232.284V233.136H105.909V231.398H113.955C113.955 230.659 113.807 230 113.511 229.42C113.222 228.841 112.807 228.384 112.267 228.048C111.733 227.713 111.102 227.545 110.375 227.545C109.574 227.545 108.881 227.744 108.295 228.142C107.716 228.534 107.27 229.045 106.957 229.676C106.645 230.307 106.489 230.983 106.489 231.705V232.864C106.489 233.852 106.659 234.69 107 235.378C107.347 236.06 107.827 236.58 108.44 236.938C109.054 237.29 109.767 237.466 110.58 237.466C111.108 237.466 111.585 237.392 112.011 237.244C112.443 237.091 112.815 236.864 113.128 236.562C113.44 236.256 113.682 235.875 113.852 235.42L115.795 235.966C115.591 236.625 115.247 237.205 114.764 237.705C114.281 238.199 113.685 238.585 112.974 238.864C112.264 239.136 111.466 239.273 110.58 239.273ZM124.889 225.909V227.614H117.832V225.909H124.889ZM119.946 239V224.102C119.946 223.352 120.122 222.727 120.474 222.227C120.827 221.727 121.284 221.352 121.847 221.102C122.409 220.852 123.003 220.727 123.628 220.727C124.122 220.727 124.526 220.767 124.838 220.847C125.151 220.926 125.384 221 125.537 221.068L124.957 222.807C124.855 222.773 124.713 222.73 124.531 222.679C124.355 222.628 124.122 222.602 123.832 222.602C123.168 222.602 122.688 222.77 122.392 223.105C122.102 223.44 121.957 223.932 121.957 224.58V239H119.946ZM127.708 239V225.909H129.719V239H127.708ZM128.731 223.727C128.339 223.727 128.001 223.594 127.717 223.327C127.438 223.06 127.299 222.739 127.299 222.364C127.299 221.989 127.438 221.668 127.717 221.401C128.001 221.134 128.339 221 128.731 221C129.123 221 129.458 221.134 129.737 221.401C130.021 221.668 130.163 221.989 130.163 222.364C130.163 222.739 130.021 223.06 129.737 223.327C129.458 223.594 129.123 223.727 128.731 223.727ZM135.415 231.125V239H133.403V225.909H135.347V227.955H135.517C135.824 227.29 136.29 226.756 136.915 226.352C137.54 225.943 138.347 225.739 139.335 225.739C140.222 225.739 140.997 225.92 141.662 226.284C142.327 226.642 142.844 227.188 143.213 227.92C143.582 228.648 143.767 229.568 143.767 230.682V239H141.756V230.818C141.756 229.79 141.489 228.989 140.955 228.415C140.42 227.835 139.688 227.545 138.756 227.545C138.114 227.545 137.54 227.685 137.034 227.963C136.534 228.241 136.139 228.648 135.849 229.182C135.56 229.716 135.415 230.364 135.415 231.125ZM147.442 239V225.909H149.454V239H147.442ZM148.465 223.727C148.073 223.727 147.735 223.594 147.451 223.327C147.173 223.06 147.033 222.739 147.033 222.364C147.033 221.989 147.173 221.668 147.451 221.401C147.735 221.134 148.073 221 148.465 221C148.857 221 149.192 221.134 149.471 221.401C149.755 221.668 149.897 221.989 149.897 222.364C149.897 222.739 149.755 223.06 149.471 223.327C149.192 223.594 148.857 223.727 148.465 223.727ZM153.138 239V225.909H155.081V227.955H155.251C155.524 227.256 155.964 226.713 156.572 226.327C157.18 225.935 157.911 225.739 158.763 225.739C159.626 225.739 160.345 225.935 160.919 226.327C161.499 226.713 161.95 227.256 162.274 227.955H162.411C162.746 227.278 163.249 226.741 163.919 226.344C164.589 225.94 165.393 225.739 166.331 225.739C167.501 225.739 168.459 226.105 169.203 226.838C169.947 227.565 170.32 228.699 170.32 230.239V239H168.308V230.239C168.308 229.273 168.044 228.582 167.516 228.168C166.987 227.753 166.365 227.545 165.649 227.545C164.729 227.545 164.016 227.824 163.51 228.381C163.004 228.932 162.751 229.631 162.751 230.477V239H160.706V230.034C160.706 229.29 160.464 228.69 159.982 228.236C159.499 227.776 158.876 227.545 158.115 227.545C157.592 227.545 157.104 227.685 156.649 227.963C156.2 228.241 155.837 228.628 155.558 229.122C155.286 229.611 155.149 230.176 155.149 230.818V239H153.138ZM179.315 239.273C178.134 239.273 177.097 238.991 176.205 238.429C175.318 237.866 174.625 237.08 174.125 236.068C173.631 235.057 173.384 233.875 173.384 232.523C173.384 231.159 173.631 229.969 174.125 228.952C174.625 227.935 175.318 227.145 176.205 226.582C177.097 226.02 178.134 225.739 179.315 225.739C180.497 225.739 181.531 226.02 182.418 226.582C183.31 227.145 184.003 227.935 184.497 228.952C184.997 229.969 185.247 231.159 185.247 232.523C185.247 233.875 184.997 235.057 184.497 236.068C184.003 237.08 183.31 237.866 182.418 238.429C181.531 238.991 180.497 239.273 179.315 239.273ZM179.315 237.466C180.213 237.466 180.952 237.236 181.531 236.776C182.111 236.315 182.54 235.71 182.818 234.96C183.097 234.21 183.236 233.398 183.236 232.523C183.236 231.648 183.097 230.832 182.818 230.077C182.54 229.321 182.111 228.71 181.531 228.244C180.952 227.778 180.213 227.545 179.315 227.545C178.418 227.545 177.679 227.778 177.099 228.244C176.52 228.71 176.091 229.321 175.812 230.077C175.534 230.832 175.395 231.648 175.395 232.523C175.395 233.398 175.534 234.21 175.812 234.96C176.091 235.71 176.52 236.315 177.099 236.776C177.679 237.236 178.418 237.466 179.315 237.466ZM197.59 228.841L195.783 229.352C195.67 229.051 195.502 228.759 195.281 228.474C195.065 228.185 194.769 227.946 194.394 227.759C194.019 227.571 193.539 227.477 192.954 227.477C192.153 227.477 191.485 227.662 190.951 228.031C190.423 228.395 190.158 228.858 190.158 229.42C190.158 229.92 190.34 230.315 190.704 230.605C191.067 230.895 191.636 231.136 192.408 231.33L194.352 231.807C195.522 232.091 196.394 232.526 196.968 233.111C197.542 233.69 197.829 234.437 197.829 235.352C197.829 236.102 197.613 236.773 197.181 237.364C196.755 237.955 196.158 238.42 195.391 238.761C194.624 239.102 193.732 239.273 192.715 239.273C191.38 239.273 190.275 238.983 189.4 238.403C188.525 237.824 187.971 236.977 187.738 235.864L189.647 235.386C189.829 236.091 190.173 236.619 190.678 236.972C191.19 237.324 191.857 237.5 192.681 237.5C193.619 237.5 194.363 237.301 194.914 236.903C195.471 236.5 195.749 236.017 195.749 235.455C195.749 235 195.59 234.619 195.272 234.312C194.954 234 194.465 233.767 193.806 233.614L191.624 233.102C190.425 232.818 189.545 232.378 188.982 231.781C188.425 231.179 188.147 230.426 188.147 229.523C188.147 228.784 188.354 228.131 188.769 227.562C189.19 226.994 189.761 226.548 190.482 226.224C191.21 225.901 192.033 225.739 192.954 225.739C194.249 225.739 195.266 226.023 196.005 226.591C196.749 227.159 197.278 227.909 197.59 228.841ZM213.095 239.273C211.834 239.273 210.746 238.994 209.831 238.438C208.922 237.875 208.22 237.091 207.726 236.085C207.237 235.074 206.993 233.898 206.993 232.557C206.993 231.216 207.237 230.034 207.726 229.011C208.22 227.983 208.908 227.182 209.788 226.608C210.675 226.028 211.709 225.739 212.891 225.739C213.572 225.739 214.246 225.852 214.911 226.08C215.575 226.307 216.18 226.676 216.726 227.188C217.271 227.693 217.706 228.364 218.03 229.199C218.354 230.034 218.516 231.062 218.516 232.284V233.136H208.425V231.398H216.47C216.47 230.659 216.322 230 216.027 229.42C215.737 228.841 215.322 228.384 214.783 228.048C214.249 227.713 213.618 227.545 212.891 227.545C212.089 227.545 211.396 227.744 210.811 228.142C210.232 228.534 209.786 229.045 209.473 229.676C209.161 230.307 209.004 230.983 209.004 231.705V232.864C209.004 233.852 209.175 234.69 209.516 235.378C209.862 236.06 210.342 236.58 210.956 236.938C211.57 237.29 212.283 237.466 213.095 237.466C213.624 237.466 214.101 237.392 214.527 237.244C214.959 237.091 215.331 236.864 215.643 236.562C215.956 236.256 216.197 235.875 216.368 235.42L218.311 235.966C218.107 236.625 217.763 237.205 217.28 237.705C216.797 238.199 216.2 238.585 215.49 238.864C214.78 239.136 213.982 239.273 213.095 239.273ZM223.587 221.545V239H221.575V221.545H223.587ZM239.543 239.256C238.202 239.256 237.049 238.972 236.083 238.403C235.123 237.83 234.384 237.034 233.867 236.017C233.356 235 233.1 233.83 233.1 232.506C233.1 231.165 233.359 229.989 233.876 228.977C234.398 227.96 235.14 227.168 236.1 226.599C237.06 226.026 238.202 225.739 239.526 225.739C240.668 225.739 241.668 225.946 242.526 226.361C243.384 226.776 244.063 227.358 244.563 228.108C245.063 228.858 245.339 229.739 245.39 230.75H241.964C241.867 230.097 241.612 229.571 241.197 229.173C240.788 228.77 240.251 228.568 239.586 228.568C239.023 228.568 238.532 228.722 238.112 229.028C237.697 229.33 237.373 229.77 237.14 230.349C236.907 230.929 236.79 231.631 236.79 232.455C236.79 233.29 236.904 234 237.131 234.585C237.364 235.17 237.691 235.616 238.112 235.923C238.532 236.23 239.023 236.384 239.586 236.384C240.001 236.384 240.373 236.298 240.702 236.128C241.038 235.957 241.313 235.71 241.529 235.386C241.751 235.057 241.896 234.662 241.964 234.202H245.39C245.333 235.202 245.06 236.082 244.572 236.844C244.089 237.599 243.421 238.19 242.569 238.616C241.717 239.043 240.708 239.256 239.543 239.256ZM253.629 239.256C252.305 239.256 251.161 238.974 250.195 238.412C249.234 237.844 248.493 237.054 247.97 236.043C247.447 235.026 247.186 233.847 247.186 232.506C247.186 231.153 247.447 229.972 247.97 228.96C248.493 227.943 249.234 227.153 250.195 226.591C251.161 226.023 252.305 225.739 253.629 225.739C254.953 225.739 256.095 226.023 257.055 226.591C258.021 227.153 258.766 227.943 259.288 228.96C259.811 229.972 260.072 231.153 260.072 232.506C260.072 233.847 259.811 235.026 259.288 236.043C258.766 237.054 258.021 237.844 257.055 238.412C256.095 238.974 254.953 239.256 253.629 239.256ZM253.646 236.443C254.249 236.443 254.751 236.273 255.155 235.932C255.558 235.585 255.862 235.114 256.067 234.517C256.277 233.92 256.382 233.241 256.382 232.48C256.382 231.719 256.277 231.04 256.067 230.443C255.862 229.847 255.558 229.375 255.155 229.028C254.751 228.682 254.249 228.509 253.646 228.509C253.038 228.509 252.527 228.682 252.112 229.028C251.703 229.375 251.393 229.847 251.183 230.443C250.979 231.04 250.876 231.719 250.876 232.48C250.876 233.241 250.979 233.92 251.183 234.517C251.393 235.114 251.703 235.585 252.112 235.932C252.527 236.273 253.038 236.443 253.646 236.443ZM266.064 221.545V239H262.433V221.545H266.064ZM274.887 239.256C273.563 239.256 272.418 238.974 271.452 238.412C270.492 237.844 269.751 237.054 269.228 236.043C268.705 235.026 268.444 233.847 268.444 232.506C268.444 231.153 268.705 229.972 269.228 228.96C269.751 227.943 270.492 227.153 271.452 226.591C272.418 226.023 273.563 225.739 274.887 225.739C276.211 225.739 277.353 226.023 278.313 226.591C279.279 227.153 280.023 227.943 280.546 228.96C281.069 229.972 281.33 231.153 281.33 232.506C281.33 233.847 281.069 235.026 280.546 236.043C280.023 237.054 279.279 237.844 278.313 238.412C277.353 238.974 276.211 239.256 274.887 239.256ZM274.904 236.443C275.506 236.443 276.009 236.273 276.413 235.932C276.816 235.585 277.12 235.114 277.325 234.517C277.535 233.92 277.64 233.241 277.64 232.48C277.64 231.719 277.535 231.04 277.325 230.443C277.12 229.847 276.816 229.375 276.413 229.028C276.009 228.682 275.506 228.509 274.904 228.509C274.296 228.509 273.785 228.682 273.37 229.028C272.961 229.375 272.651 229.847 272.441 230.443C272.237 231.04 272.134 231.719 272.134 232.48C272.134 233.241 272.237 233.92 272.441 234.517C272.651 235.114 272.961 235.585 273.37 235.932C273.785 236.273 274.296 236.443 274.904 236.443ZM283.691 239V225.909H287.211V228.193H287.347C287.586 227.381 287.987 226.767 288.549 226.352C289.112 225.932 289.759 225.722 290.492 225.722C290.674 225.722 290.87 225.733 291.08 225.756C291.29 225.778 291.475 225.81 291.634 225.849V229.071C291.464 229.02 291.228 228.974 290.927 228.935C290.626 228.895 290.35 228.875 290.1 228.875C289.566 228.875 289.089 228.991 288.668 229.224C288.254 229.452 287.924 229.77 287.68 230.179C287.441 230.588 287.322 231.06 287.322 231.594V239H283.691ZM305.597 239.273C304.506 239.273 303.543 238.997 302.707 238.446C301.872 237.889 301.219 237.105 300.747 236.094C300.276 235.077 300.04 233.875 300.04 232.489C300.04 231.114 300.276 229.92 300.747 228.909C301.219 227.898 301.875 227.116 302.716 226.565C303.557 226.014 304.528 225.739 305.631 225.739C306.483 225.739 307.156 225.881 307.651 226.165C308.151 226.443 308.531 226.761 308.793 227.119C309.06 227.472 309.267 227.761 309.415 227.989H309.585V221.545H311.597V239H309.653V236.989H309.415C309.267 237.227 309.057 237.528 308.784 237.892C308.511 238.25 308.122 238.571 307.616 238.855C307.111 239.134 306.438 239.273 305.597 239.273ZM305.869 237.466C306.676 237.466 307.358 237.256 307.915 236.835C308.472 236.409 308.895 235.821 309.185 235.071C309.474 234.315 309.619 233.443 309.619 232.455C309.619 231.477 309.477 230.622 309.193 229.889C308.909 229.151 308.489 228.577 307.932 228.168C307.375 227.753 306.688 227.545 305.869 227.545C305.017 227.545 304.307 227.764 303.739 228.202C303.176 228.634 302.753 229.222 302.469 229.966C302.19 230.705 302.051 231.534 302.051 232.455C302.051 233.386 302.193 234.233 302.477 234.994C302.767 235.75 303.193 236.352 303.756 236.801C304.324 237.244 305.028 237.466 305.869 237.466ZM321.048 239.273C319.787 239.273 318.699 238.994 317.784 238.438C316.875 237.875 316.173 237.091 315.679 236.085C315.19 235.074 314.946 233.898 314.946 232.557C314.946 231.216 315.19 230.034 315.679 229.011C316.173 227.983 316.861 227.182 317.741 226.608C318.628 226.028 319.662 225.739 320.844 225.739C321.526 225.739 322.199 225.852 322.864 226.08C323.528 226.307 324.134 226.676 324.679 227.188C325.224 227.693 325.659 228.364 325.983 229.199C326.307 230.034 326.469 231.062 326.469 232.284V233.136H316.378V231.398H324.423C324.423 230.659 324.276 230 323.98 229.42C323.69 228.841 323.276 228.384 322.736 228.048C322.202 227.713 321.571 227.545 320.844 227.545C320.043 227.545 319.349 227.744 318.764 228.142C318.185 228.534 317.739 229.045 317.426 229.676C317.114 230.307 316.957 230.983 316.957 231.705V232.864C316.957 233.852 317.128 234.69 317.469 235.378C317.815 236.06 318.295 236.58 318.909 236.938C319.523 237.29 320.236 237.466 321.048 237.466C321.577 237.466 322.054 237.392 322.48 237.244C322.912 237.091 323.284 236.864 323.597 236.562C323.909 236.256 324.151 235.875 324.321 235.42L326.264 235.966C326.06 236.625 325.716 237.205 325.233 237.705C324.75 238.199 324.153 238.585 323.443 238.864C322.733 239.136 321.935 239.273 321.048 239.273ZM338.29 221.545V239H336.278V221.545H338.29ZM345.826 239.307C344.996 239.307 344.244 239.151 343.567 238.838C342.891 238.52 342.354 238.062 341.957 237.466C341.559 236.864 341.36 236.136 341.36 235.284C341.36 234.534 341.508 233.926 341.803 233.46C342.099 232.989 342.494 232.619 342.988 232.352C343.482 232.085 344.028 231.886 344.624 231.756C345.227 231.619 345.832 231.511 346.44 231.432C347.235 231.33 347.88 231.253 348.374 231.202C348.874 231.145 349.238 231.051 349.465 230.92C349.698 230.79 349.815 230.562 349.815 230.239V230.17C349.815 229.33 349.585 228.676 349.124 228.21C348.67 227.744 347.979 227.511 347.053 227.511C346.093 227.511 345.34 227.722 344.795 228.142C344.249 228.562 343.866 229.011 343.644 229.489L341.735 228.807C342.076 228.011 342.531 227.392 343.099 226.949C343.673 226.5 344.298 226.187 344.974 226.011C345.656 225.83 346.326 225.739 346.985 225.739C347.406 225.739 347.888 225.79 348.434 225.892C348.985 225.989 349.516 226.19 350.028 226.497C350.545 226.804 350.974 227.267 351.315 227.886C351.656 228.506 351.826 229.335 351.826 230.375V239H349.815V237.227H349.712C349.576 237.511 349.349 237.815 349.031 238.139C348.712 238.463 348.289 238.739 347.761 238.966C347.232 239.193 346.587 239.307 345.826 239.307ZM346.133 237.5C346.928 237.5 347.599 237.344 348.144 237.031C348.695 236.719 349.11 236.315 349.388 235.821C349.673 235.327 349.815 234.807 349.815 234.261V232.42C349.729 232.523 349.542 232.616 349.252 232.702C348.968 232.781 348.638 232.852 348.263 232.915C347.894 232.972 347.533 233.023 347.181 233.068C346.835 233.108 346.553 233.142 346.337 233.17C345.815 233.239 345.326 233.349 344.871 233.503C344.423 233.651 344.059 233.875 343.781 234.176C343.508 234.472 343.371 234.875 343.371 235.386C343.371 236.085 343.63 236.614 344.147 236.972C344.67 237.324 345.332 237.5 346.133 237.5ZM364.259 231.125V239H362.247V225.909H364.19V227.955H364.361C364.668 227.29 365.134 226.756 365.759 226.352C366.384 225.943 367.19 225.739 368.179 225.739C369.065 225.739 369.841 225.92 370.506 226.284C371.17 226.642 371.688 227.188 372.057 227.92C372.426 228.648 372.611 229.568 372.611 230.682V239H370.599V230.818C370.599 229.79 370.332 228.989 369.798 228.415C369.264 227.835 368.531 227.545 367.599 227.545C366.957 227.545 366.384 227.685 365.878 227.963C365.378 228.241 364.983 228.648 364.693 229.182C364.403 229.716 364.259 230.364 364.259 231.125ZM381.604 239.273C380.423 239.273 379.386 238.991 378.494 238.429C377.607 237.866 376.914 237.08 376.414 236.068C375.92 235.057 375.673 233.875 375.673 232.523C375.673 231.159 375.92 229.969 376.414 228.952C376.914 227.935 377.607 227.145 378.494 226.582C379.386 226.02 380.423 225.739 381.604 225.739C382.786 225.739 383.82 226.02 384.707 226.582C385.599 227.145 386.292 227.935 386.786 228.952C387.286 229.969 387.536 231.159 387.536 232.523C387.536 233.875 387.286 235.057 386.786 236.068C386.292 237.08 385.599 237.866 384.707 238.429C383.82 238.991 382.786 239.273 381.604 239.273ZM381.604 237.466C382.502 237.466 383.241 237.236 383.82 236.776C384.4 236.315 384.829 235.71 385.107 234.96C385.386 234.21 385.525 233.398 385.525 232.523C385.525 231.648 385.386 230.832 385.107 230.077C384.829 229.321 384.4 228.71 383.82 228.244C383.241 227.778 382.502 227.545 381.604 227.545C380.707 227.545 379.968 227.778 379.388 228.244C378.809 228.71 378.38 229.321 378.102 230.077C377.823 230.832 377.684 231.648 377.684 232.523C377.684 233.398 377.823 234.21 378.102 234.96C378.38 235.71 378.809 236.315 379.388 236.776C379.968 237.236 380.707 237.466 381.604 237.466ZM396.3 225.909V227.614H389.516V225.909H396.3ZM391.493 222.773H393.504V235.25C393.504 235.818 393.587 236.244 393.751 236.528C393.922 236.807 394.138 236.994 394.399 237.091C394.666 237.182 394.947 237.227 395.243 237.227C395.464 237.227 395.646 237.216 395.788 237.193C395.93 237.165 396.044 237.142 396.129 237.125L396.538 238.932C396.402 238.983 396.212 239.034 395.967 239.085C395.723 239.142 395.413 239.17 395.038 239.17C394.47 239.17 393.913 239.048 393.368 238.804C392.828 238.56 392.379 238.188 392.021 237.688C391.669 237.188 391.493 236.557 391.493 235.795V222.773ZM403.178 239.307C402.348 239.307 401.595 239.151 400.919 238.838C400.243 238.52 399.706 238.062 399.308 237.466C398.911 236.864 398.712 236.136 398.712 235.284C398.712 234.534 398.859 233.926 399.155 233.46C399.45 232.989 399.845 232.619 400.339 232.352C400.834 232.085 401.379 231.886 401.976 231.756C402.578 231.619 403.183 231.511 403.791 231.432C404.587 231.33 405.232 231.253 405.726 231.202C406.226 231.145 406.589 231.051 406.817 230.92C407.05 230.79 407.166 230.562 407.166 230.239V230.17C407.166 229.33 406.936 228.676 406.476 228.21C406.021 227.744 405.331 227.511 404.405 227.511C403.445 227.511 402.692 227.722 402.146 228.142C401.601 228.562 401.217 229.011 400.996 229.489L399.087 228.807C399.428 228.011 399.882 227.392 400.45 226.949C401.024 226.5 401.649 226.187 402.325 226.011C403.007 225.83 403.678 225.739 404.337 225.739C404.757 225.739 405.24 225.79 405.786 225.892C406.337 225.989 406.868 226.19 407.379 226.497C407.896 226.804 408.325 227.267 408.666 227.886C409.007 228.506 409.178 229.335 409.178 230.375V239H407.166V237.227H407.064C406.928 237.511 406.7 237.815 406.382 238.139C406.064 238.463 405.641 238.739 405.112 238.966C404.584 239.193 403.939 239.307 403.178 239.307ZM403.484 237.5C404.28 237.5 404.95 237.344 405.496 237.031C406.047 236.719 406.462 236.315 406.74 235.821C407.024 235.327 407.166 234.807 407.166 234.261V232.42C407.081 232.523 406.893 232.616 406.604 232.702C406.32 232.781 405.99 232.852 405.615 232.915C405.246 232.972 404.885 233.023 404.533 233.068C404.186 233.108 403.905 233.142 403.689 233.17C403.166 233.239 402.678 233.349 402.223 233.503C401.774 233.651 401.411 233.875 401.132 234.176C400.859 234.472 400.723 234.875 400.723 235.386C400.723 236.085 400.982 236.614 401.499 236.972C402.021 237.324 402.683 237.5 403.484 237.5ZM87.8409 272.909V254.909H89.7841V256.989H90.0227C90.1705 256.761 90.375 256.472 90.6364 256.119C90.9034 255.761 91.2841 255.443 91.7784 255.165C92.2784 254.881 92.9545 254.739 93.8068 254.739C94.9091 254.739 95.8807 255.014 96.7216 255.565C97.5625 256.116 98.2188 256.898 98.6903 257.909C99.1619 258.92 99.3977 260.114 99.3977 261.489C99.3977 262.875 99.1619 264.077 98.6903 265.094C98.2188 266.105 97.5653 266.889 96.7301 267.446C95.8949 267.997 94.9318 268.273 93.8409 268.273C93 268.273 92.3267 268.134 91.821 267.855C91.3153 267.571 90.9261 267.25 90.6534 266.892C90.3807 266.528 90.1705 266.227 90.0227 265.989H89.8523V272.909H87.8409ZM89.8182 261.455C89.8182 262.443 89.9631 263.315 90.2528 264.071C90.5426 264.821 90.9659 265.409 91.5227 265.835C92.0795 266.256 92.7614 266.466 93.5682 266.466C94.4091 266.466 95.1108 266.244 95.6733 265.801C96.2415 265.352 96.6676 264.75 96.9517 263.994C97.2415 263.233 97.3864 262.386 97.3864 261.455C97.3864 260.534 97.2443 259.705 96.9602 258.966C96.6818 258.222 96.2585 257.634 95.6903 257.202C95.1278 256.764 94.4205 256.545 93.5682 256.545C92.75 256.545 92.0625 256.753 91.5057 257.168C90.9489 257.577 90.5284 258.151 90.2443 258.889C89.9602 259.622 89.8182 260.477 89.8182 261.455ZM107.784 268.273C106.602 268.273 105.565 267.991 104.673 267.429C103.787 266.866 103.094 266.08 102.594 265.068C102.099 264.057 101.852 262.875 101.852 261.523C101.852 260.159 102.099 258.969 102.594 257.952C103.094 256.935 103.787 256.145 104.673 255.582C105.565 255.02 106.602 254.739 107.784 254.739C108.966 254.739 110 255.02 110.886 255.582C111.778 256.145 112.472 256.935 112.966 257.952C113.466 258.969 113.716 260.159 113.716 261.523C113.716 262.875 113.466 264.057 112.966 265.068C112.472 266.08 111.778 266.866 110.886 267.429C110 267.991 108.966 268.273 107.784 268.273ZM107.784 266.466C108.682 266.466 109.42 266.236 110 265.776C110.58 265.315 111.009 264.71 111.287 263.96C111.565 263.21 111.705 262.398 111.705 261.523C111.705 260.648 111.565 259.832 111.287 259.077C111.009 258.321 110.58 257.71 110 257.244C109.42 256.778 108.682 256.545 107.784 256.545C106.886 256.545 106.148 256.778 105.568 257.244C104.989 257.71 104.56 258.321 104.281 259.077C104.003 259.832 103.864 260.648 103.864 261.523C103.864 262.398 104.003 263.21 104.281 263.96C104.56 264.71 104.989 265.315 105.568 265.776C106.148 266.236 106.886 266.466 107.784 266.466ZM116.786 268V254.909H118.729V256.886H118.866C119.104 256.239 119.536 255.713 120.161 255.31C120.786 254.906 121.491 254.705 122.275 254.705C122.423 254.705 122.607 254.707 122.829 254.713C123.05 254.719 123.218 254.727 123.332 254.739V256.784C123.263 256.767 123.107 256.741 122.863 256.707C122.624 256.668 122.371 256.648 122.104 256.648C121.468 256.648 120.9 256.781 120.4 257.048C119.906 257.31 119.513 257.673 119.224 258.139C118.94 258.599 118.798 259.125 118.798 259.716V268H116.786ZM137.955 268.273C136.693 268.273 135.605 267.994 134.69 267.438C133.781 266.875 133.08 266.091 132.585 265.085C132.097 264.074 131.852 262.898 131.852 261.557C131.852 260.216 132.097 259.034 132.585 258.011C133.08 256.983 133.767 256.182 134.648 255.608C135.534 255.028 136.568 254.739 137.75 254.739C138.432 254.739 139.105 254.852 139.77 255.08C140.435 255.307 141.04 255.676 141.585 256.188C142.131 256.693 142.565 257.364 142.889 258.199C143.213 259.034 143.375 260.062 143.375 261.284V262.136H133.284V260.398H141.33C141.33 259.659 141.182 259 140.886 258.42C140.597 257.841 140.182 257.384 139.642 257.048C139.108 256.713 138.477 256.545 137.75 256.545C136.949 256.545 136.256 256.744 135.67 257.142C135.091 257.534 134.645 258.045 134.332 258.676C134.02 259.307 133.864 259.983 133.864 260.705V261.864C133.864 262.852 134.034 263.69 134.375 264.378C134.722 265.06 135.202 265.58 135.815 265.938C136.429 266.29 137.142 266.466 137.955 266.466C138.483 266.466 138.96 266.392 139.386 266.244C139.818 266.091 140.19 265.864 140.503 265.562C140.815 265.256 141.057 264.875 141.227 264.42L143.17 264.966C142.966 265.625 142.622 266.205 142.139 266.705C141.656 267.199 141.06 267.585 140.349 267.864C139.639 268.136 138.841 268.273 137.955 268.273ZM148.446 250.545V268H146.435V250.545H148.446ZM158.488 272.909V254.909H162.067V257.108H162.229C162.388 256.756 162.619 256.398 162.92 256.034C163.227 255.665 163.624 255.358 164.113 255.114C164.607 254.864 165.221 254.739 165.954 254.739C166.908 254.739 167.789 254.989 168.596 255.489C169.403 255.983 170.048 256.73 170.531 257.73C171.013 258.724 171.255 259.972 171.255 261.472C171.255 262.932 171.019 264.165 170.548 265.17C170.082 266.17 169.445 266.929 168.638 267.446C167.837 267.957 166.94 268.213 165.945 268.213C165.241 268.213 164.641 268.097 164.147 267.864C163.658 267.631 163.258 267.338 162.945 266.986C162.633 266.628 162.394 266.267 162.229 265.903H162.119V272.909H158.488ZM162.042 261.455C162.042 262.233 162.15 262.912 162.366 263.491C162.582 264.071 162.894 264.523 163.303 264.847C163.712 265.165 164.21 265.324 164.795 265.324C165.386 265.324 165.886 265.162 166.295 264.838C166.704 264.509 167.013 264.054 167.224 263.474C167.44 262.889 167.548 262.216 167.548 261.455C167.548 260.699 167.442 260.034 167.232 259.46C167.022 258.886 166.712 258.437 166.303 258.114C165.894 257.79 165.391 257.628 164.795 257.628C164.204 257.628 163.704 257.784 163.295 258.097C162.891 258.409 162.582 258.852 162.366 259.426C162.15 260 162.042 260.676 162.042 261.455ZM179.641 268.256C178.295 268.256 177.136 267.983 176.164 267.438C175.198 266.886 174.454 266.108 173.931 265.102C173.408 264.091 173.147 262.895 173.147 261.514C173.147 260.168 173.408 258.986 173.931 257.969C174.454 256.952 175.19 256.159 176.138 255.591C177.093 255.023 178.212 254.739 179.496 254.739C180.36 254.739 181.164 254.878 181.908 255.156C182.658 255.429 183.312 255.841 183.869 256.392C184.431 256.943 184.869 257.636 185.181 258.472C185.494 259.301 185.65 260.273 185.65 261.386V262.384H174.596V260.134H182.232C182.232 259.611 182.119 259.148 181.891 258.744C181.664 258.341 181.349 258.026 180.945 257.798C180.548 257.565 180.085 257.449 179.556 257.449C179.005 257.449 178.516 257.577 178.09 257.832C177.67 258.082 177.34 258.42 177.102 258.847C176.863 259.267 176.741 259.736 176.735 260.253V262.392C176.735 263.04 176.854 263.599 177.093 264.071C177.337 264.543 177.681 264.906 178.124 265.162C178.567 265.418 179.093 265.545 179.701 265.545C180.104 265.545 180.474 265.489 180.809 265.375C181.144 265.261 181.431 265.091 181.67 264.864C181.908 264.636 182.09 264.358 182.215 264.028L185.573 264.25C185.403 265.057 185.053 265.761 184.525 266.364C184.002 266.96 183.326 267.426 182.496 267.761C181.673 268.091 180.721 268.256 179.641 268.256ZM188.019 268V254.909H191.539V257.193H191.675C191.914 256.381 192.315 255.767 192.877 255.352C193.44 254.932 194.087 254.722 194.82 254.722C195.002 254.722 195.198 254.733 195.408 254.756C195.619 254.778 195.803 254.81 195.962 254.849V258.071C195.792 258.02 195.556 257.974 195.255 257.935C194.954 257.895 194.678 257.875 194.428 257.875C193.894 257.875 193.417 257.991 192.996 258.224C192.582 258.452 192.252 258.77 192.008 259.179C191.769 259.588 191.65 260.06 191.65 260.594V268H188.019ZM205.536 254.909V257.636H197.456V254.909H205.536ZM199.305 268V253.963C199.305 253.014 199.49 252.227 199.859 251.602C200.234 250.977 200.746 250.509 201.393 250.196C202.041 249.884 202.777 249.727 203.601 249.727C204.158 249.727 204.666 249.77 205.126 249.855C205.592 249.94 205.939 250.017 206.166 250.085L205.518 252.812C205.376 252.767 205.2 252.724 204.99 252.685C204.786 252.645 204.575 252.625 204.359 252.625C203.825 252.625 203.453 252.75 203.243 253C203.033 253.244 202.928 253.588 202.928 254.031V268H199.305ZM207.754 268V254.909H211.384V268H207.754ZM209.577 253.222C209.038 253.222 208.575 253.043 208.188 252.685C207.808 252.321 207.617 251.886 207.617 251.381C207.617 250.881 207.808 250.452 208.188 250.094C208.575 249.73 209.038 249.548 209.577 249.548C210.117 249.548 210.577 249.73 210.958 250.094C211.344 250.452 211.538 250.881 211.538 251.381C211.538 251.886 211.344 252.321 210.958 252.685C210.577 253.043 210.117 253.222 209.577 253.222ZM217.923 250.545V268H214.293V250.545H217.923ZM236.906 272.909V265.989H236.735C236.587 266.227 236.377 266.528 236.104 266.892C235.832 267.25 235.442 267.571 234.937 267.855C234.431 268.134 233.758 268.273 232.917 268.273C231.826 268.273 230.863 267.997 230.028 267.446C229.192 266.889 228.539 266.105 228.067 265.094C227.596 264.077 227.36 262.875 227.36 261.489C227.36 260.114 227.596 258.92 228.067 257.909C228.539 256.898 229.195 256.116 230.036 255.565C230.877 255.014 231.849 254.739 232.951 254.739C233.803 254.739 234.477 254.881 234.971 255.165C235.471 255.443 235.852 255.761 236.113 256.119C236.38 256.472 236.587 256.761 236.735 256.989H236.974V254.909H238.917V272.909H236.906ZM233.19 266.466C233.996 266.466 234.678 266.256 235.235 265.835C235.792 265.409 236.215 264.821 236.505 264.071C236.795 263.315 236.94 262.443 236.94 261.455C236.94 260.477 236.798 259.622 236.513 258.889C236.229 258.151 235.809 257.577 235.252 257.168C234.695 256.753 234.008 256.545 233.19 256.545C232.337 256.545 231.627 256.764 231.059 257.202C230.496 257.634 230.073 258.222 229.789 258.966C229.511 259.705 229.371 260.534 229.371 261.455C229.371 262.386 229.513 263.233 229.798 263.994C230.087 264.75 230.513 265.352 231.076 265.801C231.644 266.244 232.349 266.466 233.19 266.466ZM250.849 262.648V254.909H252.86V268H250.849V265.784H250.712C250.406 266.449 249.928 267.014 249.281 267.48C248.633 267.94 247.815 268.17 246.826 268.17C246.008 268.17 245.281 267.991 244.644 267.634C244.008 267.27 243.508 266.724 243.144 265.997C242.781 265.264 242.599 264.341 242.599 263.227V254.909H244.61V263.091C244.61 264.045 244.877 264.807 245.411 265.375C245.951 265.943 246.638 266.227 247.474 266.227C247.974 266.227 248.482 266.099 248.999 265.844C249.522 265.588 249.96 265.196 250.312 264.668C250.67 264.139 250.849 263.466 250.849 262.648ZM262.033 268.273C260.771 268.273 259.683 267.994 258.768 267.438C257.859 266.875 257.158 266.091 256.663 265.085C256.175 264.074 255.93 262.898 255.93 261.557C255.93 260.216 256.175 259.034 256.663 258.011C257.158 256.983 257.845 256.182 258.726 255.608C259.612 255.028 260.646 254.739 261.828 254.739C262.51 254.739 263.183 254.852 263.848 255.08C264.513 255.307 265.118 255.676 265.663 256.188C266.209 256.693 266.643 257.364 266.967 258.199C267.291 259.034 267.453 260.062 267.453 261.284V262.136H257.362V260.398H265.408C265.408 259.659 265.26 259 264.964 258.42C264.675 257.841 264.26 257.384 263.72 257.048C263.186 256.713 262.555 256.545 261.828 256.545C261.027 256.545 260.334 256.744 259.749 257.142C259.169 257.534 258.723 258.045 258.411 258.676C258.098 259.307 257.942 259.983 257.942 260.705V261.864C257.942 262.852 258.112 263.69 258.453 264.378C258.8 265.06 259.28 265.58 259.893 265.938C260.507 266.29 261.22 266.466 262.033 266.466C262.561 266.466 263.038 266.392 263.464 266.244C263.896 266.091 264.268 265.864 264.581 265.562C264.893 265.256 265.135 264.875 265.305 264.42L267.249 264.966C267.044 265.625 266.7 266.205 266.217 266.705C265.734 267.199 265.138 267.585 264.428 267.864C263.717 268.136 262.919 268.273 262.033 268.273ZM282.751 268.273C281.49 268.273 280.402 267.994 279.487 267.438C278.578 266.875 277.876 266.091 277.382 265.085C276.893 264.074 276.649 262.898 276.649 261.557C276.649 260.216 276.893 259.034 277.382 258.011C277.876 256.983 278.564 256.182 279.445 255.608C280.331 255.028 281.365 254.739 282.547 254.739C283.229 254.739 283.902 254.852 284.567 255.08C285.232 255.307 285.837 255.676 286.382 256.188C286.928 256.693 287.362 257.364 287.686 258.199C288.01 259.034 288.172 260.062 288.172 261.284V262.136H278.081V260.398H286.126C286.126 259.659 285.979 259 285.683 258.42C285.393 257.841 284.979 257.384 284.439 257.048C283.905 256.713 283.274 256.545 282.547 256.545C281.746 256.545 281.053 256.744 280.467 257.142C279.888 257.534 279.442 258.045 279.129 258.676C278.817 259.307 278.661 259.983 278.661 260.705V261.864C278.661 262.852 278.831 263.69 279.172 264.378C279.518 265.06 279.999 265.58 280.612 265.938C281.226 266.29 281.939 266.466 282.751 266.466C283.28 266.466 283.757 266.392 284.183 266.244C284.615 266.091 284.987 265.864 285.3 265.562C285.612 265.256 285.854 264.875 286.024 264.42L287.967 264.966C287.763 265.625 287.419 266.205 286.936 266.705C286.453 267.199 285.857 267.585 285.146 267.864C284.436 268.136 283.638 268.273 282.751 268.273ZM300.504 257.841L298.697 258.352C298.584 258.051 298.416 257.759 298.195 257.474C297.979 257.185 297.683 256.946 297.308 256.759C296.933 256.571 296.453 256.477 295.868 256.477C295.067 256.477 294.399 256.662 293.865 257.031C293.337 257.395 293.072 257.858 293.072 258.42C293.072 258.92 293.254 259.315 293.618 259.605C293.982 259.895 294.55 260.136 295.322 260.33L297.266 260.807C298.436 261.091 299.308 261.526 299.882 262.111C300.456 262.69 300.743 263.437 300.743 264.352C300.743 265.102 300.527 265.773 300.095 266.364C299.669 266.955 299.072 267.42 298.305 267.761C297.538 268.102 296.646 268.273 295.629 268.273C294.294 268.273 293.189 267.983 292.314 267.403C291.439 266.824 290.885 265.977 290.652 264.864L292.561 264.386C292.743 265.091 293.087 265.619 293.592 265.972C294.104 266.324 294.771 266.5 295.595 266.5C296.533 266.5 297.277 266.301 297.828 265.903C298.385 265.5 298.663 265.017 298.663 264.455C298.663 264 298.504 263.619 298.186 263.312C297.868 263 297.379 262.767 296.72 262.614L294.538 262.102C293.339 261.818 292.459 261.378 291.896 260.781C291.339 260.179 291.061 259.426 291.061 258.523C291.061 257.784 291.268 257.131 291.683 256.562C292.104 255.994 292.675 255.548 293.396 255.224C294.124 254.901 294.947 254.739 295.868 254.739C297.163 254.739 298.18 255.023 298.919 255.591C299.663 256.159 300.192 256.909 300.504 257.841ZM309.464 254.909V256.614H302.68V254.909H309.464ZM304.657 251.773H306.668V264.25C306.668 264.818 306.751 265.244 306.915 265.528C307.086 265.807 307.302 265.994 307.563 266.091C307.83 266.182 308.112 266.227 308.407 266.227C308.629 266.227 308.81 266.216 308.952 266.193C309.094 266.165 309.208 266.142 309.293 266.125L309.702 267.932C309.566 267.983 309.376 268.034 309.131 268.085C308.887 268.142 308.577 268.17 308.202 268.17C307.634 268.17 307.077 268.048 306.532 267.804C305.992 267.56 305.543 267.188 305.185 266.688C304.833 266.188 304.657 265.557 304.657 264.795V251.773ZM316.342 268.307C315.512 268.307 314.759 268.151 314.083 267.838C313.407 267.52 312.87 267.062 312.472 266.466C312.075 265.864 311.876 265.136 311.876 264.284C311.876 263.534 312.023 262.926 312.319 262.46C312.614 261.989 313.009 261.619 313.504 261.352C313.998 261.085 314.543 260.886 315.14 260.756C315.742 260.619 316.347 260.511 316.955 260.432C317.751 260.33 318.396 260.253 318.89 260.202C319.39 260.145 319.754 260.051 319.981 259.92C320.214 259.79 320.33 259.562 320.33 259.239V259.17C320.33 258.33 320.1 257.676 319.64 257.21C319.185 256.744 318.495 256.511 317.569 256.511C316.609 256.511 315.856 256.722 315.31 257.142C314.765 257.562 314.381 258.011 314.16 258.489L312.251 257.807C312.592 257.011 313.046 256.392 313.614 255.949C314.188 255.5 314.813 255.187 315.489 255.011C316.171 254.83 316.842 254.739 317.501 254.739C317.921 254.739 318.404 254.79 318.95 254.892C319.501 254.989 320.032 255.19 320.543 255.497C321.06 255.804 321.489 256.267 321.83 256.886C322.171 257.506 322.342 258.335 322.342 259.375V268H320.33V266.227H320.228C320.092 266.511 319.864 266.815 319.546 267.139C319.228 267.463 318.805 267.739 318.276 267.966C317.748 268.193 317.103 268.307 316.342 268.307ZM316.648 266.5C317.444 266.5 318.114 266.344 318.66 266.031C319.211 265.719 319.626 265.315 319.904 264.821C320.188 264.327 320.33 263.807 320.33 263.261V261.42C320.245 261.523 320.058 261.616 319.768 261.702C319.484 261.781 319.154 261.852 318.779 261.915C318.41 261.972 318.049 262.023 317.697 262.068C317.35 262.108 317.069 262.142 316.853 262.17C316.33 262.239 315.842 262.349 315.387 262.503C314.938 262.651 314.575 262.875 314.296 263.176C314.023 263.472 313.887 263.875 313.887 264.386C313.887 265.085 314.146 265.614 314.663 265.972C315.185 266.324 315.847 266.5 316.648 266.5ZM326.013 268V254.909H327.956V256.955H328.126C328.399 256.256 328.839 255.713 329.447 255.327C330.055 254.935 330.786 254.739 331.638 254.739C332.501 254.739 333.22 254.935 333.794 255.327C334.374 255.713 334.825 256.256 335.149 256.955H335.286C335.621 256.278 336.124 255.741 336.794 255.344C337.464 254.94 338.268 254.739 339.206 254.739C340.376 254.739 341.334 255.105 342.078 255.838C342.822 256.565 343.195 257.699 343.195 259.239V268H341.183V259.239C341.183 258.273 340.919 257.582 340.391 257.168C339.862 256.753 339.24 256.545 338.524 256.545C337.604 256.545 336.891 256.824 336.385 257.381C335.879 257.932 335.626 258.631 335.626 259.477V268H333.581V259.034C333.581 258.29 333.339 257.69 332.857 257.236C332.374 256.776 331.751 256.545 330.99 256.545C330.467 256.545 329.979 256.685 329.524 256.963C329.075 257.241 328.712 257.628 328.433 258.122C328.161 258.611 328.024 259.176 328.024 259.818V268H326.013ZM352.19 268.273C351.009 268.273 349.972 267.991 349.08 267.429C348.193 266.866 347.5 266.08 347 265.068C346.506 264.057 346.259 262.875 346.259 261.523C346.259 260.159 346.506 258.969 347 257.952C347.5 256.935 348.193 256.145 349.08 255.582C349.972 255.02 351.009 254.739 352.19 254.739C353.372 254.739 354.406 255.02 355.293 255.582C356.185 256.145 356.878 256.935 357.372 257.952C357.872 258.969 358.122 260.159 358.122 261.523C358.122 262.875 357.872 264.057 357.372 265.068C356.878 266.08 356.185 266.866 355.293 267.429C354.406 267.991 353.372 268.273 352.19 268.273ZM352.19 266.466C353.088 266.466 353.827 266.236 354.406 265.776C354.986 265.315 355.415 264.71 355.693 263.96C355.972 263.21 356.111 262.398 356.111 261.523C356.111 260.648 355.972 259.832 355.693 259.077C355.415 258.321 354.986 257.71 354.406 257.244C353.827 256.778 353.088 256.545 352.19 256.545C351.293 256.545 350.554 256.778 349.974 257.244C349.395 257.71 348.966 258.321 348.688 259.077C348.409 259.832 348.27 260.648 348.27 261.523C348.27 262.398 348.409 263.21 348.688 263.96C348.966 264.71 349.395 265.315 349.974 265.776C350.554 266.236 351.293 266.466 352.19 266.466ZM370.465 257.841L368.658 258.352C368.545 258.051 368.377 257.759 368.156 257.474C367.94 257.185 367.644 256.946 367.269 256.759C366.894 256.571 366.414 256.477 365.829 256.477C365.028 256.477 364.36 256.662 363.826 257.031C363.298 257.395 363.033 257.858 363.033 258.42C363.033 258.92 363.215 259.315 363.579 259.605C363.942 259.895 364.511 260.136 365.283 260.33L367.227 260.807C368.397 261.091 369.269 261.526 369.843 262.111C370.417 262.69 370.704 263.437 370.704 264.352C370.704 265.102 370.488 265.773 370.056 266.364C369.63 266.955 369.033 267.42 368.266 267.761C367.499 268.102 366.607 268.273 365.59 268.273C364.255 268.273 363.15 267.983 362.275 267.403C361.4 266.824 360.846 265.977 360.613 264.864L362.522 264.386C362.704 265.091 363.048 265.619 363.553 265.972C364.065 266.324 364.732 266.5 365.556 266.5C366.494 266.5 367.238 266.301 367.789 265.903C368.346 265.5 368.624 265.017 368.624 264.455C368.624 264 368.465 263.619 368.147 263.312C367.829 263 367.34 262.767 366.681 262.614L364.499 262.102C363.3 261.818 362.42 261.378 361.857 260.781C361.3 260.179 361.022 259.426 361.022 258.523C361.022 257.784 361.229 257.131 361.644 256.562C362.065 255.994 362.636 255.548 363.357 255.224C364.085 254.901 364.908 254.739 365.829 254.739C367.124 254.739 368.141 255.023 368.88 255.591C369.624 256.159 370.153 256.909 370.465 257.841ZM93.3295 297.273C92.0682 297.273 90.9801 296.994 90.0653 296.438C89.1562 295.875 88.4545 295.091 87.9602 294.085C87.4716 293.074 87.2273 291.898 87.2273 290.557C87.2273 289.216 87.4716 288.034 87.9602 287.011C88.4545 285.983 89.142 285.182 90.0227 284.608C90.9091 284.028 91.9432 283.739 93.125 283.739C93.8068 283.739 94.4801 283.852 95.1449 284.08C95.8097 284.307 96.4148 284.676 96.9602 285.188C97.5057 285.693 97.9403 286.364 98.2642 287.199C98.5881 288.034 98.75 289.062 98.75 290.284V291.136H88.6591V289.398H96.7045C96.7045 288.659 96.5568 288 96.2614 287.42C95.9716 286.841 95.5568 286.384 95.017 286.048C94.483 285.713 93.8523 285.545 93.125 285.545C92.3239 285.545 91.6307 285.744 91.0455 286.142C90.4659 286.534 90.0199 287.045 89.7074 287.676C89.3949 288.307 89.2386 288.983 89.2386 289.705V290.864C89.2386 291.852 89.4091 292.69 89.75 293.378C90.0966 294.06 90.5767 294.58 91.1903 294.938C91.804 295.29 92.517 295.466 93.3295 295.466C93.858 295.466 94.3352 295.392 94.7614 295.244C95.1932 295.091 95.5653 294.864 95.8778 294.562C96.1903 294.256 96.4318 293.875 96.6023 293.42L98.5455 293.966C98.3409 294.625 97.9972 295.205 97.5142 295.705C97.0313 296.199 96.4347 296.585 95.7244 296.864C95.0142 297.136 94.2159 297.273 93.3295 297.273ZM111.082 286.841L109.276 287.352C109.162 287.051 108.994 286.759 108.773 286.474C108.557 286.185 108.261 285.946 107.886 285.759C107.511 285.571 107.031 285.477 106.446 285.477C105.645 285.477 104.977 285.662 104.443 286.031C103.915 286.395 103.651 286.858 103.651 287.42C103.651 287.92 103.832 288.315 104.196 288.605C104.56 288.895 105.128 289.136 105.901 289.33L107.844 289.807C109.014 290.091 109.886 290.526 110.46 291.111C111.034 291.69 111.321 292.437 111.321 293.352C111.321 294.102 111.105 294.773 110.673 295.364C110.247 295.955 109.651 296.42 108.884 296.761C108.116 297.102 107.224 297.273 106.207 297.273C104.872 297.273 103.767 296.983 102.892 296.403C102.017 295.824 101.463 294.977 101.23 293.864L103.139 293.386C103.321 294.091 103.665 294.619 104.17 294.972C104.682 295.324 105.349 295.5 106.173 295.5C107.111 295.5 107.855 295.301 108.406 294.903C108.963 294.5 109.241 294.017 109.241 293.455C109.241 293 109.082 292.619 108.764 292.312C108.446 292 107.957 291.767 107.298 291.614L105.116 291.102C103.918 290.818 103.037 290.378 102.474 289.781C101.918 289.179 101.639 288.426 101.639 287.523C101.639 286.784 101.847 286.131 102.261 285.562C102.682 284.994 103.253 284.548 103.974 284.224C104.702 283.901 105.526 283.739 106.446 283.739C107.741 283.739 108.759 284.023 109.497 284.591C110.241 285.159 110.77 285.909 111.082 286.841ZM120.042 283.909V285.614H113.258V283.909H120.042ZM115.235 280.773H117.246V293.25C117.246 293.818 117.329 294.244 117.494 294.528C117.664 294.807 117.88 294.994 118.141 295.091C118.408 295.182 118.69 295.227 118.985 295.227C119.207 295.227 119.388 295.216 119.531 295.193C119.673 295.165 119.786 295.142 119.871 295.125L120.281 296.932C120.144 296.983 119.954 297.034 119.71 297.085C119.465 297.142 119.156 297.17 118.781 297.17C118.212 297.17 117.656 297.048 117.11 296.804C116.57 296.56 116.121 296.188 115.763 295.688C115.411 295.188 115.235 294.557 115.235 293.795V280.773ZM131.317 291.648V283.909H133.329V297H131.317V294.784H131.181C130.874 295.449 130.397 296.014 129.749 296.48C129.102 296.94 128.283 297.17 127.295 297.17C126.477 297.17 125.749 296.991 125.113 296.634C124.477 296.27 123.977 295.724 123.613 294.997C123.249 294.264 123.067 293.341 123.067 292.227V283.909H125.079V292.091C125.079 293.045 125.346 293.807 125.88 294.375C126.42 294.943 127.107 295.227 127.942 295.227C128.442 295.227 128.951 295.099 129.468 294.844C129.991 294.588 130.428 294.196 130.781 293.668C131.138 293.139 131.317 292.466 131.317 291.648ZM141.956 297.273C140.865 297.273 139.902 296.997 139.067 296.446C138.232 295.889 137.578 295.105 137.107 294.094C136.635 293.077 136.399 291.875 136.399 290.489C136.399 289.114 136.635 287.92 137.107 286.909C137.578 285.898 138.234 285.116 139.075 284.565C139.916 284.014 140.888 283.739 141.99 283.739C142.842 283.739 143.516 283.881 144.01 284.165C144.51 284.443 144.891 284.761 145.152 285.119C145.419 285.472 145.626 285.761 145.774 285.989H145.945V279.545H147.956V297H146.013V294.989H145.774C145.626 295.227 145.416 295.528 145.143 295.892C144.871 296.25 144.482 296.571 143.976 296.855C143.47 297.134 142.797 297.273 141.956 297.273ZM142.229 295.466C143.036 295.466 143.717 295.256 144.274 294.835C144.831 294.409 145.254 293.821 145.544 293.071C145.834 292.315 145.979 291.443 145.979 290.455C145.979 289.477 145.837 288.622 145.553 287.889C145.268 287.151 144.848 286.577 144.291 286.168C143.734 285.753 143.047 285.545 142.229 285.545C141.376 285.545 140.666 285.764 140.098 286.202C139.536 286.634 139.112 287.222 138.828 287.966C138.55 288.705 138.411 289.534 138.411 290.455C138.411 291.386 138.553 292.233 138.837 292.994C139.126 293.75 139.553 294.352 140.115 294.801C140.683 295.244 141.388 295.466 142.229 295.466ZM151.919 297V283.909H153.93V297H151.919ZM152.942 281.727C152.55 281.727 152.212 281.594 151.928 281.327C151.649 281.06 151.51 280.739 151.51 280.364C151.51 279.989 151.649 279.668 151.928 279.401C152.212 279.134 152.55 279 152.942 279C153.334 279 153.669 279.134 153.947 279.401C154.232 279.668 154.374 279.989 154.374 280.364C154.374 280.739 154.232 281.06 153.947 281.327C153.669 281.594 153.334 281.727 152.942 281.727ZM161.467 297.307C160.637 297.307 159.884 297.151 159.208 296.838C158.532 296.52 157.995 296.062 157.597 295.466C157.2 294.864 157.001 294.136 157.001 293.284C157.001 292.534 157.148 291.926 157.444 291.46C157.739 290.989 158.134 290.619 158.629 290.352C159.123 290.085 159.668 289.886 160.265 289.756C160.867 289.619 161.472 289.511 162.08 289.432C162.876 289.33 163.521 289.253 164.015 289.202C164.515 289.145 164.879 289.051 165.106 288.92C165.339 288.79 165.455 288.562 165.455 288.239V288.17C165.455 287.33 165.225 286.676 164.765 286.21C164.31 285.744 163.62 285.511 162.694 285.511C161.734 285.511 160.981 285.722 160.435 286.142C159.89 286.562 159.506 287.011 159.285 287.489L157.376 286.807C157.717 286.011 158.171 285.392 158.739 284.949C159.313 284.5 159.938 284.187 160.614 284.011C161.296 283.83 161.967 283.739 162.626 283.739C163.046 283.739 163.529 283.79 164.075 283.892C164.626 283.989 165.157 284.19 165.668 284.497C166.185 284.804 166.614 285.267 166.955 285.886C167.296 286.506 167.467 287.335 167.467 288.375V297H165.455V295.227H165.353C165.217 295.511 164.989 295.815 164.671 296.139C164.353 296.463 163.93 296.739 163.401 296.966C162.873 297.193 162.228 297.307 161.467 297.307ZM161.773 295.5C162.569 295.5 163.239 295.344 163.785 295.031C164.336 294.719 164.751 294.315 165.029 293.821C165.313 293.327 165.455 292.807 165.455 292.261V290.42C165.37 290.523 165.183 290.616 164.893 290.702C164.609 290.781 164.279 290.852 163.904 290.915C163.535 290.972 163.174 291.023 162.822 291.068C162.475 291.108 162.194 291.142 161.978 291.17C161.455 291.239 160.967 291.349 160.512 291.503C160.063 291.651 159.7 291.875 159.421 292.176C159.148 292.472 159.012 292.875 159.012 293.386C159.012 294.085 159.271 294.614 159.788 294.972C160.31 295.324 160.972 295.5 161.773 295.5ZM173.149 289.125V297H171.138V283.909H173.081V285.955H173.251C173.558 285.29 174.024 284.756 174.649 284.352C175.274 283.943 176.081 283.739 177.07 283.739C177.956 283.739 178.732 283.92 179.396 284.284C180.061 284.642 180.578 285.188 180.947 285.92C181.317 286.648 181.501 287.568 181.501 288.682V297H179.49V288.818C179.49 287.79 179.223 286.989 178.689 286.415C178.155 285.835 177.422 285.545 176.49 285.545C175.848 285.545 175.274 285.685 174.768 285.963C174.268 286.241 173.874 286.648 173.584 287.182C173.294 287.716 173.149 288.364 173.149 289.125ZM190.12 297.273C189.029 297.273 188.066 296.997 187.231 296.446C186.396 295.889 185.742 295.105 185.271 294.094C184.799 293.077 184.563 291.875 184.563 290.489C184.563 289.114 184.799 287.92 185.271 286.909C185.742 285.898 186.398 285.116 187.239 284.565C188.08 284.014 189.052 283.739 190.154 283.739C191.006 283.739 191.68 283.881 192.174 284.165C192.674 284.443 193.055 284.761 193.316 285.119C193.583 285.472 193.79 285.761 193.938 285.989H194.109V279.545H196.12V297H194.177V294.989H193.938C193.79 295.227 193.58 295.528 193.308 295.892C193.035 296.25 192.646 296.571 192.14 296.855C191.634 297.134 190.961 297.273 190.12 297.273ZM190.393 295.466C191.2 295.466 191.881 295.256 192.438 294.835C192.995 294.409 193.418 293.821 193.708 293.071C193.998 292.315 194.143 291.443 194.143 290.455C194.143 289.477 194.001 288.622 193.717 287.889C193.433 287.151 193.012 286.577 192.455 286.168C191.898 285.753 191.211 285.545 190.393 285.545C189.54 285.545 188.83 285.764 188.262 286.202C187.7 286.634 187.276 287.222 186.992 287.966C186.714 288.705 186.575 289.534 186.575 290.455C186.575 291.386 186.717 292.233 187.001 292.994C187.29 293.75 187.717 294.352 188.279 294.801C188.847 295.244 189.552 295.466 190.393 295.466ZM205.401 297.273C204.219 297.273 203.183 296.991 202.29 296.429C201.404 295.866 200.711 295.08 200.211 294.068C199.717 293.057 199.469 291.875 199.469 290.523C199.469 289.159 199.717 287.969 200.211 286.952C200.711 285.935 201.404 285.145 202.29 284.582C203.183 284.02 204.219 283.739 205.401 283.739C206.583 283.739 207.617 284.02 208.504 284.582C209.396 285.145 210.089 285.935 210.583 286.952C211.083 287.969 211.333 289.159 211.333 290.523C211.333 291.875 211.083 293.057 210.583 294.068C210.089 295.08 209.396 295.866 208.504 296.429C207.617 296.991 206.583 297.273 205.401 297.273ZM205.401 295.466C206.299 295.466 207.038 295.236 207.617 294.776C208.197 294.315 208.626 293.71 208.904 292.96C209.183 292.21 209.322 291.398 209.322 290.523C209.322 289.648 209.183 288.832 208.904 288.077C208.626 287.321 208.197 286.71 207.617 286.244C207.038 285.778 206.299 285.545 205.401 285.545C204.504 285.545 203.765 285.778 203.185 286.244C202.606 286.71 202.177 287.321 201.898 288.077C201.62 288.832 201.481 289.648 201.481 290.523C201.481 291.398 201.62 292.21 201.898 292.96C202.177 293.71 202.606 294.315 203.185 294.776C203.765 295.236 204.504 295.466 205.401 295.466Z" fill="white"/>
<line x1="634.5" y1="147" x2="634.5" y2="407" stroke="white" stroke-width="5"/>
<ellipse cx="596.057" cy="406.843" rx="43.3643" ry="35.1733" transform="rotate(-6.48096 596.057 406.843)" fill="white"/>
</svg>
